<svg width="169" height="53" viewBox="0 0 169 53" fill="none" xmlns="http://www.w3.org/2000/svg">
<path d="M31.1937 39.3908C27.2803 39.3908 23.6744 38.0883 20.7793 35.8952C21.0549 36.3884 21.3653 36.8554 21.7047 37.3022C21.6931 37.4066 21.6815 37.5081 21.6815 37.6154L20.8112 47.4177C20.5907 49.8951 22.5431 52.0273 25.0292 52.0273C27.5066 52.0273 29.456 49.9096 29.25 47.4409L28.7801 41.7696C29.5604 41.9292 30.3669 42.0162 31.1937 42.0162C32.0205 42.0162 32.8269 41.9321 33.6073 41.7696L33.1373 47.4409C32.9313 49.9096 34.8808 52.0273 37.3582 52.0273C39.8443 52.0273 41.7966 49.8951 41.5761 47.4177L40.7059 37.6154C40.7059 37.5081 40.6914 37.4066 40.6827 37.3022C41.0221 36.8554 41.3325 36.3884 41.6081 35.8952C38.7129 38.0883 35.1042 39.3908 31.1937 39.3908Z" fill="#010101"/>
<path d="M21.9136 7.2793C22.4416 5.23413 23.6281 3.45585 25.2323 2.17944C24.5854 0.731865 23.4511 -0.176122 22.3575 0.029845C20.9476 0.293831 20.144 2.30129 20.5589 4.51471C20.7735 5.66638 21.2783 6.64399 21.9136 7.2793Z" fill="#010101"/>
<path d="M40.4725 7.2793C41.1049 6.64109 41.6097 5.66638 41.8272 4.51471C42.2421 2.30419 41.4385 0.296732 40.0287 0.029845C38.935 -0.176122 37.8036 0.731865 37.1538 2.17944C38.758 3.45875 39.9445 5.23703 40.4725 7.2793Z" fill="#010101"/>
<path d="M6.56193 32.9574L6.55325 31.2343C6.55325 31.1037 6.60547 30.9877 6.6954 30.8978C6.78533 30.8078 6.90134 30.7556 7.03188 30.7556H11.2702C11.4007 30.7556 11.5167 30.8078 11.6067 30.8978C11.6966 30.9877 11.7488 31.1037 11.7488 31.2343L11.7546 33.2591L6.56193 32.9574ZM0.989231 36.073V35.313C0.989231 34.4369 1.70576 33.7204 2.58185 33.7204L4.00331 33.8045C2.70659 34.0917 1.61293 34.9359 0.989231 36.073ZM45.5245 22.6185C45.2025 18.6326 43.2183 15.0905 40.2796 12.6827C38.4085 15.7374 35.0405 17.7739 31.1967 17.7739C27.3501 17.7739 23.9792 15.7316 22.1081 12.6741C22.1052 12.677 22.1052 12.677 22.1023 12.6799C16.7181 12.6741 10.1678 18.3077 6.94197 24.2807C5.99046 26.0416 5.63946 27.5065 6.55616 29.1108C5.58434 29.3312 4.85908 30.1957 4.85617 31.2343L4.86489 32.8559L1.845 32.6789C0.829665 32.6789 0 33.5086 0 34.5239V44.0361C0 45.0515 0.829665 45.8811 1.845 45.8811L16.4687 47.584C17.484 47.584 18.3136 46.7543 18.3136 45.739L18.3369 35.4261C18.3369 34.4108 17.5072 33.5811 16.4919 33.5811L13.4488 33.3519L13.4575 31.2285C13.4546 30.4481 13.0427 29.7693 12.4277 29.3835C13.7911 24.7304 18.9026 22.1746 22.2183 24.7507C23.457 21.96 25.9751 20.0453 28.8905 20.0453C33.0273 20.0453 36.3807 23.8949 36.3807 28.6437C36.3807 29.3806 36.2908 30.0942 36.14 30.7788C35.6758 33.8335 37.222 34.814 39.1134 34.463C41.2891 34.0569 43.1109 32.151 44.0914 30.1667C45.1996 27.9272 45.7421 25.3453 45.5245 22.6185Z" fill="#010101"/>
<path d="M25.1274 9.93463C25.9745 10.6541 27.1958 9.79249 28.3127 8.47257C29.4324 7.15264 30.0271 5.87621 29.1801 5.15677C28.333 4.43734 26.7375 4.9247 25.6206 6.24463C24.5008 7.56456 24.2804 9.2152 25.1274 9.93463Z" fill="#010101"/>
<path d="M37.0244 9.93463C37.8715 9.2152 37.6511 7.56456 36.5313 6.24463C35.4115 4.9247 33.8189 4.43734 32.9718 5.15677C32.1248 5.87621 32.7194 7.15264 33.8392 8.47257C34.9561 9.79249 36.1774 10.6541 37.0244 9.93463Z" fill="#010101"/>
<path d="M29.5773 11.6947L30.5462 13.1771C30.8508 13.6441 31.5354 13.6441 31.84 13.1771L32.8089 11.6947C33.1454 11.1812 32.777 10.4966 32.162 10.4966H30.2242C29.6092 10.4966 29.2408 11.1783 29.5773 11.6947Z" fill="#010101"/>
<path d="M31.6847 33.0883C31.6847 32.4646 31.2467 31.9628 30.7071 31.9628C30.1675 31.9628 29.7295 32.4675 29.7295 33.0883C29.7295 33.712 30.1675 34.2168 30.7071 34.2168C31.2467 34.2168 31.6847 33.7091 31.6847 33.0883Z" fill="#010101"/>
<path d="M59.109 19.5655L64.2962 27.1348V19.5655H67.4852V32.4564H64.4691L59.109 25.0792V32.4564H55.9199V19.5655H59.109ZM73.4793 19.5655H83.6998V22.5625H76.6492V24.4644H82.7584V27.4614H76.6492V29.4402H83.6998V32.4372H73.4793V19.5655ZM95.3228 32.6485C94.3622 32.6485 93.4785 32.4948 92.6716 32.1682C91.8647 31.8416 91.1539 31.3805 90.5583 30.8042C89.9628 30.2086 89.5017 29.517 89.1559 28.7101C88.8101 27.9032 88.6564 27.0195 88.6564 26.0398C88.6564 25.06 88.8293 24.1762 89.1559 23.3502C89.4825 22.5241 89.9628 21.8324 90.5583 21.2369C91.1539 20.6413 91.8455 20.1995 92.6716 19.8729C93.4785 19.5463 94.3622 19.3926 95.3228 19.3926C96.2834 19.3926 97.1671 19.5463 97.974 19.8729C98.7809 20.1995 99.4917 20.6605 100.068 21.2369C100.644 21.8132 101.125 22.5241 101.451 23.3502C101.797 24.157 101.951 25.06 101.951 26.0398C101.951 27.0195 101.778 27.9032 101.451 28.7101C101.105 29.517 100.644 30.2086 100.068 30.8042C99.4917 31.3805 98.7809 31.8416 97.974 32.1682C97.1863 32.4756 96.3026 32.6485 95.3228 32.6485ZM95.3228 29.4594C95.8031 29.4594 96.2257 29.3826 96.6291 29.2289C97.0326 29.0752 97.3784 28.8446 97.6666 28.5372C97.9548 28.2298 98.1853 27.884 98.3582 27.4422C98.5311 27.0195 98.608 26.5392 98.608 26.0205C98.608 25.4826 98.5311 25.0023 98.3582 24.5797C98.1853 24.157 97.9548 23.792 97.6666 23.4846C97.3784 23.1772 97.0326 22.9467 96.6291 22.793C96.2257 22.6393 95.7839 22.5432 95.3228 22.5432C94.8425 22.5432 94.4198 22.6201 94.0164 22.793C93.613 22.9659 93.2671 23.1964 92.979 23.4846C92.6908 23.792 92.4603 24.1378 92.2873 24.5797C92.1144 25.0023 92.0376 25.4826 92.0376 26.0205C92.0376 26.5392 92.1144 27.0195 92.2873 27.4422C92.4603 27.8648 92.6908 28.2298 92.979 28.5372C93.2671 28.8446 93.6322 29.056 94.0356 29.2289C94.439 29.3826 94.8617 29.4594 95.3228 29.4594ZM107.407 19.5655H113.132C113.92 19.5655 114.65 19.6615 115.303 19.8536C115.956 20.0458 116.513 20.3339 116.993 20.7374C117.454 21.1408 117.819 21.6211 118.088 22.1974C118.338 22.7738 118.473 23.4462 118.473 24.2146C118.473 24.9639 118.338 25.6171 118.088 26.1934C117.839 26.7698 117.474 27.2501 116.993 27.6535C116.532 28.0377 115.956 28.3451 115.303 28.5372C114.65 28.7293 113.92 28.8254 113.132 28.8254H110.577V32.4372H107.388V19.5655H107.407ZM112.863 22.5625H110.596V25.8476H112.863C113.555 25.8476 114.092 25.7131 114.496 25.4634C114.899 25.2136 115.091 24.791 115.091 24.2146C115.091 23.6191 114.899 23.1964 114.496 22.9467C114.092 22.6969 113.555 22.5625 112.863 22.5625ZM129.788 22.5625L128.155 26.8082H131.402L129.788 22.5625ZM126.004 32.4564H122.526L127.656 19.5655H131.94L137.069 32.4564H133.535L132.459 29.6131H127.079L126.004 32.4564ZM140.95 22.5625V19.5655H151.843V22.5625H147.982V32.4564H144.792V22.5625H140.95ZM156.915 19.5655H160.104V24.4644H165.349V19.5655H168.538V32.4564H165.349V27.4806H160.104V32.4564H156.915V19.5655Z" fill="#010101"/>
</svg>
