<svg width="795" height="648" viewBox="0 0 795 648" fill="none" xmlns="http://www.w3.org/2000/svg">
<g opacity="0.5">
<path d="M440.25 623.881L320.42 502.831C320.37 502.781 320.37 502.691 320.42 502.641C320.47 502.591 320.56 502.591 320.61 502.641L441.66 622.471C442.05 622.861 442.06 623.491 441.67 623.881C441.28 624.271 440.65 624.271 440.25 623.881Z" fill="url(#paint0_linear_23_50106)"/>
<path d="M474.34 636.72L307.58 468.74C307.53 468.69 307.53 468.599 307.58 468.549C307.63 468.499 307.72 468.499 307.77 468.549L475.75 635.309C476.14 635.699 476.14 636.33 475.76 636.72C475.37 637.12 474.73 637.12 474.34 636.72Z" fill="url(#paint1_linear_23_50106)"/>
<path d="M501.97 643.11L301.19 441.11C301.14 441.06 301.14 440.97 301.19 440.92C301.24 440.87 301.33 440.87 301.38 440.92L503.38 641.701C503.77 642.091 503.77 642.72 503.38 643.11C502.99 643.51 502.36 643.51 501.97 643.11Z" fill="url(#paint2_linear_23_50106)"/>
<path d="M526.21 646.12L298.18 416.87C298.13 416.82 298.13 416.73 298.18 416.68C298.23 416.63 298.32 416.63 298.37 416.68L527.62 644.71C528.01 645.1 528.01 645.73 527.62 646.12C527.24 646.51 526.61 646.51 526.21 646.12Z" fill="url(#paint3_linear_23_50106)"/>
<path d="M548.12 646.78L297.51 394.951C297.46 394.901 297.46 394.81 297.51 394.76C297.56 394.71 297.65 394.71 297.7 394.76L549.53 645.36C549.92 645.75 549.92 646.38 549.53 646.77C549.15 647.18 548.52 647.18 548.12 646.78Z" fill="url(#paint4_linear_23_50106)"/>
<path d="M568.31 645.741L298.56 374.77C298.51 374.72 298.51 374.63 298.56 374.58C298.61 374.53 298.7 374.53 298.75 374.58L569.72 644.33C570.11 644.72 570.11 645.351 569.72 645.741C569.34 646.131 568.7 646.131 568.31 645.741Z" fill="url(#paint5_linear_23_50106)"/>
<path d="M301.32 355.9L588.4 641.76C588.79 642.15 588.79 642.781 588.4 643.171C588.01 643.561 587.38 643.561 586.99 643.171L301.13 356.09C301.08 356.04 301.08 355.95 301.13 355.9C301.18 355.84 301.27 355.84 301.32 355.9Z" fill="url(#paint6_linear_23_50106)"/>
<path d="M604.58 639.531L304.77 338.501C304.72 338.451 304.72 338.361 304.77 338.311C304.82 338.261 304.91 338.261 304.96 338.311L606 638.111C606.39 638.501 606.39 639.131 606 639.521C605.61 639.921 604.98 639.921 604.58 639.531Z" fill="url(#paint7_linear_23_50106)"/>
<path d="M621.07 634.771L309.53 322.011C309.48 321.961 309.48 321.871 309.53 321.821C309.58 321.771 309.67 321.771 309.72 321.821L622.48 633.361C622.87 633.751 622.87 634.381 622.48 634.771C622.09 635.161 621.46 635.161 621.07 634.771Z" fill="url(#paint8_linear_23_50106)"/>
<path d="M636.71 629.17L315.13 306.37C315.08 306.32 315.08 306.23 315.13 306.18C315.18 306.13 315.27 306.13 315.32 306.18L638.12 627.76C638.51 628.15 638.51 628.78 638.12 629.17C637.74 629.56 637.1 629.56 636.71 629.17Z" fill="url(#paint9_linear_23_50106)"/>
<path d="M651.46 622.681L321.61 291.61C321.56 291.56 321.56 291.47 321.61 291.42C321.66 291.37 321.75 291.37 321.8 291.42L652.87 621.26C653.26 621.65 653.26 622.28 652.87 622.67C652.48 623.06 651.86 623.081 651.46 622.681Z" fill="url(#paint10_linear_23_50106)"/>
<path d="M665.44 615.421L328.88 277.642C328.83 277.592 328.83 277.502 328.88 277.452C328.93 277.402 329.02 277.402 329.07 277.452L666.86 614.001C667.25 614.391 667.25 615.022 666.86 615.412C666.47 615.812 665.84 615.811 665.44 615.421Z" fill="url(#paint11_linear_23_50106)"/>
<path d="M678.73 607.46L336.84 264.35C336.79 264.3 336.79 264.211 336.84 264.161C336.89 264.111 336.98 264.111 337.03 264.161L680.14 606.04C680.53 606.43 680.53 607.061 680.14 607.451C679.75 607.851 679.12 607.85 678.73 607.46Z" fill="url(#paint12_linear_23_50106)"/>
<path d="M691.33 598.831L345.46 251.751C345.41 251.701 345.41 251.611 345.46 251.561C345.51 251.511 345.6 251.511 345.65 251.561L692.74 597.421C693.13 597.811 693.13 598.441 692.74 598.831C692.36 599.221 691.73 599.231 691.33 598.831Z" fill="url(#paint13_linear_23_50106)"/>
<path d="M703.21 589.46L354.85 239.88C354.8 239.83 354.8 239.74 354.85 239.69C354.9 239.64 354.99 239.64 355.04 239.69L704.63 588.05C705.02 588.44 705.02 589.07 704.63 589.46C704.23 589.85 703.6 589.85 703.21 589.46Z" fill="url(#paint14_linear_23_50106)"/>
<path d="M714.45 579.45L364.85 228.63C364.8 228.58 364.8 228.49 364.85 228.44C364.9 228.39 364.99 228.39 365.04 228.44L715.86 578.04C716.25 578.43 716.25 579.06 715.86 579.45C715.47 579.85 714.84 579.85 714.45 579.45Z" fill="url(#paint15_linear_23_50106)"/>
<path d="M725.07 568.84L375.47 218.02C375.42 217.97 375.42 217.88 375.47 217.83C375.52 217.78 375.61 217.78 375.66 217.83L726.48 567.431C726.87 567.821 726.87 568.45 726.48 568.84C726.09 569.23 725.46 569.23 725.07 568.84Z" fill="url(#paint16_linear_23_50106)"/>
<path d="M735.07 557.6L386.71 208.02C386.66 207.97 386.66 207.88 386.71 207.83C386.76 207.78 386.85 207.78 386.9 207.83L736.49 556.19C736.88 556.58 736.88 557.21 736.49 557.6C736.09 557.99 735.46 557.99 735.07 557.6Z" fill="url(#paint17_linear_23_50106)"/>
<path d="M744.44 545.729L398.57 198.649C398.52 198.599 398.52 198.509 398.57 198.459C398.62 198.409 398.71 198.409 398.76 198.459L745.85 544.319C746.24 544.709 746.24 545.339 745.85 545.729C745.47 546.119 744.83 546.119 744.44 545.729Z" fill="url(#paint18_linear_23_50106)"/>
<path d="M753.07 533.121L411.18 190.011C411.13 189.961 411.13 189.871 411.18 189.821C411.23 189.771 411.32 189.771 411.37 189.821L754.48 531.711C754.87 532.101 754.87 532.731 754.48 533.121C754.1 533.511 753.47 533.511 753.07 533.121Z" fill="url(#paint19_linear_23_50106)"/>
<path d="M761.03 519.839L424.46 182.059C424.41 182.009 424.41 181.92 424.46 181.87C424.51 181.82 424.6 181.82 424.65 181.87L762.44 518.43C762.83 518.82 762.83 519.449 762.44 519.839C762.05 520.229 761.42 520.229 761.03 519.839Z" fill="url(#paint20_linear_23_50106)"/>
<path d="M768.29 505.86L438.44 174.79C438.39 174.74 438.39 174.65 438.44 174.6C438.49 174.55 438.58 174.55 438.63 174.6L769.7 504.44C770.09 504.83 770.09 505.46 769.7 505.85C769.32 506.25 768.69 506.25 768.29 505.86Z" fill="url(#paint21_linear_23_50106)"/>
<path d="M774.78 491.1L453.2 168.3C453.15 168.25 453.15 168.16 453.2 168.11C453.25 168.06 453.34 168.06 453.39 168.11L776.19 489.69C776.58 490.08 776.58 490.71 776.19 491.1C775.81 491.5 775.17 491.5 774.78 491.1Z" fill="url(#paint22_linear_23_50106)"/>
<path d="M780.38 475.46L468.84 162.701C468.79 162.651 468.79 162.56 468.84 162.51C468.89 162.46 468.98 162.46 469.03 162.51L781.79 474.05C782.18 474.44 782.18 475.07 781.79 475.46C781.41 475.85 780.77 475.85 780.38 475.46Z" fill="url(#paint23_linear_23_50106)"/>
<path d="M785.14 458.98L485.33 157.951C485.28 157.901 485.28 157.81 485.33 157.76C485.38 157.71 485.47 157.71 485.52 157.76L786.56 457.57C786.95 457.96 786.95 458.59 786.56 458.98C786.16 459.37 785.53 459.37 785.14 458.98Z" fill="url(#paint24_linear_23_50106)"/>
<path d="M788.78 441.38L502.91 154.3C502.86 154.25 502.86 154.16 502.91 154.11C502.96 154.06 503.05 154.06 503.1 154.11L790.19 439.97C790.58 440.36 790.58 440.99 790.19 441.38C789.81 441.78 789.18 441.78 788.78 441.38Z" fill="url(#paint25_linear_23_50106)"/>
<path d="M791.34 422.709L521.59 151.74C521.54 151.69 521.54 151.599 521.59 151.549C521.64 151.499 521.73 151.499 521.78 151.549L792.75 421.299C793.14 421.689 793.14 422.319 792.75 422.709C792.37 423.099 791.74 423.099 791.34 422.709Z" fill="url(#paint26_linear_23_50106)"/>
<path d="M792.39 402.52L541.79 150.69C541.74 150.64 541.74 150.55 541.79 150.5C541.84 150.45 541.93 150.45 541.98 150.5L793.8 401.1C794.19 401.49 794.19 402.12 793.8 402.51C793.42 402.91 792.78 402.91 792.39 402.52Z" fill="url(#paint27_linear_23_50106)"/>
<path d="M791.72 380.6L563.7 151.36C563.65 151.31 563.65 151.22 563.7 151.17C563.75 151.12 563.84 151.12 563.89 151.17L793.13 379.19C793.52 379.58 793.52 380.21 793.13 380.6C792.75 380.99 792.12 380.99 791.72 380.6Z" fill="url(#paint28_linear_23_50106)"/>
<path d="M788.72 356.36L587.94 154.36C587.89 154.31 587.89 154.22 587.94 154.17C587.99 154.12 588.08 154.12 588.13 154.17L790.13 354.951C790.52 355.341 790.52 355.97 790.13 356.36C789.75 356.75 789.12 356.76 788.72 356.36Z" fill="url(#paint29_linear_23_50106)"/>
<path d="M782.33 328.731L615.57 160.751C615.52 160.701 615.52 160.611 615.57 160.561C615.62 160.511 615.71 160.511 615.76 160.561L783.74 327.321C784.13 327.711 784.13 328.341 783.75 328.731C783.36 329.121 782.73 329.121 782.33 328.731Z" fill="url(#paint30_linear_23_50106)"/>
<path d="M769.48 294.641L649.66 173.6C649.61 173.55 649.61 173.461 649.66 173.411C649.71 173.361 649.8 173.361 649.85 173.411L770.89 293.23C771.28 293.62 771.29 294.251 770.9 294.641C770.52 295.031 769.88 295.041 769.48 294.641Z" fill="url(#paint31_linear_23_50106)"/>
</g>
<path d="M530.4 545.12H300.86C292.58 545.12 285.86 538.4 285.86 530.12V300.58C285.86 292.3 292.58 285.58 300.86 285.58H530.4C538.68 285.58 545.4 292.3 545.4 300.58V530.12C545.4 538.41 538.68 545.12 530.4 545.12Z" fill="#055056"/>
<path d="M318.227 482.268V465.116H323.12L325.543 473.728C325.719 474.368 325.895 475.079 326.071 475.863C326.263 476.63 326.406 477.238 326.502 477.686L326.622 478.358H326.67C326.974 476.71 327.326 475.167 327.726 473.728L330.149 465.116H335.114V482.268H331.876V472.432L332.02 468.882H331.972C331.716 470.226 331.468 471.313 331.228 472.145L328.278 482.268H324.943L322.065 472.145L321.321 468.882H321.273C321.369 470.322 321.417 471.505 321.417 472.432V482.268H318.227ZM345.248 482.268C345.088 482.06 344.96 481.604 344.864 480.9H344.816C344.464 481.428 344.017 481.836 343.473 482.124C342.929 482.412 342.169 482.555 341.194 482.555C339.899 482.555 338.859 482.228 338.076 481.572C337.292 480.916 336.9 479.989 336.9 478.789C336.9 477.542 337.332 476.63 338.195 476.055C339.059 475.463 340.274 475.055 341.842 474.831C342.993 474.671 343.777 474.511 344.192 474.352C344.608 474.176 344.816 473.872 344.816 473.44C344.816 472.992 344.64 472.64 344.288 472.385C343.937 472.113 343.425 471.977 342.753 471.977C341.266 471.977 340.474 472.552 340.378 473.704H337.476C337.524 472.536 337.996 471.569 338.891 470.801C339.787 470.034 341.082 469.65 342.777 469.65C346.231 469.65 347.959 471.161 347.959 474.184V480.444C347.959 481.372 348.102 481.94 348.39 482.148V482.268H345.248ZM341.986 480.277C342.881 480.277 343.585 480.045 344.096 479.581C344.624 479.117 344.888 478.565 344.888 477.926V476.079C344.536 476.287 343.777 476.526 342.609 476.798C341.682 477.006 341.026 477.246 340.642 477.518C340.258 477.774 340.067 478.174 340.067 478.717C340.067 479.757 340.706 480.277 341.986 480.277ZM350.033 482.268V469.962H353.295V482.268H350.033ZM350.033 468.043V465.116H353.295V468.043H350.033ZM358.587 469.962V471.641H358.659C359.507 470.298 360.722 469.626 362.306 469.626C363.569 469.626 364.592 470.058 365.376 470.921C366.16 471.769 366.552 472.872 366.552 474.232V482.268H363.289V474.711C363.289 474.04 363.097 473.496 362.713 473.08C362.346 472.664 361.826 472.456 361.154 472.456C360.435 472.456 359.835 472.72 359.355 473.248C358.891 473.776 358.659 474.455 358.659 475.287V482.268H355.397V469.962H358.587ZM367.608 472.121V469.962H369.312V466.124H372.502V469.962H374.613V472.121H372.502V478.645C372.502 479.461 372.91 479.869 373.725 479.869L374.685 479.845V482.244C374.189 482.276 373.51 482.292 372.646 482.292C371.702 482.292 370.911 482.068 370.271 481.62C369.631 481.156 369.312 480.397 369.312 479.341V472.121H367.608ZM381.957 482.627C379.974 482.627 378.415 482.02 377.279 480.804C376.144 479.573 375.576 478.006 375.576 476.103C375.576 474.264 376.144 472.728 377.279 471.497C378.415 470.25 379.87 469.626 381.645 469.626C383.58 469.626 385.075 470.298 386.131 471.641C387.186 472.984 387.714 474.783 387.714 477.038H378.79C378.918 478.014 379.246 478.773 379.774 479.317C380.302 479.845 381.021 480.109 381.933 480.109C383.132 480.109 383.924 479.605 384.308 478.597H387.522C387.282 479.749 386.675 480.708 385.699 481.476C384.723 482.244 383.476 482.627 381.957 482.627ZM381.693 472.145C380.11 472.145 379.158 473.024 378.838 474.783H384.308C384.26 474 383.996 473.368 383.516 472.888C383.036 472.393 382.429 472.145 381.693 472.145ZM392.414 469.962V471.641H392.486C393.334 470.298 394.549 469.626 396.132 469.626C397.396 469.626 398.419 470.058 399.203 470.921C399.987 471.769 400.378 472.872 400.378 474.232V482.268H397.116V474.711C397.116 474.04 396.924 473.496 396.54 473.08C396.172 472.664 395.653 472.456 394.981 472.456C394.261 472.456 393.662 472.72 393.182 473.248C392.718 473.776 392.486 474.455 392.486 475.287V482.268H389.224V469.962H392.414ZM410.137 482.268C409.977 482.06 409.849 481.604 409.754 480.9H409.706C409.354 481.428 408.906 481.836 408.362 482.124C407.818 482.412 407.059 482.555 406.083 482.555C404.788 482.555 403.749 482.228 402.965 481.572C402.181 480.916 401.79 479.989 401.79 478.789C401.79 477.542 402.221 476.63 403.085 476.055C403.948 475.463 405.164 475.055 406.731 474.831C407.882 474.671 408.666 474.511 409.082 474.352C409.498 474.176 409.706 473.872 409.706 473.44C409.706 472.992 409.53 472.64 409.178 472.385C408.826 472.113 408.314 471.977 407.643 471.977C406.155 471.977 405.364 472.552 405.268 473.704H402.365C402.413 472.536 402.885 471.569 403.781 470.801C404.676 470.034 405.971 469.65 407.667 469.65C411.121 469.65 412.848 471.161 412.848 474.184V480.444C412.848 481.372 412.992 481.94 413.28 482.148V482.268H410.137ZM406.875 480.277C407.771 480.277 408.474 480.045 408.986 479.581C409.514 479.117 409.778 478.565 409.778 477.926V476.079C409.426 476.287 408.666 476.526 407.499 476.798C406.571 477.006 405.915 477.246 405.532 477.518C405.148 477.774 404.956 478.174 404.956 478.717C404.956 479.757 405.596 480.277 406.875 480.277ZM418.112 469.962V471.641H418.184C419.032 470.298 420.247 469.626 421.831 469.626C423.094 469.626 424.117 470.058 424.901 470.921C425.685 471.769 426.076 472.872 426.076 474.232V482.268H422.814V474.711C422.814 474.04 422.622 473.496 422.238 473.08C421.871 472.664 421.351 472.456 420.679 472.456C419.959 472.456 419.36 472.72 418.88 473.248C418.416 473.776 418.184 474.455 418.184 475.287V482.268H414.922V469.962H418.112ZM433.796 482.627C431.893 482.627 430.366 482.012 429.215 480.78C428.063 479.549 427.488 477.998 427.488 476.127C427.488 474.256 428.047 472.704 429.167 471.473C430.302 470.242 431.789 469.626 433.629 469.626C435.18 469.626 436.443 470.034 437.419 470.849C438.394 471.665 438.994 472.76 439.218 474.136H436.027C435.915 473.576 435.659 473.12 435.26 472.768C434.86 472.417 434.364 472.241 433.772 472.241C432.813 472.241 432.077 472.584 431.566 473.272C431.054 473.96 430.798 474.911 430.798 476.127C430.798 477.326 431.046 478.278 431.542 478.981C432.037 479.669 432.765 480.013 433.724 480.013C435.148 480.013 435.971 479.317 436.195 477.926H439.338C439.226 479.285 438.674 480.413 437.682 481.308C436.691 482.188 435.396 482.627 433.796 482.627ZM446.542 482.627C444.559 482.627 443 482.02 441.864 480.804C440.729 479.573 440.161 478.006 440.161 476.103C440.161 474.264 440.729 472.728 441.864 471.497C443 470.25 444.455 469.626 446.23 469.626C448.165 469.626 449.66 470.298 450.716 471.641C451.771 472.984 452.299 474.783 452.299 477.038H443.375C443.503 478.014 443.831 478.773 444.359 479.317C444.887 479.845 445.606 480.109 446.518 480.109C447.717 480.109 448.509 479.605 448.893 478.597H452.107C451.867 479.749 451.259 480.708 450.284 481.476C449.308 482.244 448.061 482.627 446.542 482.627ZM446.278 472.145C444.695 472.145 443.743 473.024 443.423 474.783H448.893C448.845 474 448.581 473.368 448.101 472.888C447.621 472.393 447.013 472.145 446.278 472.145Z" fill="white"/>
<path opacity="0.964" fill-rule="evenodd" clip-rule="evenodd" d="M513.56 298.57C519.33 298.56 525.1 298.57 530.86 298.61C531.71 298.77 532.22 299.27 532.37 300.12C532.43 305.89 532.43 311.66 532.37 317.42C531.97 318.69 531.12 319.17 529.82 318.85C529.18 318.59 528.79 318.11 528.65 317.42C528.62 313.32 528.59 309.23 528.56 305.14C522.29 311.41 516.02 317.68 509.74 323.96C508.84 324.69 507.93 324.7 507.01 324C506.26 323.08 506.26 322.15 507.01 321.23C513.28 314.96 519.55 308.69 525.83 302.41C521.62 302.41 517.41 302.35 513.2 302.24C512.17 301.72 511.81 300.9 512.12 299.77C512.41 299.14 512.89 298.74 513.56 298.57Z" fill="white"/>
<path d="M371.89 428.329H327C321.48 428.329 317 423.849 317 418.329V373.449C317 367.929 321.48 363.449 327 363.449H371.88C377.4 363.449 381.88 367.929 381.88 373.449V418.329C381.89 423.849 377.41 428.329 371.89 428.329Z" fill="#29A4AD"/>
<path d="M244.9 363.45H15.3599C7.07986 363.45 0.359863 356.73 0.359863 348.45V118.91C0.359863 110.63 7.07986 103.91 15.3599 103.91H244.9C253.18 103.91 259.9 110.63 259.9 118.91V348.45C259.9 356.73 253.19 363.45 244.9 363.45Z" fill="#EDD183"/>
<path d="M39.3781 277.353C37.0592 277.353 35.2601 276.865 33.9808 275.889C32.7014 274.898 32.0298 273.49 31.9658 271.667H35.3721C35.484 272.691 35.8438 273.427 36.4515 273.874C37.0752 274.322 38.0028 274.546 39.2341 274.546C40.2097 274.546 41.0093 274.37 41.6329 274.018C42.2566 273.65 42.5685 273.091 42.5685 272.339C42.5685 272.067 42.5285 271.827 42.4485 271.619C42.3846 271.396 42.2406 271.204 42.0168 271.044C41.7929 270.868 41.601 270.732 41.441 270.636C41.2811 270.524 40.9853 270.412 40.5535 270.3C40.1217 270.172 39.7939 270.084 39.57 270.036C39.3461 269.972 38.9303 269.868 38.3226 269.724C37.587 269.548 36.9793 269.397 36.4995 269.269C36.0358 269.141 35.516 268.941 34.9403 268.669C34.3806 268.397 33.9328 268.101 33.597 267.781C33.2771 267.446 33.0053 267.014 32.7814 266.486C32.5575 265.942 32.4455 265.327 32.4455 264.639C32.4455 262.992 33.0452 261.728 34.2446 260.849C35.46 259.953 37.0512 259.505 39.0183 259.505C40.9693 259.505 42.5285 259.969 43.6959 260.897C44.8633 261.824 45.511 263.144 45.6389 264.855H42.3046C42.2087 264.023 41.8568 263.384 41.2491 262.936C40.6574 262.488 39.9058 262.264 38.9943 262.264C38.0507 262.264 37.2991 262.448 36.7394 262.816C36.1797 263.184 35.8998 263.671 35.8998 264.279C35.8998 264.935 36.1717 265.415 36.7154 265.718C37.2751 266.022 38.2506 266.326 39.6419 266.63C40.4735 266.806 41.1532 266.974 41.6809 267.134C42.2087 267.278 42.7764 267.493 43.3841 267.781C44.0078 268.053 44.4875 268.357 44.8234 268.693C45.1752 269.029 45.463 269.476 45.6869 270.036C45.9268 270.58 46.0467 271.212 46.0467 271.931C46.0467 273.626 45.431 274.954 44.1997 275.913C42.9683 276.873 41.3611 277.353 39.3781 277.353ZM53.5694 277.329C51.6664 277.329 50.1391 276.713 48.9877 275.481C47.8363 274.25 47.2606 272.699 47.2606 270.828C47.2606 268.957 47.8203 267.406 48.9397 266.174C50.0752 264.943 51.5624 264.327 53.4015 264.327C54.9527 264.327 56.2161 264.735 57.1916 265.55C58.1671 266.366 58.7668 267.462 58.9907 268.837H55.8003C55.6884 268.277 55.4325 267.821 55.0327 267.47C54.6329 267.118 54.1371 266.942 53.5454 266.942C52.5859 266.942 51.8503 267.286 51.3385 267.973C50.8268 268.661 50.5709 269.612 50.5709 270.828C50.5709 272.027 50.8188 272.979 51.3145 273.682C51.8103 274.37 52.5379 274.714 53.4975 274.714C54.9207 274.714 55.7443 274.018 55.9682 272.627H59.1106C58.9987 273.986 58.447 275.114 57.4555 276.009C56.464 276.889 55.1686 277.329 53.5694 277.329ZM68.516 276.969C68.3561 276.761 68.2281 276.305 68.1322 275.601H68.0842C67.7324 276.129 67.2846 276.537 66.7409 276.825C66.1972 277.113 65.4375 277.257 64.462 277.257C63.1667 277.257 62.1272 276.929 61.3436 276.273C60.56 275.617 60.1682 274.69 60.1682 273.49C60.1682 272.243 60.6 271.332 61.4635 270.756C62.3271 270.164 63.5425 269.756 65.1097 269.532C66.2611 269.373 67.0447 269.213 67.4605 269.053C67.8763 268.877 68.0842 268.573 68.0842 268.141C68.0842 267.693 67.9083 267.342 67.5565 267.086C67.2047 266.814 66.6929 266.678 66.0212 266.678C64.534 266.678 63.7424 267.254 63.6464 268.405H60.7439C60.7919 267.238 61.2636 266.27 62.1592 265.502C63.0547 264.735 64.3501 264.351 66.0452 264.351C69.4995 264.351 71.2266 265.862 71.2266 268.885V275.146C71.2266 276.073 71.3706 276.641 71.6584 276.849V276.969H68.516ZM65.2536 274.978C66.1492 274.978 66.8528 274.746 67.3646 274.282C67.8923 273.818 68.1562 273.267 68.1562 272.627V270.78C67.8044 270.988 67.0447 271.228 65.8773 271.499C64.9498 271.707 64.2941 271.947 63.9103 272.219C63.5265 272.475 63.3346 272.875 63.3346 273.419C63.3346 274.458 63.9743 274.978 65.2536 274.978ZM73.3486 276.969V259.817H76.611V276.969H73.3486ZM78.7589 276.969V264.663H82.0212V276.969H78.7589ZM78.7589 262.744V259.817H82.0212V262.744H78.7589ZM87.3138 264.663V266.342H87.3857C88.2333 264.999 89.4487 264.327 91.0319 264.327C92.2953 264.327 93.3188 264.759 94.1024 265.622C94.886 266.47 95.2778 267.573 95.2778 268.933V276.969H92.0154V269.413C92.0154 268.741 91.8235 268.197 91.4397 267.781C91.0719 267.366 90.5522 267.158 89.8805 267.158C89.1609 267.158 88.5612 267.422 88.0814 267.949C87.6176 268.477 87.3857 269.157 87.3857 269.988V276.969H84.1234V264.663H87.3138ZM102.71 281.167C101.047 281.167 99.7115 280.831 98.704 280.159C97.7125 279.487 97.1287 278.544 96.9528 277.329H100.191C100.511 278.24 101.335 278.696 102.662 278.696C104.485 278.696 105.397 277.84 105.397 276.129V274.786H105.325C104.477 275.745 103.406 276.225 102.11 276.225C100.655 276.225 99.3836 275.689 98.2962 274.618C97.2247 273.546 96.689 272.123 96.689 270.348C96.689 268.525 97.1847 267.07 98.1762 265.982C99.1677 264.879 100.447 264.327 102.014 264.327C103.502 264.327 104.637 264.871 105.421 265.958H105.469V264.663H108.611V276.033C108.611 277.632 108.123 278.88 107.148 279.775C106.156 280.703 104.677 281.167 102.71 281.167ZM102.662 273.61C103.637 273.61 104.365 273.299 104.845 272.675C105.325 272.051 105.565 271.252 105.565 270.276C105.565 269.317 105.309 268.525 104.797 267.901C104.301 267.262 103.582 266.942 102.638 266.942C101.806 266.942 101.135 267.246 100.623 267.853C100.127 268.461 99.8794 269.277 99.8794 270.3C99.8794 271.34 100.127 272.155 100.623 272.747C101.135 273.323 101.814 273.61 102.662 273.61ZM114.741 280.999V264.663H117.883V266.198H117.955C118.867 264.951 120.074 264.327 121.577 264.327C123.193 264.327 124.488 264.927 125.464 266.126C126.439 267.326 126.927 268.893 126.927 270.828C126.927 272.811 126.439 274.394 125.464 275.577C124.488 276.745 123.201 277.329 121.601 277.329C120.002 277.329 118.819 276.745 118.051 275.577H118.003V280.999H114.741ZM120.906 274.618C121.737 274.618 122.393 274.29 122.873 273.634C123.369 272.979 123.616 272.075 123.616 270.924C123.616 269.692 123.385 268.725 122.921 268.021C122.457 267.318 121.745 266.966 120.786 266.966C119.81 266.966 119.091 267.334 118.627 268.069C118.163 268.789 117.931 269.74 117.931 270.924C117.931 272.059 118.187 272.963 118.699 273.634C119.211 274.29 119.946 274.618 120.906 274.618ZM128.493 276.969V259.817H131.755V276.969H128.493ZM141.651 276.969C141.491 276.761 141.363 276.305 141.267 275.601H141.219C140.868 276.129 140.42 276.537 139.876 276.825C139.332 277.113 138.573 277.257 137.597 277.257C136.302 277.257 135.262 276.929 134.479 276.273C133.695 275.617 133.303 274.69 133.303 273.49C133.303 272.243 133.735 271.332 134.599 270.756C135.462 270.164 136.678 269.756 138.245 269.532C139.396 269.373 140.18 269.213 140.596 269.053C141.012 268.877 141.219 268.573 141.219 268.141C141.219 267.693 141.044 267.342 140.692 267.086C140.34 266.814 139.828 266.678 139.157 266.678C137.669 266.678 136.878 267.254 136.782 268.405H133.879C133.927 267.238 134.399 266.27 135.294 265.502C136.19 264.735 137.485 264.351 139.181 264.351C142.635 264.351 144.362 265.862 144.362 268.885V275.146C144.362 276.073 144.506 276.641 144.794 276.849V276.969H141.651ZM138.389 274.978C139.284 274.978 139.988 274.746 140.5 274.282C141.028 273.818 141.291 273.267 141.291 272.627V270.78C140.94 270.988 140.18 271.228 139.013 271.499C138.085 271.707 137.429 271.947 137.046 272.219C136.662 272.475 136.47 272.875 136.47 273.419C136.47 274.458 137.11 274.978 138.389 274.978ZM149.626 264.663V266.342H149.698C150.546 264.999 151.761 264.327 153.344 264.327C154.608 264.327 155.631 264.759 156.415 265.622C157.199 266.47 157.59 267.573 157.59 268.933V276.969H154.328V269.413C154.328 268.741 154.136 268.197 153.752 267.781C153.384 267.366 152.865 267.158 152.193 267.158C151.473 267.158 150.874 267.422 150.394 267.949C149.93 268.477 149.698 269.157 149.698 269.988V276.969H146.436V264.663H149.626Z" fill="#1E2227"/>
<path d="M40.2177 302.969C40.0577 302.761 39.9298 302.305 39.8338 301.601H39.7859C39.434 302.129 38.9863 302.537 38.4425 302.825C37.8988 303.113 37.1392 303.257 36.1637 303.257C34.8683 303.257 33.8289 302.929 33.0452 302.273C32.2616 301.617 31.8698 300.69 31.8698 299.49C31.8698 298.243 32.3016 297.332 33.1652 296.756C34.0288 296.164 35.2441 295.756 36.8114 295.532C37.9628 295.373 38.7464 295.213 39.1622 295.053C39.578 294.877 39.7859 294.573 39.7859 294.141C39.7859 293.693 39.61 293.342 39.2581 293.086C38.9063 292.814 38.3946 292.678 37.7229 292.678C36.2357 292.678 35.444 293.254 35.3481 294.405H32.4455C32.4935 293.238 32.9653 292.27 33.8608 291.502C34.7564 290.735 36.0517 290.351 37.7469 290.351C41.2012 290.351 42.9283 291.862 42.9283 294.885V301.146C42.9283 302.073 43.0722 302.641 43.3601 302.849V302.969H40.2177ZM36.9553 300.978C37.8508 300.978 38.5545 300.746 39.0662 300.282C39.594 299.818 39.8578 299.267 39.8578 298.627V296.78C39.506 296.988 38.7464 297.228 37.579 297.499C36.6514 297.707 35.9958 297.947 35.612 298.219C35.2282 298.475 35.0363 298.875 35.0363 299.419C35.0363 300.458 35.6759 300.978 36.9553 300.978ZM50.7115 303.329C48.8084 303.329 47.2812 302.713 46.1298 301.481C44.9783 300.25 44.4026 298.699 44.4026 296.828C44.4026 294.957 44.9623 293.406 46.0818 292.174C47.2172 290.943 48.7045 290.327 50.5436 290.327C52.0948 290.327 53.3581 290.735 54.3337 291.55C55.3092 292.366 55.9089 293.462 56.1328 294.837H52.9424C52.8304 294.277 52.5745 293.821 52.1747 293.47C51.7749 293.118 51.2792 292.942 50.6875 292.942C49.728 292.942 48.9923 293.286 48.4806 293.973C47.9688 294.661 47.713 295.612 47.713 296.828C47.713 298.027 47.9608 298.979 48.4566 299.682C48.9523 300.37 49.68 300.714 50.6395 300.714C52.0628 300.714 52.8864 300.018 53.1103 298.627H56.2527C56.1408 299.986 55.589 301.114 54.5975 302.009C53.606 302.889 52.3107 303.329 50.7115 303.329ZM60.8181 290.663V292.63H60.8901C61.2739 291.91 61.6977 291.383 62.1614 291.047C62.6252 290.695 63.2089 290.519 63.9126 290.519C64.2484 290.519 64.5043 290.551 64.6802 290.615V293.47H64.6082C63.5048 293.358 62.6172 293.597 61.9455 294.189C61.2739 294.781 60.938 295.708 60.938 296.972V302.969H57.6757V290.663H60.8181ZM76.1929 301.481C74.9935 302.713 73.4503 303.329 71.5632 303.329C69.6762 303.329 68.1329 302.713 66.9335 301.481C65.7341 300.234 65.1344 298.683 65.1344 296.828C65.1344 294.973 65.7341 293.43 66.9335 292.198C68.1329 290.951 69.6762 290.327 71.5632 290.327C73.4503 290.327 74.9935 290.951 76.1929 292.198C77.3923 293.43 77.992 294.973 77.992 296.828C77.992 298.683 77.3923 300.234 76.1929 301.481ZM71.5632 300.834C72.5387 300.834 73.2984 300.474 73.8421 299.754C74.4018 299.019 74.6817 298.043 74.6817 296.828C74.6817 295.612 74.4018 294.637 73.8421 293.901C73.2984 293.166 72.5387 292.798 71.5632 292.798C70.5717 292.798 69.8041 293.166 69.2604 293.901C68.7166 294.621 68.4448 295.596 68.4448 296.828C68.4448 298.043 68.7166 299.019 69.2604 299.754C69.8041 300.474 70.5717 300.834 71.5632 300.834ZM84.498 303.329C82.7389 303.329 81.3636 302.945 80.3721 302.177C79.3806 301.394 78.8368 300.33 78.7409 298.987H81.7634C81.9713 300.346 82.8668 301.026 84.45 301.026C85.1697 301.026 85.7214 300.898 86.1052 300.642C86.505 300.386 86.7049 300.042 86.7049 299.61C86.7049 299.451 86.6729 299.307 86.6089 299.179C86.561 299.051 86.465 298.939 86.3211 298.843C86.1932 298.731 86.0732 298.643 85.9613 298.579C85.8653 298.515 85.6894 298.451 85.4335 298.387C85.1777 298.323 84.9778 298.275 84.8338 298.243C84.7059 298.211 84.474 298.171 84.1382 298.123C83.8183 298.059 83.5945 298.011 83.4665 297.979C82.7949 297.851 82.2431 297.723 81.8113 297.595C81.3956 297.452 80.9558 297.252 80.492 296.996C80.0282 296.724 79.6764 296.364 79.4365 295.916C79.2126 295.453 79.1007 294.901 79.1007 294.261C79.1007 292.982 79.5645 292.006 80.492 291.335C81.4355 290.663 82.6429 290.327 84.1142 290.327C85.6974 290.327 86.9368 290.695 87.8323 291.431C88.7439 292.15 89.2636 293.142 89.3916 294.405H86.441C86.3131 293.206 85.5215 292.606 84.0662 292.606C83.4105 292.606 82.8908 292.726 82.507 292.966C82.1392 293.206 81.9553 293.541 81.9553 293.973C81.9553 294.117 81.9793 294.253 82.0272 294.381C82.0912 294.493 82.1872 294.597 82.3151 294.693C82.459 294.773 82.595 294.845 82.7229 294.909C82.8508 294.957 83.0347 295.013 83.2746 295.077C83.5145 295.125 83.7224 295.173 83.8983 295.221C84.0742 295.253 84.3141 295.301 84.6179 295.365C84.9218 295.413 85.1617 295.453 85.3376 295.484C85.8493 295.596 86.2651 295.7 86.585 295.796C86.9208 295.876 87.3046 296.02 87.7364 296.228C88.1682 296.42 88.504 296.644 88.7439 296.9C88.9997 297.14 89.2156 297.475 89.3916 297.907C89.5835 298.323 89.6794 298.811 89.6794 299.371C89.6794 300.586 89.1996 301.553 88.2401 302.273C87.2966 302.977 86.0492 303.329 84.498 303.329ZM96.1406 303.329C94.3815 303.329 93.0062 302.945 92.0147 302.177C91.0232 301.394 90.4794 300.33 90.3835 298.987H93.406C93.6139 300.346 94.5094 301.026 96.0926 301.026C96.8123 301.026 97.364 300.898 97.7478 300.642C98.1476 300.386 98.3475 300.042 98.3475 299.61C98.3475 299.451 98.3155 299.307 98.2516 299.179C98.2036 299.051 98.1076 298.939 97.9637 298.843C97.8358 298.731 97.7158 298.643 97.6039 298.579C97.5079 298.515 97.332 298.451 97.0761 298.387C96.8203 298.323 96.6204 298.275 96.4764 298.243C96.3485 298.211 96.1166 298.171 95.7808 298.123C95.461 298.059 95.2371 298.011 95.1091 297.979C94.4375 297.851 93.8857 297.723 93.454 297.595C93.0382 297.452 92.5984 297.252 92.1346 296.996C91.6709 296.724 91.319 296.364 91.0791 295.916C90.8553 295.453 90.7433 294.901 90.7433 294.261C90.7433 292.982 91.2071 292.006 92.1346 291.335C93.0781 290.663 94.2855 290.327 95.7568 290.327C97.34 290.327 98.5794 290.695 99.4749 291.431C100.386 292.15 100.906 293.142 101.034 294.405H98.0836C97.9557 293.206 97.1641 292.606 95.7088 292.606C95.0532 292.606 94.5334 292.726 94.1496 292.966C93.7818 293.206 93.5979 293.541 93.5979 293.973C93.5979 294.117 93.6219 294.253 93.6698 294.381C93.7338 294.493 93.8298 294.597 93.9577 294.693C94.1016 294.773 94.2376 294.845 94.3655 294.909C94.4934 294.957 94.6773 295.013 94.9172 295.077C95.1571 295.125 95.365 295.173 95.5409 295.221C95.7168 295.253 95.9567 295.301 96.2606 295.365C96.5644 295.413 96.8043 295.453 96.9802 295.484C97.4919 295.596 97.9077 295.7 98.2276 295.796C98.5634 295.876 98.9472 296.02 99.379 296.228C99.8108 296.42 100.147 296.644 100.386 296.9C100.642 297.14 100.858 297.475 101.034 297.907C101.226 298.323 101.322 298.811 101.322 299.371C101.322 300.586 100.842 301.553 99.8827 302.273C98.9392 302.977 97.6918 303.329 96.1406 303.329ZM117.737 302.969H114.595V301.529H114.523C114.075 302.137 113.58 302.585 113.036 302.873C112.508 303.161 111.828 303.305 110.997 303.305C109.654 303.305 108.606 302.905 107.854 302.105C107.103 301.306 106.727 300.226 106.727 298.867V290.663H109.965V298.315C109.965 299.802 110.645 300.546 112.004 300.546C112.756 300.546 113.356 300.29 113.803 299.778C114.251 299.267 114.475 298.595 114.475 297.763V290.663H117.737V302.969ZM124.837 303.329C123.078 303.329 121.703 302.945 120.711 302.177C119.72 301.394 119.176 300.33 119.08 298.987H122.103C122.31 300.346 123.206 301.026 124.789 301.026C125.509 301.026 126.061 300.898 126.444 300.642C126.844 300.386 127.044 300.042 127.044 299.61C127.044 299.451 127.012 299.307 126.948 299.179C126.9 299.051 126.804 298.939 126.66 298.843C126.532 298.731 126.412 298.643 126.3 298.579C126.205 298.515 126.029 298.451 125.773 298.387C125.517 298.323 125.317 298.275 125.173 298.243C125.045 298.211 124.813 298.171 124.477 298.123C124.158 298.059 123.934 298.011 123.806 297.979C123.134 297.851 122.582 297.723 122.151 297.595C121.735 297.452 121.295 297.252 120.831 296.996C120.367 296.724 120.016 296.364 119.776 295.916C119.552 295.453 119.44 294.901 119.44 294.261C119.44 292.982 119.904 292.006 120.831 291.335C121.775 290.663 122.982 290.327 124.453 290.327C126.037 290.327 127.276 290.695 128.172 291.431C129.083 292.15 129.603 293.142 129.731 294.405H126.78C126.652 293.206 125.861 292.606 124.405 292.606C123.75 292.606 123.23 292.726 122.846 292.966C122.478 293.206 122.294 293.541 122.294 293.973C122.294 294.117 122.318 294.253 122.366 294.381C122.43 294.493 122.526 294.597 122.654 294.693C122.798 294.773 122.934 294.845 123.062 294.909C123.19 294.957 123.374 295.013 123.614 295.077C123.854 295.125 124.062 295.173 124.237 295.221C124.413 295.253 124.653 295.301 124.957 295.365C125.261 295.413 125.501 295.453 125.677 295.484C126.189 295.596 126.604 295.7 126.924 295.796C127.26 295.876 127.644 296.02 128.076 296.228C128.507 296.42 128.843 296.644 129.083 296.9C129.339 297.14 129.555 297.475 129.731 297.907C129.923 298.323 130.019 298.811 130.019 299.371C130.019 300.586 129.539 301.553 128.579 302.273C127.636 302.977 126.388 303.329 124.837 303.329ZM137.389 303.329C135.406 303.329 133.846 302.721 132.711 301.505C131.575 300.274 131.008 298.707 131.008 296.804C131.008 294.965 131.575 293.43 132.711 292.198C133.846 290.951 135.302 290.327 137.077 290.327C139.012 290.327 140.507 290.999 141.562 292.342C142.618 293.685 143.146 295.484 143.146 297.739H134.222C134.35 298.715 134.678 299.474 135.206 300.018C135.733 300.546 136.453 300.81 137.365 300.81C138.564 300.81 139.356 300.306 139.739 299.299H142.954C142.714 300.45 142.106 301.41 141.131 302.177C140.155 302.945 138.908 303.329 137.389 303.329ZM137.125 292.846C135.541 292.846 134.59 293.725 134.27 295.484H139.739C139.691 294.701 139.428 294.069 138.948 293.589C138.468 293.094 137.86 292.846 137.125 292.846ZM147.798 290.663V292.63H147.87C148.254 291.91 148.678 291.383 149.141 291.047C149.605 290.695 150.189 290.519 150.892 290.519C151.228 290.519 151.484 290.551 151.66 290.615V293.47H151.588C150.485 293.358 149.597 293.597 148.925 294.189C148.254 294.781 147.918 295.708 147.918 296.972V302.969H144.656V290.663H147.798ZM158.055 303.329C156.296 303.329 154.921 302.945 153.929 302.177C152.938 301.394 152.394 300.33 152.298 298.987H155.32C155.528 300.346 156.424 301.026 158.007 301.026C158.727 301.026 159.278 300.898 159.662 300.642C160.062 300.386 160.262 300.042 160.262 299.61C160.262 299.451 160.23 299.307 160.166 299.179C160.118 299.051 160.022 298.939 159.878 298.843C159.75 298.731 159.63 298.643 159.518 298.579C159.422 298.515 159.246 298.451 158.99 298.387C158.735 298.323 158.535 298.275 158.391 298.243C158.263 298.211 158.031 298.171 157.695 298.123C157.375 298.059 157.151 298.011 157.023 297.979C156.352 297.851 155.8 297.723 155.368 297.595C154.952 297.452 154.513 297.252 154.049 296.996C153.585 296.724 153.233 296.364 152.993 295.916C152.77 295.453 152.658 294.901 152.658 294.261C152.658 292.982 153.121 292.006 154.049 291.335C154.992 290.663 156.2 290.327 157.671 290.327C159.254 290.327 160.494 290.695 161.389 291.431C162.301 292.15 162.821 293.142 162.948 294.405H159.998C159.87 293.206 159.078 292.606 157.623 292.606C156.967 292.606 156.448 292.726 156.064 292.966C155.696 293.206 155.512 293.541 155.512 293.973C155.512 294.117 155.536 294.253 155.584 294.381C155.648 294.493 155.744 294.597 155.872 294.693C156.016 294.773 156.152 294.845 156.28 294.909C156.408 294.957 156.592 295.013 156.832 295.077C157.071 295.125 157.279 295.173 157.455 295.221C157.631 295.253 157.871 295.301 158.175 295.365C158.479 295.413 158.719 295.453 158.895 295.484C159.406 295.596 159.822 295.7 160.142 295.796C160.478 295.876 160.862 296.02 161.293 296.228C161.725 296.42 162.061 296.644 162.301 296.9C162.557 297.14 162.773 297.475 162.948 297.907C163.14 298.323 163.236 298.811 163.236 299.371C163.236 300.586 162.757 301.553 161.797 302.273C160.854 302.977 159.606 303.329 158.055 303.329ZM176.485 302.969C176.325 302.761 176.198 302.305 176.102 301.601H176.054C175.702 302.129 175.254 302.537 174.71 302.825C174.167 303.113 173.407 303.257 172.431 303.257C171.136 303.257 170.097 302.929 169.313 302.273C168.529 301.617 168.138 300.69 168.138 299.49C168.138 298.243 168.569 297.332 169.433 296.756C170.297 296.164 171.512 295.756 173.079 295.532C174.231 295.373 175.014 295.213 175.43 295.053C175.846 294.877 176.054 294.573 176.054 294.141C176.054 293.693 175.878 293.342 175.526 293.086C175.174 292.814 174.662 292.678 173.991 292.678C172.503 292.678 171.712 293.254 171.616 294.405H168.713C168.761 293.238 169.233 292.27 170.129 291.502C171.024 290.735 172.319 290.351 174.015 290.351C177.469 290.351 179.196 291.862 179.196 294.885V301.146C179.196 302.073 179.34 302.641 179.628 302.849V302.969H176.485ZM173.223 300.978C174.119 300.978 174.822 300.746 175.334 300.282C175.862 299.818 176.126 299.267 176.126 298.627V296.78C175.774 296.988 175.014 297.228 173.847 297.499C172.919 297.707 172.264 297.947 171.88 298.219C171.496 298.475 171.304 298.875 171.304 299.419C171.304 300.458 171.944 300.978 173.223 300.978ZM184.46 290.663V292.342H184.532C185.38 290.999 186.595 290.327 188.179 290.327C189.442 290.327 190.465 290.759 191.249 291.622C192.033 292.47 192.424 293.573 192.424 294.933V302.969H189.162V295.413C189.162 294.741 188.97 294.197 188.586 293.781C188.219 293.366 187.699 293.158 187.027 293.158C186.308 293.158 185.708 293.422 185.228 293.949C184.764 294.477 184.532 295.157 184.532 295.988V302.969H181.27V290.663H184.46ZM199.041 303.329C197.49 303.329 196.234 302.745 195.275 301.577C194.315 300.394 193.836 298.811 193.836 296.828C193.836 294.909 194.323 293.35 195.299 292.15C196.29 290.935 197.554 290.327 199.089 290.327C200.624 290.327 201.784 290.935 202.567 292.15H202.639V285.817H205.902V302.969H202.759V301.362H202.711C201.912 302.673 200.688 303.329 199.041 303.329ZM199.761 300.594C200.72 300.594 201.448 300.266 201.944 299.61C202.455 298.955 202.711 298.051 202.711 296.9C202.711 294.277 201.76 292.966 199.857 292.966C198.977 292.966 198.305 293.318 197.842 294.021C197.378 294.725 197.146 295.66 197.146 296.828C197.146 298.027 197.37 298.955 197.818 299.61C198.281 300.266 198.929 300.594 199.761 300.594Z" fill="#1E2227"/>
<path d="M37.8908 333.167C36.2277 333.167 34.8923 332.831 33.8848 332.159C32.8933 331.487 32.3096 330.544 32.1337 329.329H35.3721C35.6919 330.24 36.5155 330.696 37.8428 330.696C39.6659 330.696 40.5775 329.84 40.5775 328.129V326.786H40.5055C39.6579 327.745 38.5865 328.225 37.2911 328.225C35.8359 328.225 34.5645 327.689 33.477 326.618C32.4056 325.546 31.8698 324.123 31.8698 322.348C31.8698 320.525 32.3656 319.07 33.3571 317.982C34.3486 316.879 35.628 316.327 37.1952 316.327C38.6824 316.327 39.8179 316.871 40.6015 317.958H40.6494V316.663H43.7919V328.033C43.7919 329.632 43.3041 330.88 42.3286 331.775C41.3371 332.703 39.8578 333.167 37.8908 333.167ZM37.8428 325.61C38.8184 325.61 39.546 325.299 40.0258 324.675C40.5055 324.051 40.7454 323.252 40.7454 322.276C40.7454 321.317 40.4895 320.525 39.9778 319.901C39.482 319.262 38.7624 318.942 37.8189 318.942C36.9873 318.942 36.3156 319.246 35.8039 319.853C35.3081 320.461 35.0602 321.277 35.0602 322.3C35.0602 323.34 35.3081 324.155 35.8039 324.747C36.3156 325.323 36.9953 325.61 37.8428 325.61ZM49.0349 316.663V318.63H49.1069C49.4907 317.91 49.9145 317.383 50.3783 317.047C50.842 316.695 51.4257 316.519 52.1294 316.519C52.4652 316.519 52.7211 316.551 52.897 316.615V319.47H52.825C51.7216 319.358 50.834 319.597 50.1624 320.189C49.4907 320.781 49.1549 321.708 49.1549 322.972V328.969H45.8925V316.663H49.0349ZM64.4097 327.481C63.2103 328.713 61.6671 329.329 59.7801 329.329C57.893 329.329 56.3498 328.713 55.1504 327.481C53.951 326.234 53.3513 324.683 53.3513 322.828C53.3513 320.973 53.951 319.43 55.1504 318.198C56.3498 316.951 57.893 316.327 59.7801 316.327C61.6671 316.327 63.2103 316.951 64.4097 318.198C65.6091 319.43 66.2088 320.973 66.2088 322.828C66.2088 324.683 65.6091 326.234 64.4097 327.481ZM59.7801 326.834C60.7556 326.834 61.5152 326.474 62.0589 325.754C62.6186 325.019 62.8985 324.043 62.8985 322.828C62.8985 321.612 62.6186 320.637 62.0589 319.901C61.5152 319.166 60.7556 318.798 59.7801 318.798C58.7886 318.798 58.0209 319.166 57.4772 319.901C56.9335 320.621 56.6616 321.596 56.6616 322.828C56.6616 324.043 56.9335 325.019 57.4772 325.754C58.0209 326.474 58.7886 326.834 59.7801 326.834ZM78.6399 328.969H75.4974V327.529H75.4255C74.9777 328.137 74.482 328.585 73.9382 328.873C73.4105 329.161 72.7308 329.305 71.8992 329.305C70.5559 329.305 69.5084 328.905 68.7568 328.105C68.0052 327.306 67.6294 326.226 67.6294 324.867V316.663H70.8678V324.315C70.8678 325.802 71.5474 326.546 72.9067 326.546C73.6584 326.546 74.2581 326.29 74.7058 325.778C75.1536 325.267 75.3775 324.595 75.3775 323.763V316.663H78.6399V328.969ZM80.7501 332.999V316.663H83.8925V318.198H83.9645C84.876 316.951 86.0834 316.327 87.5866 316.327C89.2018 316.327 90.4972 316.927 91.4727 318.126C92.4482 319.326 92.936 320.893 92.936 322.828C92.936 324.811 92.4482 326.394 91.4727 327.577C90.4972 328.745 89.2098 329.329 87.6106 329.329C86.0114 329.329 84.828 328.745 84.0604 327.577H84.0124V332.999H80.7501ZM86.915 326.618C87.7466 326.618 88.4022 326.29 88.882 325.634C89.3777 324.979 89.6256 324.075 89.6256 322.924C89.6256 321.692 89.3937 320.725 88.93 320.021C88.4662 319.318 87.7546 318.966 86.795 318.966C85.8195 318.966 85.0999 319.334 84.6361 320.069C84.1724 320.789 83.9405 321.74 83.9405 322.924C83.9405 324.059 84.1963 324.963 84.7081 325.634C85.2198 326.29 85.9555 326.618 86.915 326.618ZM99.4436 329.329C97.6845 329.329 96.3092 328.945 95.3177 328.177C94.3262 327.394 93.7825 326.33 93.6865 324.987H96.709C96.9169 326.346 97.8125 327.026 99.3957 327.026C100.115 327.026 100.667 326.898 101.051 326.642C101.451 326.386 101.651 326.042 101.651 325.61C101.651 325.451 101.619 325.307 101.555 325.179C101.507 325.051 101.411 324.939 101.267 324.843C101.139 324.731 101.019 324.643 100.907 324.579C100.811 324.515 100.635 324.451 100.379 324.387C100.123 324.323 99.9234 324.275 99.7795 324.243C99.6515 324.211 99.4197 324.171 99.0838 324.123C98.764 324.059 98.5401 324.011 98.4122 323.979C97.7405 323.851 97.1888 323.723 96.757 323.595C96.3412 323.452 95.9014 323.252 95.4377 322.996C94.9739 322.724 94.6221 322.364 94.3822 321.916C94.1583 321.453 94.0463 320.901 94.0463 320.261C94.0463 318.982 94.5101 318.006 95.4377 317.335C96.3812 316.663 97.5886 316.327 99.0598 316.327C100.643 316.327 101.882 316.695 102.778 317.431C103.69 318.15 104.209 319.142 104.337 320.405H101.387C101.259 319.206 100.467 318.606 99.0119 318.606C98.3562 318.606 97.8365 318.726 97.4526 318.966C97.0848 319.206 96.9009 319.541 96.9009 319.973C96.9009 320.117 96.9249 320.253 96.9729 320.381C97.0369 320.493 97.1328 320.597 97.2607 320.693C97.4047 320.773 97.5406 320.845 97.6685 320.909C97.7965 320.957 97.9804 321.013 98.2203 321.077C98.4601 321.125 98.668 321.173 98.8439 321.221C99.0199 321.253 99.2597 321.301 99.5636 321.365C99.8674 321.413 100.107 321.453 100.283 321.484C100.795 321.596 101.211 321.7 101.531 321.796C101.866 321.876 102.25 322.02 102.682 322.228C103.114 322.42 103.45 322.644 103.69 322.9C103.945 323.14 104.161 323.475 104.337 323.907C104.529 324.323 104.625 324.811 104.625 325.371C104.625 326.586 104.145 327.553 103.186 328.273C102.242 328.977 100.995 329.329 99.4436 329.329Z" fill="#1E2227"/>
<path opacity="0.964" fill-rule="evenodd" clip-rule="evenodd" d="M228.07 116.89C233.84 116.88 239.61 116.89 245.37 116.93C246.22 117.09 246.73 117.59 246.88 118.44C246.94 124.21 246.94 129.97 246.88 135.74C246.48 137.01 245.63 137.49 244.33 137.17C243.69 136.91 243.3 136.43 243.16 135.74C243.13 131.64 243.1 127.55 243.07 123.45C236.8 129.72 230.53 135.99 224.25 142.27C223.35 143 222.44 143.01 221.52 142.31C220.77 141.39 220.77 140.46 221.52 139.54C227.79 133.27 234.06 127 240.34 120.72C236.13 120.72 231.92 120.66 227.71 120.55C226.68 120.03 226.32 119.21 226.63 118.08C226.92 117.46 227.4 117.06 228.07 116.89Z" fill="#937931"/>
<path opacity="0.964" d="M86.39 234.271H41.51C35.99 234.271 31.51 229.791 31.51 224.271V179.391C31.51 173.871 35.99 169.391 41.51 169.391H86.39C91.91 169.391 96.39 173.871 96.39 179.391V224.271C96.39 229.791 91.92 234.271 86.39 234.271Z" fill="#937931"/>
<path d="M530.4 259.63H300.86C292.58 259.63 285.86 252.91 285.86 244.63V15.0898C285.86 6.80984 292.58 0.0898438 300.86 0.0898438H530.4C538.68 0.0898438 545.4 6.80984 545.4 15.0898V244.63C545.4 252.91 538.68 259.63 530.4 259.63Z" fill="#27AAE1"/>
<path d="M317.339 182.551V179.624H331.132V182.551H325.975V196.775H322.496V182.551H317.339ZM334.083 184.47V186.437H334.155C334.539 185.717 334.963 185.189 335.426 184.853C335.89 184.502 336.474 184.326 337.177 184.326C337.513 184.326 337.769 184.358 337.945 184.422V187.276H337.873C336.77 187.164 335.882 187.404 335.21 187.996C334.539 188.587 334.203 189.515 334.203 190.778V196.775H330.941V184.47H334.083ZM346.747 196.775C346.587 196.567 346.459 196.112 346.363 195.408H346.315C345.964 195.936 345.516 196.344 344.972 196.631C344.428 196.919 343.669 197.063 342.693 197.063C341.398 197.063 340.358 196.735 339.575 196.08C338.791 195.424 338.399 194.497 338.399 193.297C338.399 192.05 338.831 191.138 339.695 190.562C340.558 189.971 341.774 189.563 343.341 189.339C344.492 189.179 345.276 189.019 345.692 188.859C346.107 188.683 346.315 188.38 346.315 187.948C346.315 187.5 346.139 187.148 345.788 186.892C345.436 186.62 344.924 186.485 344.252 186.485C342.765 186.485 341.974 187.06 341.878 188.212H338.975C339.023 187.044 339.495 186.077 340.39 185.309C341.286 184.542 342.581 184.158 344.276 184.158C347.731 184.158 349.458 185.669 349.458 188.691V194.952C349.458 195.88 349.602 196.448 349.89 196.655V196.775H346.747ZM343.485 194.784C344.38 194.784 345.084 194.553 345.596 194.089C346.123 193.625 346.387 193.073 346.387 192.434V190.586C346.036 190.794 345.276 191.034 344.108 191.306C343.181 191.514 342.525 191.754 342.141 192.026C341.758 192.282 341.566 192.681 341.566 193.225C341.566 194.265 342.205 194.784 343.485 194.784ZM351.532 196.775V184.47H354.794V196.775H351.532ZM351.532 182.551V179.624H354.794V182.551H351.532ZM360.087 184.47V186.149H360.159C361.006 184.805 362.222 184.134 363.805 184.134C365.068 184.134 366.092 184.565 366.875 185.429C367.659 186.277 368.051 187.38 368.051 188.739V196.775H364.788V189.219C364.788 188.548 364.596 188.004 364.213 187.588C363.845 187.172 363.325 186.964 362.653 186.964C361.934 186.964 361.334 187.228 360.854 187.756C360.391 188.284 360.159 188.963 360.159 189.795V196.775H356.896V184.47H360.087ZM373.371 186.628V184.47H375.074V180.631H378.265V184.47H380.376V186.628H378.265V193.153C378.265 193.969 378.673 194.377 379.488 194.377L380.448 194.353V196.751C379.952 196.783 379.272 196.799 378.409 196.799C377.465 196.799 376.674 196.575 376.034 196.128C375.394 195.664 375.074 194.904 375.074 193.849V186.628H373.371ZM385.318 179.624V186.077H385.39C385.854 185.405 386.357 184.917 386.901 184.613C387.461 184.294 388.149 184.134 388.964 184.134C390.228 184.134 391.251 184.565 392.035 185.429C392.818 186.277 393.21 187.38 393.21 188.739V196.775H389.948V189.219C389.948 188.548 389.756 188.004 389.372 187.588C389.004 187.172 388.484 186.964 387.813 186.964C387.093 186.964 386.493 187.228 386.014 187.756C385.55 188.284 385.318 188.963 385.318 189.795V196.775H382.056V179.624H385.318ZM401.002 197.135C399.019 197.135 397.46 196.528 396.324 195.312C395.189 194.081 394.621 192.514 394.621 190.61C394.621 188.771 395.189 187.236 396.324 186.005C397.46 184.757 398.915 184.134 400.69 184.134C402.625 184.134 404.12 184.805 405.176 186.149C406.231 187.492 406.759 189.291 406.759 191.546H397.836C397.964 192.522 398.291 193.281 398.819 193.825C399.347 194.353 400.066 194.616 400.978 194.616C402.177 194.616 402.969 194.113 403.353 193.105H406.567C406.327 194.257 405.72 195.216 404.744 195.984C403.769 196.751 402.521 197.135 401.002 197.135ZM400.738 186.652C399.155 186.652 398.203 187.532 397.884 189.291H403.353C403.305 188.508 403.041 187.876 402.561 187.396C402.081 186.9 401.474 186.652 400.738 186.652ZM411.579 186.628V184.47H413.282V180.631H416.472V184.47H418.583V186.628H416.472V193.153C416.472 193.969 416.88 194.377 417.696 194.377L418.655 194.353V196.751C418.159 196.783 417.48 196.799 416.616 196.799C415.673 196.799 414.881 196.575 414.241 196.128C413.602 195.664 413.282 194.904 413.282 193.849V186.628H411.579ZM423.406 184.47V186.437H423.477C423.861 185.717 424.285 185.189 424.749 184.853C425.213 184.502 425.796 184.326 426.5 184.326C426.836 184.326 427.092 184.358 427.268 184.422V187.276H427.196C426.092 187.164 425.205 187.404 424.533 187.996C423.861 188.587 423.525 189.515 423.525 190.778V196.775H420.263V184.47H423.406ZM436.07 196.775C435.91 196.567 435.782 196.112 435.686 195.408H435.638C435.286 195.936 434.838 196.344 434.295 196.631C433.751 196.919 432.991 197.063 432.016 197.063C430.72 197.063 429.681 196.735 428.897 196.08C428.114 195.424 427.722 194.497 427.722 193.297C427.722 192.05 428.154 191.138 429.017 190.562C429.881 189.971 431.096 189.563 432.663 189.339C433.815 189.179 434.598 189.019 435.014 188.859C435.43 188.683 435.638 188.38 435.638 187.948C435.638 187.5 435.462 187.148 435.11 186.892C434.758 186.62 434.247 186.485 433.575 186.485C432.088 186.485 431.296 187.06 431.2 188.212H428.298C428.346 187.044 428.817 186.077 429.713 185.309C430.608 184.542 431.904 184.158 433.599 184.158C437.053 184.158 438.78 185.669 438.78 188.691V194.952C438.78 195.88 438.924 196.448 439.212 196.655V196.775H436.07ZM432.807 194.784C433.703 194.784 434.406 194.553 434.918 194.089C435.446 193.625 435.71 193.073 435.71 192.434V190.586C435.358 190.794 434.598 191.034 433.431 191.306C432.503 191.514 431.848 191.754 431.464 192.026C431.08 192.282 430.888 192.681 430.888 193.225C430.888 194.265 431.528 194.784 432.807 194.784ZM440.854 196.775V184.47H444.117V196.775H440.854ZM440.854 182.551V179.624H444.117V182.551H440.854ZM449.409 184.47V186.149H449.481C450.329 184.805 451.544 184.134 453.127 184.134C454.391 184.134 455.414 184.565 456.198 185.429C456.981 186.277 457.373 187.38 457.373 188.739V196.775H454.111V189.219C454.111 188.548 453.919 188.004 453.535 187.588C453.167 187.172 452.648 186.964 451.976 186.964C451.256 186.964 450.657 187.228 450.177 187.756C449.713 188.284 449.481 188.963 449.481 189.795V196.775H446.219V184.47H449.409ZM465.165 197.135C463.182 197.135 461.623 196.528 460.488 195.312C459.352 194.081 458.784 192.514 458.784 190.61C458.784 188.771 459.352 187.236 460.488 186.005C461.623 184.757 463.078 184.134 464.853 184.134C466.788 184.134 468.284 184.805 469.339 186.149C470.395 187.492 470.922 189.291 470.922 191.546H461.999C462.127 192.522 462.455 193.281 462.982 193.825C463.51 194.353 464.23 194.616 465.141 194.616C466.341 194.616 467.132 194.113 467.516 193.105H470.73C470.491 194.257 469.883 195.216 468.907 195.984C467.932 196.751 466.684 197.135 465.165 197.135ZM464.901 186.652C463.318 186.652 462.367 187.532 462.047 189.291H467.516C467.468 188.508 467.204 187.876 466.724 187.396C466.245 186.9 465.637 186.652 464.901 186.652ZM475.575 184.47V186.437H475.647C476.03 185.717 476.454 185.189 476.918 184.853C477.382 184.502 477.966 184.326 478.669 184.326C479.005 184.326 479.261 184.358 479.437 184.422V187.276H479.365C478.261 187.164 477.374 187.404 476.702 187.996C476.03 188.587 475.695 189.515 475.695 190.778V196.775H472.432V184.47H475.575Z" fill="white"/>
<path d="M322.952 223.135C321.193 223.135 319.818 222.751 318.826 221.984C317.835 221.2 317.291 220.137 317.195 218.793H320.218C320.425 220.153 321.321 220.832 322.904 220.832C323.624 220.832 324.176 220.704 324.559 220.449C324.959 220.193 325.159 219.849 325.159 219.417C325.159 219.257 325.127 219.113 325.063 218.985C325.015 218.857 324.919 218.745 324.775 218.649C324.647 218.538 324.527 218.45 324.415 218.386C324.32 218.322 324.144 218.258 323.888 218.194C323.632 218.13 323.432 218.082 323.288 218.05C323.16 218.018 322.928 217.978 322.592 217.93C322.273 217.866 322.049 217.818 321.921 217.786C321.249 217.658 320.697 217.53 320.266 217.402C319.85 217.258 319.41 217.058 318.946 216.802C318.482 216.531 318.131 216.171 317.891 215.723C317.667 215.259 317.555 214.707 317.555 214.068C317.555 212.788 318.019 211.813 318.946 211.141C319.89 210.47 321.097 210.134 322.568 210.134C324.152 210.134 325.391 210.502 326.287 211.237C327.198 211.957 327.718 212.948 327.846 214.212H324.895C324.767 213.012 323.976 212.413 322.52 212.413C321.865 212.413 321.345 212.533 320.961 212.772C320.593 213.012 320.409 213.348 320.409 213.78C320.409 213.924 320.433 214.06 320.481 214.188C320.545 214.3 320.641 214.404 320.769 214.5C320.913 214.579 321.049 214.651 321.177 214.715C321.305 214.763 321.489 214.819 321.729 214.883C321.969 214.931 322.177 214.979 322.353 215.027C322.528 215.059 322.768 215.107 323.072 215.171C323.376 215.219 323.616 215.259 323.792 215.291C324.304 215.403 324.719 215.507 325.039 215.603C325.375 215.683 325.759 215.827 326.191 216.035C326.622 216.227 326.958 216.451 327.198 216.706C327.454 216.946 327.67 217.282 327.846 217.714C328.038 218.13 328.134 218.617 328.134 219.177C328.134 220.393 327.654 221.36 326.694 222.08C325.751 222.783 324.503 223.135 322.952 223.135ZM335.504 223.135C333.521 223.135 331.961 222.528 330.826 221.312C329.69 220.081 329.123 218.514 329.123 216.61C329.123 214.771 329.69 213.236 330.826 212.005C331.961 210.757 333.417 210.134 335.192 210.134C337.127 210.134 338.622 210.805 339.677 212.149C340.733 213.492 341.261 215.291 341.261 217.546H332.337C332.465 218.522 332.793 219.281 333.321 219.825C333.848 220.353 334.568 220.616 335.48 220.616C336.679 220.616 337.471 220.113 337.854 219.105H341.069C340.829 220.257 340.221 221.216 339.246 221.984C338.27 222.751 337.023 223.135 335.504 223.135ZM335.24 212.652C333.656 212.652 332.705 213.532 332.385 215.291H337.854C337.806 214.508 337.543 213.876 337.063 213.396C336.583 212.9 335.975 212.652 335.24 212.652ZM347.76 223.135C346.001 223.135 344.626 222.751 343.634 221.984C342.643 221.2 342.099 220.137 342.003 218.793H345.025C345.233 220.153 346.129 220.832 347.712 220.832C348.432 220.832 348.983 220.704 349.367 220.449C349.767 220.193 349.967 219.849 349.967 219.417C349.967 219.257 349.935 219.113 349.871 218.985C349.823 218.857 349.727 218.745 349.583 218.649C349.455 218.538 349.335 218.45 349.223 218.386C349.127 218.322 348.952 218.258 348.696 218.194C348.44 218.13 348.24 218.082 348.096 218.05C347.968 218.018 347.736 217.978 347.4 217.93C347.08 217.866 346.857 217.818 346.729 217.786C346.057 217.658 345.505 217.53 345.073 217.402C344.658 217.258 344.218 217.058 343.754 216.802C343.29 216.531 342.939 216.171 342.699 215.723C342.475 215.259 342.363 214.707 342.363 214.068C342.363 212.788 342.827 211.813 343.754 211.141C344.698 210.47 345.905 210.134 347.376 210.134C348.96 210.134 350.199 210.502 351.094 211.237C352.006 211.957 352.526 212.948 352.654 214.212H349.703C349.575 213.012 348.784 212.413 347.328 212.413C346.673 212.413 346.153 212.533 345.769 212.772C345.401 213.012 345.217 213.348 345.217 213.78C345.217 213.924 345.241 214.06 345.289 214.188C345.353 214.3 345.449 214.404 345.577 214.5C345.721 214.579 345.857 214.651 345.985 214.715C346.113 214.763 346.297 214.819 346.537 214.883C346.777 214.931 346.984 214.979 347.16 215.027C347.336 215.059 347.576 215.107 347.88 215.171C348.184 215.219 348.424 215.259 348.6 215.291C349.111 215.403 349.527 215.507 349.847 215.603C350.183 215.683 350.567 215.827 350.998 216.035C351.43 216.227 351.766 216.451 352.006 216.706C352.262 216.946 352.478 217.282 352.654 217.714C352.846 218.13 352.942 218.617 352.942 219.177C352.942 220.393 352.462 221.36 351.502 222.08C350.559 222.783 349.311 223.135 347.76 223.135ZM359.403 223.135C357.644 223.135 356.268 222.751 355.277 221.984C354.285 221.2 353.742 220.137 353.646 218.793H356.668C356.876 220.153 357.772 220.832 359.355 220.832C360.074 220.832 360.626 220.704 361.01 220.449C361.41 220.193 361.61 219.849 361.61 219.417C361.61 219.257 361.578 219.113 361.514 218.985C361.466 218.857 361.37 218.745 361.226 218.649C361.098 218.538 360.978 218.45 360.866 218.386C360.77 218.322 360.594 218.258 360.338 218.194C360.082 218.13 359.882 218.082 359.739 218.05C359.611 218.018 359.379 217.978 359.043 217.93C358.723 217.866 358.499 217.818 358.371 217.786C357.7 217.658 357.148 217.53 356.716 217.402C356.3 217.258 355.86 217.058 355.397 216.802C354.933 216.531 354.581 216.171 354.341 215.723C354.117 215.259 354.005 214.707 354.005 214.068C354.005 212.788 354.469 211.813 355.397 211.141C356.34 210.47 357.548 210.134 359.019 210.134C360.602 210.134 361.841 210.502 362.737 211.237C363.649 211.957 364.168 212.948 364.296 214.212H361.346C361.218 213.012 360.426 212.413 358.971 212.413C358.315 212.413 357.796 212.533 357.412 212.772C357.044 213.012 356.86 213.348 356.86 213.78C356.86 213.924 356.884 214.06 356.932 214.188C356.996 214.3 357.092 214.404 357.22 214.5C357.364 214.579 357.5 214.651 357.628 214.715C357.756 214.763 357.939 214.819 358.179 214.883C358.419 214.931 358.627 214.979 358.803 215.027C358.979 215.059 359.219 215.107 359.523 215.171C359.827 215.219 360.066 215.259 360.242 215.291C360.754 215.403 361.17 215.507 361.49 215.603C361.826 215.683 362.209 215.827 362.641 216.035C363.073 216.227 363.409 216.451 363.649 216.706C363.904 216.946 364.12 217.282 364.296 217.714C364.488 218.13 364.584 218.617 364.584 219.177C364.584 220.393 364.104 221.36 363.145 222.08C362.201 222.783 360.954 223.135 359.403 223.135ZM366.056 222.775V210.47H369.318V222.775H366.056ZM366.056 208.551V205.624H369.318V208.551H366.056ZM381.879 221.288C380.68 222.52 379.136 223.135 377.249 223.135C375.362 223.135 373.819 222.52 372.62 221.288C371.42 220.041 370.821 218.49 370.821 216.634C370.821 214.779 371.42 213.236 372.62 212.005C373.819 210.757 375.362 210.134 377.249 210.134C379.136 210.134 380.68 210.757 381.879 212.005C383.078 213.236 383.678 214.779 383.678 216.634C383.678 218.49 383.078 220.041 381.879 221.288ZM377.249 220.64C378.225 220.64 378.985 220.281 379.528 219.561C380.088 218.825 380.368 217.85 380.368 216.634C380.368 215.419 380.088 214.444 379.528 213.708C378.985 212.972 378.225 212.604 377.249 212.604C376.258 212.604 375.49 212.972 374.947 213.708C374.403 214.428 374.131 215.403 374.131 216.634C374.131 217.85 374.403 218.825 374.947 219.561C375.49 220.281 376.258 220.64 377.249 220.64ZM388.385 210.47V212.149H388.457C389.305 210.805 390.52 210.134 392.103 210.134C393.367 210.134 394.39 210.565 395.174 211.429C395.957 212.277 396.349 213.38 396.349 214.739V222.775H393.087V215.219C393.087 214.548 392.895 214.004 392.511 213.588C392.143 213.172 391.623 212.964 390.952 212.964C390.232 212.964 389.632 213.228 389.153 213.756C388.689 214.284 388.457 214.963 388.457 215.795V222.775H385.195V210.47H388.385ZM403.349 223.135C401.59 223.135 400.215 222.751 399.224 221.984C398.232 221.2 397.688 220.137 397.592 218.793H400.615C400.823 220.153 401.718 220.832 403.301 220.832C404.021 220.832 404.573 220.704 404.957 220.449C405.356 220.193 405.556 219.849 405.556 219.417C405.556 219.257 405.524 219.113 405.46 218.985C405.412 218.857 405.316 218.745 405.173 218.649C405.045 218.538 404.925 218.45 404.813 218.386C404.717 218.322 404.541 218.258 404.285 218.194C404.029 218.13 403.829 218.082 403.685 218.05C403.557 218.018 403.325 217.978 402.99 217.93C402.67 217.866 402.446 217.818 402.318 217.786C401.646 217.658 401.095 217.53 400.663 217.402C400.247 217.258 399.807 217.058 399.343 216.802C398.88 216.531 398.528 216.171 398.288 215.723C398.064 215.259 397.952 214.707 397.952 214.068C397.952 212.788 398.416 211.813 399.343 211.141C400.287 210.47 401.494 210.134 402.966 210.134C404.549 210.134 405.788 210.502 406.684 211.237C407.595 211.957 408.115 212.948 408.243 214.212H405.292C405.165 213.012 404.373 212.413 402.918 212.413C402.262 212.413 401.742 212.533 401.358 212.772C400.991 213.012 400.807 213.348 400.807 213.78C400.807 213.924 400.831 214.06 400.879 214.188C400.943 214.3 401.039 214.404 401.167 214.5C401.31 214.579 401.446 214.651 401.574 214.715C401.702 214.763 401.886 214.819 402.126 214.883C402.366 214.931 402.574 214.979 402.75 215.027C402.926 215.059 403.166 215.107 403.469 215.171C403.773 215.219 404.013 215.259 404.189 215.291C404.701 215.403 405.117 215.507 405.436 215.603C405.772 215.683 406.156 215.827 406.588 216.035C407.02 216.227 407.355 216.451 407.595 216.706C407.851 216.946 408.067 217.282 408.243 217.714C408.435 218.13 408.531 218.617 408.531 219.177C408.531 220.393 408.051 221.36 407.092 222.08C406.148 222.783 404.901 223.135 403.349 223.135Z" fill="white"/>
<path opacity="0.964" fill-rule="evenodd" clip-rule="evenodd" d="M513.56 13.07C519.33 13.06 525.1 13.07 530.86 13.11C531.71 13.27 532.22 13.7703 532.37 14.6203C532.43 20.3903 532.43 26.1501 532.37 31.9201C531.97 33.1901 531.12 33.6703 529.82 33.3503C529.18 33.0903 528.79 32.6101 528.65 31.9201C528.62 27.8301 528.59 23.7303 528.56 19.6403C522.29 25.9103 516.02 32.1801 509.74 38.4601C508.84 39.1901 507.93 39.2002 507.01 38.5002C506.26 37.5802 506.26 36.6502 507.01 35.7302C513.28 29.4602 519.55 23.1903 525.83 16.9103C521.62 16.9103 517.41 16.8504 513.2 16.7404C512.17 16.2204 511.81 15.4002 512.12 14.2702C512.41 13.6502 512.89 13.24 513.56 13.07Z" fill="white"/>
<path d="M371.89 142.839H327C321.48 142.839 317 138.359 317 132.839V87.959C317 82.439 321.48 77.959 327 77.959H371.88C377.4 77.959 381.88 82.439 381.88 87.959V132.839C381.89 138.359 377.41 142.839 371.89 142.839Z" fill="#0E6889"/>
<path d="M243.29 496.69H165.81C156.42 496.69 148.81 489.08 148.81 479.69V408.4C148.81 399.01 156.42 391.4 165.81 391.4H243.29C252.68 391.4 260.29 399.01 260.29 408.4V479.69C260.29 489.08 252.68 496.69 243.29 496.69Z" fill="#504FA1"/>
<path d="M53.71 200.2L44.11 207.94C43.92 208.1 43.8 208.33 43.8 208.58V217.56C43.8 218.02 44.17 218.38 44.62 218.38H54.22C54.68 218.38 55.04 218.01 55.04 217.56V200.85C55.04 200.53 54.8599 200.24 54.5699 200.11C54.2999 199.96 53.96 200 53.71 200.2ZM53.41 216.73H45.46V208.971L53.41 202.56V216.73Z" fill="white"/>
<path d="M60.61 195.19L58.13 196.74C57.89 196.89 57.74 197.15 57.74 197.44V217.56C57.74 218.02 58.1101 218.38 58.5601 218.38H68.16C68.61 218.38 68.98 218.01 68.98 217.56V203.32C68.98 203.11 68.9 202.9 68.75 202.75L61.63 195.32C61.37 195.04 60.94 194.99 60.61 195.19ZM67.34 216.73H59.39V197.89L60.91 196.94L67.34 203.65V216.73Z" fill="white"/>
<path d="M78.2 197.011L71.91 203.301C71.8 203.411 71.74 203.551 71.74 203.711V217.811C71.74 218.131 71.9999 218.391 72.3199 218.391H78.61C78.93 218.391 79.1899 218.131 79.1899 217.811V197.421C79.1899 197.191 79.05 196.981 78.83 196.891C78.62 196.791 78.37 196.841 78.2 197.011ZM78.03 217.231H72.89V203.951L78.03 198.811V217.231Z" fill="white"/>
<path d="M83.61 187.93C79.07 191.27 74.54 194.6 70 197.94C67.36 195.18 64.72 192.41 62.08 189.65C61.8 189.36 61.2501 189.26 60.9101 189.5C55.0501 193.58 49.19 197.65 43.33 201.73C42.31 202.44 43.2801 204.12 44.3101 203.4C49.9701 199.47 55.6201 195.53 61.2801 191.6C63.9201 194.37 66.57 197.14 69.21 199.91C69.48 200.19 70.0501 200.31 70.3801 200.06C75.1201 196.58 79.86 193.09 84.6 189.61C85.58 188.87 84.62 187.19 83.61 187.93Z" fill="white"/>
<path d="M363.88 111.69C362.04 110.11 359.31 109.44 355.75 109.69C358.06 108.11 359.59 105.45 359.59 102.44C359.59 97.6099 355.66 93.6699 350.82 93.6699C345.99 93.6699 342.05 97.5999 342.05 102.44C342.05 105.3 343.43 107.84 345.55 109.44C342.98 109.19 337.58 109.38 335.94 115.07C335.92 115.13 335.91 115.19 335.91 115.25V125.21C335.91 125.58 336.21 125.88 336.58 125.88H365.38C365.75 125.88 366.05 125.58 366.05 125.21V115.73C366.05 115.72 366.05 115.71 366.05 115.69C366.04 115.6 365.89 113.42 363.88 111.69ZM343.31 102.44C343.31 98.2999 346.68 94.9302 350.82 94.9302C354.96 94.9302 358.33 98.2999 358.33 102.44C358.33 106.57 354.98 109.93 350.85 109.95H350.78C346.66 109.94 343.31 106.57 343.31 102.44ZM350.69 112.63H351.33L352.28 114.59L350.98 117.12L350.01 115.21L350.69 112.63ZM349.9 111.29C349.9 111.04 350.1 110.84 350.35 110.84H351.61C351.86 110.84 352.06 111.04 352.06 111.29C352.06 111.54 351.86 111.74 351.61 111.74H350.35C350.1 111.74 349.9 111.54 349.9 111.29ZM352.24 112.46C352.66 112.23 352.95 111.8 352.95 111.29C352.95 111.17 352.93 111.06 352.9 110.96C353.43 110.83 353.94 110.65 354.42 110.43L352.79 113.6L352.24 112.46ZM349.8 112.51L349.4 114.02L347.67 110.63C348.11 110.8 348.56 110.93 349.03 111.03C349.01 111.12 349 111.2 349 111.29C349.01 111.83 349.34 112.3 349.8 112.51ZM364.72 124.55H337.25V115.36C338.92 109.8 344.92 110.62 346.33 110.89L350.39 118.88C350.5 119.1 350.73 119.24 350.98 119.24C351.23 119.24 351.46 119.1 351.57 118.88L355.61 111.03C358.9 110.77 361.38 111.32 362.98 112.68C364.52 113.98 364.69 115.58 364.71 115.76V124.55H364.72Z" fill="white"/>
<path d="M350.14 397.98C349.94 397.94 349.74 397.98 349.57 398.1C349.4 398.21 349.29 398.39 349.25 398.58L348.61 401.92C348.53 402.33 348.8 402.73 349.21 402.8L350.5 403.05C350.56 403.76 350.7 404.45 350.93 405.12L349.84 405.86C349.67 405.97 349.56 406.15 349.52 406.34C349.48 406.54 349.52 406.74 349.64 406.91L351.55 409.721C351.66 409.891 351.84 410 352.03 410.04C352.23 410.08 352.43 410.04 352.6 409.92L353.69 409.181C354.23 409.641 354.83 410.03 355.46 410.34L355.21 411.63C355.13 412.04 355.4 412.44 355.81 412.51L359.15 413.15C359.2 413.16 359.25 413.16 359.29 413.16C359.65 413.16 359.96 412.91 360.03 412.55L360.28 411.26C360.99 411.2 361.68 411.05 362.35 410.83L363.09 411.92C363.2 412.09 363.38 412.201 363.57 412.241C363.77 412.281 363.97 412.24 364.14 412.12L366.95 410.21C367.3 409.98 367.39 409.51 367.15 409.16L366.41 408.07C366.87 407.53 367.26 406.93 367.57 406.3L368.86 406.55C369.27 406.63 369.67 406.361 369.74 405.951L370.38 402.61C370.42 402.41 370.38 402.21 370.26 402.04C370.15 401.87 369.97 401.761 369.78 401.721L368.49 401.471C368.43 400.761 368.28 400.07 368.06 399.4L369.15 398.66C369.5 398.43 369.59 397.95 369.35 397.61L367.44 394.8C367.33 394.63 367.15 394.52 366.96 394.48C366.76 394.44 366.56 394.48 366.39 394.6L365.3 395.34C364.76 394.88 364.16 394.491 363.53 394.181L363.78 392.89C363.86 392.48 363.59 392.08 363.18 392.01L359.84 391.37C359.64 391.33 359.44 391.371 359.27 391.491C359.1 391.601 358.99 391.781 358.95 391.971L358.7 393.26C357.99 393.32 357.3 393.47 356.63 393.69L355.89 392.6C355.78 392.43 355.6 392.32 355.41 392.28C355.21 392.24 355.01 392.28 354.84 392.4L352.03 394.31C351.86 394.42 351.75 394.6 351.71 394.79C351.67 394.99 351.71 395.19 351.83 395.36L352.57 396.451C352.11 396.991 351.72 397.591 351.41 398.221L350.14 397.98ZM352.57 399.37C352.93 398.51 353.44 397.72 354.1 397.05C354.35 396.79 354.38 396.4 354.18 396.1L353.53 395.15L355.09 394.09L355.74 395.04C355.94 395.34 356.32 395.45 356.65 395.31C357.52 394.95 358.44 394.761 359.37 394.741C359.73 394.731 360.03 394.48 360.1 394.13L360.31 393L362.16 393.35L361.94 394.48C361.87 394.83 362.06 395.18 362.39 395.32C363.25 395.68 364.04 396.19 364.71 396.85C364.97 397.1 365.36 397.131 365.66 396.931L366.61 396.28L367.67 397.84L366.72 398.491C366.42 398.691 366.31 399.07 366.45 399.4C366.81 400.27 367 401.19 367.02 402.12C367.03 402.48 367.28 402.78 367.63 402.85L368.76 403.07L368.41 404.92L367.28 404.71C366.93 404.64 366.58 404.83 366.44 405.16C366.08 406.02 365.57 406.81 364.91 407.48C364.66 407.74 364.63 408.131 364.83 408.431L365.48 409.38L363.92 410.44L363.27 409.491C363.07 409.201 362.69 409.081 362.36 409.221C361.49 409.581 360.57 409.77 359.64 409.79C359.28 409.8 358.98 410.05 358.91 410.4L358.69 411.53L356.84 411.181L357.06 410.05C357.13 409.7 356.94 409.35 356.61 409.21C355.75 408.85 354.97 408.341 354.29 407.681C354.03 407.431 353.64 407.4 353.34 407.6L352.39 408.25L351.33 406.69L352.28 406.04C352.58 405.84 352.69 405.46 352.55 405.13C352.19 404.26 352 403.34 351.98 402.41C351.97 402.05 351.72 401.751 351.37 401.681L350.24 401.46L350.59 399.61L351.72 399.83C352.08 399.89 352.43 399.7 352.57 399.37Z" fill="white"/>
<path d="M358.5 407.599C358.84 407.659 359.18 407.699 359.52 407.699C362.07 407.699 364.36 405.889 364.85 403.289C365.41 400.349 363.47 397.499 360.53 396.929C359.1 396.659 357.66 396.959 356.46 397.769C355.26 398.589 354.45 399.819 354.18 401.249C353.91 402.679 354.21 404.118 355.02 405.318C355.84 406.518 357.07 407.329 358.5 407.599ZM355.66 401.528C355.86 400.498 356.44 399.609 357.31 399.019C357.97 398.569 358.73 398.338 359.51 398.338C359.76 398.338 360.01 398.359 360.25 398.409C362.37 398.819 363.77 400.869 363.37 402.999C363.17 404.029 362.59 404.918 361.72 405.508C360.85 406.098 359.81 406.309 358.78 406.119C357.75 405.919 356.86 405.339 356.27 404.469C355.68 403.599 355.47 402.558 355.66 401.528Z" fill="white"/>
<path d="M330.04 392.18C330.1 392.59 330.48 392.879 330.9 392.819L332.2 392.629C332.49 393.279 332.85 393.89 333.28 394.45L332.49 395.5C332.37 395.66 332.32 395.86 332.35 396.06C332.38 396.26 332.48 396.44 332.65 396.56L335.37 398.6C335.7 398.85 336.18 398.78 336.43 398.45L337.22 397.399C337.88 397.659 338.57 397.83 339.27 397.93L339.46 399.23C339.49 399.43 339.59 399.61 339.76 399.73C339.89 399.83 340.05 399.879 340.21 399.879C340.25 399.879 340.28 399.88 340.32 399.87L343.69 399.39C344.1 399.33 344.39 398.95 344.33 398.54L344.14 397.24C344.79 396.95 345.4 396.59 345.96 396.16L347.01 396.95C347.35 397.2 347.82 397.129 348.07 396.799L350.11 394.08C350.36 393.75 350.29 393.27 349.96 393.02L348.91 392.23C349.17 391.57 349.34 390.88 349.44 390.18L350.74 389.99C350.94 389.96 351.12 389.86 351.24 389.7C351.36 389.54 351.41 389.34 351.38 389.14L350.9 385.779C350.84 385.369 350.46 385.08 350.04 385.14L348.74 385.33C348.45 384.68 348.09 384.069 347.66 383.509L348.45 382.46C348.57 382.3 348.62 382.099 348.59 381.899C348.56 381.699 348.46 381.519 348.29 381.399L345.57 379.359C345.41 379.239 345.21 379.19 345.01 379.22C344.81 379.25 344.63 379.35 344.51 379.52L343.72 380.569C343.06 380.309 342.37 380.14 341.67 380.04L341.48 378.74C341.42 378.33 341.04 378.04 340.62 378.1L337.26 378.58C337.06 378.61 336.88 378.709 336.76 378.879C336.64 379.039 336.59 379.24 336.62 379.44L336.81 380.74C336.16 381.03 335.55 381.389 334.99 381.819L333.94 381.029C333.78 380.909 333.58 380.86 333.38 380.89C333.18 380.92 333 381.03 332.88 381.19L330.84 383.91C330.72 384.07 330.67 384.27 330.7 384.47C330.73 384.67 330.83 384.85 330.99 384.97L332.04 385.759C331.78 386.419 331.61 387.11 331.51 387.81L330.21 388C330.01 388.03 329.83 388.129 329.71 388.299C329.59 388.459 329.54 388.659 329.57 388.859L330.04 392.18ZM334.53 383.35C334.82 383.56 335.21 383.55 335.48 383.31C336.19 382.69 336.99 382.21 337.87 381.89C338.21 381.77 338.41 381.429 338.36 381.069L338.2 379.93L340.07 379.66L340.23 380.799C340.28 381.149 340.57 381.42 340.93 381.45C341.86 381.51 342.77 381.74 343.62 382.14C343.94 382.29 344.33 382.19 344.55 381.91L345.24 380.99L346.75 382.12L346.06 383.04C345.85 383.33 345.86 383.72 346.1 383.99C346.72 384.7 347.2 385.499 347.52 386.379C347.64 386.719 347.98 386.92 348.34 386.87L349.48 386.71L349.75 388.58L348.61 388.74C348.26 388.79 347.99 389.08 347.96 389.44C347.9 390.37 347.67 391.279 347.27 392.129C347.12 392.449 347.22 392.84 347.5 393.06L348.42 393.75L347.29 395.259L346.37 394.569C346.08 394.349 345.69 394.369 345.42 394.609C344.71 395.229 343.91 395.709 343.03 396.029C342.69 396.149 342.49 396.49 342.54 396.85L342.7 397.99L340.83 398.259L340.67 397.12C340.62 396.77 340.33 396.5 339.97 396.47C339.04 396.41 338.13 396.179 337.28 395.779C337.18 395.729 337.07 395.71 336.96 395.71C336.73 395.71 336.5 395.819 336.35 396.009L335.66 396.93L334.15 395.799L334.84 394.879C335.05 394.589 335.04 394.2 334.8 393.93C334.18 393.22 333.7 392.42 333.38 391.54C333.26 391.2 332.91 390.999 332.56 391.049L331.42 391.21L331.15 389.339L332.29 389.18C332.64 389.13 332.91 388.84 332.94 388.48C333 387.55 333.23 386.64 333.63 385.79C333.78 385.47 333.68 385.079 333.4 384.859L332.48 384.169L333.61 382.66L334.53 383.35Z" fill="white"/>
<path d="M340.45 394.4C340.71 394.4 340.97 394.379 341.23 394.339C344.19 393.909 346.26 391.16 345.84 388.19C345.41 385.22 342.66 383.16 339.69 383.58C336.73 384.01 334.66 386.76 335.08 389.73C335.46 392.44 337.79 394.4 340.45 394.4ZM344.33 388.41C344.64 390.55 343.15 392.54 341.01 392.85C338.87 393.16 336.88 391.669 336.57 389.529C336.26 387.389 337.75 385.399 339.89 385.089C340.08 385.059 340.27 385.049 340.45 385.049C342.37 385.039 344.05 386.45 344.33 388.41Z" fill="white"/>
<path d="M234.5 461.149C234.5 461.129 234.49 461.099 234.49 461.079C234.48 461.039 234.47 461.009 234.46 460.979C234.45 460.959 234.45 460.939 234.44 460.919C234.42 460.879 234.4 460.839 234.38 460.809C234.37 460.799 234.37 460.779 234.36 460.769C234.33 460.719 234.29 460.679 234.25 460.639C234.24 460.629 234.23 460.619 234.22 460.609C234.19 460.579 234.16 460.549 234.12 460.529C234.1 460.519 234.08 460.509 234.06 460.489C234.04 460.479 234.02 460.459 233.99 460.449L226.68 456.829V424.169C226.68 423.639 226.25 423.199 225.71 423.199H183.17C182.64 423.199 182.2 423.629 182.2 424.169V456.829L175.11 460.439C175.09 460.449 175.07 460.469 175.05 460.479C175.03 460.489 175.01 460.499 174.99 460.519C174.96 460.539 174.93 460.569 174.9 460.599C174.89 460.609 174.87 460.619 174.86 460.639C174.82 460.679 174.78 460.729 174.75 460.769C174.75 460.769 174.74 460.779 174.74 460.789C174.71 460.829 174.69 460.879 174.67 460.919C174.66 460.939 174.66 460.959 174.65 460.979C174.64 461.019 174.62 461.049 174.62 461.089C174.62 461.109 174.61 461.129 174.61 461.159C174.6 461.199 174.6 461.239 174.6 461.279C174.6 461.289 174.6 461.309 174.6 461.319V463.949C174.6 464.479 175.03 464.919 175.57 464.919H233.57C234.1 464.919 234.54 464.489 234.54 463.949V461.319C234.54 461.309 234.54 461.289 234.54 461.279C234.51 461.219 234.51 461.179 234.5 461.149ZM179.57 460.339L183.4 458.389H225.48L229.42 460.339H179.57ZM184.13 425.129H224.73V456.449H184.13V425.129ZM232.58 462.959H176.51V462.269H232.58V462.959Z" fill="white"/>
<path d="M220.59 427.189H188.28C187.75 427.189 187.31 427.62 187.31 428.16V449.939C187.31 450.469 187.74 450.91 188.28 450.91H220.59C221.12 450.91 221.56 450.479 221.56 449.939V428.16C221.56 427.63 221.12 427.189 220.59 427.189ZM219.62 448.979H189.24V429.129H219.62V448.979Z" fill="white"/>
<path d="M204.82 451.459C203.67 451.459 202.74 452.389 202.74 453.539C202.74 454.689 203.67 455.619 204.82 455.619C205.97 455.619 206.9 454.689 206.9 453.539C206.9 452.389 205.96 451.459 204.82 451.459ZM204.82 454.459C204.31 454.459 203.9 454.049 203.9 453.539C203.9 453.029 204.31 452.619 204.82 452.619C205.33 452.619 205.74 453.029 205.74 453.539C205.74 454.039 205.32 454.459 204.82 454.459Z" fill="white"/>
<path opacity="0.964" d="M660.57 135.649H583.09C573.7 135.649 566.09 128.039 566.09 118.649V47.3594C566.09 37.9694 573.7 30.3594 583.09 30.3594H660.57C669.96 30.3594 677.57 37.9694 677.57 47.3594V118.649C677.57 128.029 669.96 135.649 660.57 135.649Z" fill="#937931"/>
<path d="M621.23 107.669L623.61 107.679C636.93 107.119 647.35 96.2592 647.35 82.9092C647.35 69.5592 636.93 58.6992 623.61 58.1392L621.25 58.1289C621.24 58.1289 621.24 58.1389 621.23 58.1489C608.06 58.8489 597.76 69.6992 597.76 82.9092C597.75 96.1192 608.06 106.979 621.23 107.669ZM606.25 98.939C607.82 97.799 609.53 96.819 611.32 96.019C613.03 99.579 615.4 102.729 618.38 105.399C613.8 104.549 609.55 102.289 606.25 98.939ZM621.6 105.559C617.97 102.829 615.05 99.3091 613.11 95.3091C615.83 94.3191 618.68 93.7491 621.6 93.6191V105.559ZM621.6 91.709C618.41 91.849 615.3 92.4691 612.34 93.5591C611.21 90.7491 610.55 87.769 610.36 84.689L621.6 84.6792V91.709ZM621.6 82.7588L610.3 82.769C610.32 79.619 610.83 76.5391 611.84 73.5991C614.95 74.8291 618.23 75.5189 621.6 75.6689V82.7588ZM626.4 105.459C629.52 102.689 631.97 99.4092 633.7 95.6792C635.63 96.4592 637.46 97.4592 639.16 98.6392C635.73 102.249 631.25 104.639 626.4 105.459ZM640.42 97.189C638.57 95.869 636.56 94.7692 634.44 93.9092C635.58 90.9692 636.24 87.8689 636.42 84.6689H645.37C645.01 89.2689 643.31 93.579 640.42 97.189ZM641.13 69.5688C643.91 73.4288 645.4 77.9793 645.43 82.7393H636.47C636.45 79.4693 635.93 76.2692 634.9 73.1992C637.11 72.2592 639.21 71.0288 641.13 69.5688ZM639.95 68.0591C638.18 69.3991 636.26 70.5192 634.24 71.4092C632.53 67.2092 629.83 63.4189 626.4 60.3589C631.67 61.2489 636.44 63.9491 639.95 68.0591ZM623.51 60.459C627.51 63.529 630.58 67.5391 632.45 72.1191C629.58 73.1491 626.57 73.699 623.51 73.769V60.459ZM623.51 75.689C626.79 75.629 630.02 75.0289 633.11 73.9189C634.05 76.7689 634.53 79.7388 634.55 82.7588L623.51 82.769V75.689ZM623.51 84.6792L634.49 84.6689C634.31 87.6389 633.69 90.519 632.63 93.249C629.69 92.269 626.63 91.7392 623.51 91.6792V84.6792ZM623.51 93.5991C626.37 93.6591 629.18 94.139 631.88 95.019C629.99 99.029 627.11 102.589 623.51 105.359V93.5991ZM621.6 60.2588V73.7393C618.48 73.5993 615.43 72.9388 612.53 71.7988C614.45 67.2588 617.57 63.2888 621.6 60.2588ZM618.39 60.4189C615.09 63.3789 612.47 67.0191 610.77 71.0391C608.88 70.1391 607.1 69.0393 605.45 67.7393C608.85 63.9093 613.4 61.3389 618.39 60.4189ZM604.23 69.229C606.04 70.649 608 71.8689 610.06 72.8389C608.95 76.0189 608.38 79.3588 608.37 82.7788H599.67C599.7 77.8388 601.28 73.169 604.23 69.229ZM599.75 84.689H608.44C608.63 88.009 609.34 91.2388 610.56 94.2788C608.58 95.1588 606.7 96.249 604.97 97.519C601.91 93.849 600.11 89.429 599.75 84.689Z" fill="white"/>
<defs>
<linearGradient id="paint0_linear_23_50106" x1="319.519" y1="563.385" x2="441.962" y2="563.385" gradientUnits="userSpaceOnUse">
<stop offset="0.00181378" stop-color="white" stop-opacity="0"/>
<stop offset="0.0866" stop-color="#F3FAFE" stop-opacity="0.0849"/>
<stop offset="0.2245" stop-color="#D9F1FD" stop-opacity="0.2231"/>
<stop offset="0.3985" stop-color="#AFE2FA" stop-opacity="0.3974"/>
<stop offset="0.6018" stop-color="#6DCFF6" stop-opacity="0.6011"/>
<stop offset="0.8268" stop-color="#00BBF2" stop-opacity="0.8265"/>
<stop offset="1" stop-color="#00AEEF"/>
</linearGradient>
<linearGradient id="paint1_linear_23_50106" x1="306.671" y1="552.765" x2="476.044" y2="552.765" gradientUnits="userSpaceOnUse">
<stop offset="0.00181378" stop-color="white" stop-opacity="0"/>
<stop offset="0.0866" stop-color="#F3FAFE" stop-opacity="0.0849"/>
<stop offset="0.2245" stop-color="#D9F1FD" stop-opacity="0.2231"/>
<stop offset="0.3985" stop-color="#AFE2FA" stop-opacity="0.3974"/>
<stop offset="0.6018" stop-color="#6DCFF6" stop-opacity="0.6011"/>
<stop offset="0.8268" stop-color="#00BBF2" stop-opacity="0.8265"/>
<stop offset="1" stop-color="#00AEEF"/>
</linearGradient>
<linearGradient id="paint2_linear_23_50106" x1="300.282" y1="542.145" x2="503.673" y2="542.145" gradientUnits="userSpaceOnUse">
<stop offset="0.00181378" stop-color="white" stop-opacity="0"/>
<stop offset="0.0866" stop-color="#F3FAFE" stop-opacity="0.0849"/>
<stop offset="0.2245" stop-color="#D9F1FD" stop-opacity="0.2231"/>
<stop offset="0.3985" stop-color="#AFE2FA" stop-opacity="0.3974"/>
<stop offset="0.6018" stop-color="#6DCFF6" stop-opacity="0.6011"/>
<stop offset="0.8268" stop-color="#00BBF2" stop-opacity="0.8265"/>
<stop offset="1" stop-color="#00AEEF"/>
</linearGradient>
<linearGradient id="paint3_linear_23_50106" x1="297.282" y1="531.523" x2="527.921" y2="531.523" gradientUnits="userSpaceOnUse">
<stop offset="0.00181378" stop-color="white" stop-opacity="0"/>
<stop offset="0.0866" stop-color="#F3FAFE" stop-opacity="0.0849"/>
<stop offset="0.2245" stop-color="#D9F1FD" stop-opacity="0.2231"/>
<stop offset="0.3985" stop-color="#AFE2FA" stop-opacity="0.3974"/>
<stop offset="0.6018" stop-color="#6DCFF6" stop-opacity="0.6011"/>
<stop offset="0.8268" stop-color="#00BBF2" stop-opacity="0.8265"/>
<stop offset="1" stop-color="#00AEEF"/>
</linearGradient>
<linearGradient id="paint4_linear_23_50106" x1="296.613" y1="520.903" x2="549.831" y2="520.903" gradientUnits="userSpaceOnUse">
<stop offset="0.00181378" stop-color="white" stop-opacity="0"/>
<stop offset="0.0866" stop-color="#F3FAFE" stop-opacity="0.0849"/>
<stop offset="0.2245" stop-color="#D9F1FD" stop-opacity="0.2231"/>
<stop offset="0.3985" stop-color="#AFE2FA" stop-opacity="0.3974"/>
<stop offset="0.6018" stop-color="#6DCFF6" stop-opacity="0.6011"/>
<stop offset="0.8268" stop-color="#00BBF2" stop-opacity="0.8265"/>
<stop offset="1" stop-color="#00AEEF"/>
</linearGradient>
<linearGradient id="paint5_linear_23_50106" x1="297.656" y1="510.286" x2="570.017" y2="510.286" gradientUnits="userSpaceOnUse">
<stop offset="0.00181378" stop-color="white" stop-opacity="0"/>
<stop offset="0.0866" stop-color="#F3FAFE" stop-opacity="0.0849"/>
<stop offset="0.2245" stop-color="#D9F1FD" stop-opacity="0.2231"/>
<stop offset="0.3985" stop-color="#AFE2FA" stop-opacity="0.3974"/>
<stop offset="0.6018" stop-color="#6DCFF6" stop-opacity="0.6011"/>
<stop offset="0.8268" stop-color="#00BBF2" stop-opacity="0.8265"/>
<stop offset="1" stop-color="#00AEEF"/>
</linearGradient>
<linearGradient id="paint6_linear_23_50106" x1="300.226" y1="499.663" x2="588.699" y2="499.663" gradientUnits="userSpaceOnUse">
<stop offset="0.00181378" stop-color="white" stop-opacity="0"/>
<stop offset="0.0866" stop-color="#F3FAFE" stop-opacity="0.0849"/>
<stop offset="0.2245" stop-color="#D9F1FD" stop-opacity="0.2231"/>
<stop offset="0.3985" stop-color="#AFE2FA" stop-opacity="0.3974"/>
<stop offset="0.6018" stop-color="#6DCFF6" stop-opacity="0.6011"/>
<stop offset="0.8268" stop-color="#00BBF2" stop-opacity="0.8265"/>
<stop offset="1" stop-color="#00AEEF"/>
</linearGradient>
<linearGradient id="paint7_linear_23_50106" x1="303.87" y1="489.044" x2="606.291" y2="489.044" gradientUnits="userSpaceOnUse">
<stop offset="0.00181378" stop-color="white" stop-opacity="0"/>
<stop offset="0.0866" stop-color="#F3FAFE" stop-opacity="0.0849"/>
<stop offset="0.2245" stop-color="#D9F1FD" stop-opacity="0.2231"/>
<stop offset="0.3985" stop-color="#AFE2FA" stop-opacity="0.3974"/>
<stop offset="0.6018" stop-color="#6DCFF6" stop-opacity="0.6011"/>
<stop offset="0.8268" stop-color="#00BBF2" stop-opacity="0.8265"/>
<stop offset="1" stop-color="#00AEEF"/>
</linearGradient>
<linearGradient id="paint8_linear_23_50106" x1="308.625" y1="478.422" x2="622.777" y2="478.422" gradientUnits="userSpaceOnUse">
<stop offset="0.00181378" stop-color="white" stop-opacity="0"/>
<stop offset="0.0866" stop-color="#F3FAFE" stop-opacity="0.0849"/>
<stop offset="0.2245" stop-color="#D9F1FD" stop-opacity="0.2231"/>
<stop offset="0.3985" stop-color="#AFE2FA" stop-opacity="0.3974"/>
<stop offset="0.6018" stop-color="#6DCFF6" stop-opacity="0.6011"/>
<stop offset="0.8268" stop-color="#00BBF2" stop-opacity="0.8265"/>
<stop offset="1" stop-color="#00AEEF"/>
</linearGradient>
<linearGradient id="paint9_linear_23_50106" x1="314.227" y1="467.801" x2="638.416" y2="467.801" gradientUnits="userSpaceOnUse">
<stop offset="0.00181378" stop-color="white" stop-opacity="0"/>
<stop offset="0.0866" stop-color="#F3FAFE" stop-opacity="0.0849"/>
<stop offset="0.2245" stop-color="#D9F1FD" stop-opacity="0.2231"/>
<stop offset="0.3985" stop-color="#AFE2FA" stop-opacity="0.3974"/>
<stop offset="0.6018" stop-color="#6DCFF6" stop-opacity="0.6011"/>
<stop offset="0.8268" stop-color="#00BBF2" stop-opacity="0.8265"/>
<stop offset="1" stop-color="#00AEEF"/>
</linearGradient>
<linearGradient id="paint10_linear_23_50106" x1="320.712" y1="457.182" x2="653.172" y2="457.182" gradientUnits="userSpaceOnUse">
<stop offset="0.00181378" stop-color="white" stop-opacity="0"/>
<stop offset="0.0866" stop-color="#F3FAFE" stop-opacity="0.0849"/>
<stop offset="0.2245" stop-color="#D9F1FD" stop-opacity="0.2231"/>
<stop offset="0.3985" stop-color="#AFE2FA" stop-opacity="0.3974"/>
<stop offset="0.6018" stop-color="#6DCFF6" stop-opacity="0.6011"/>
<stop offset="0.8268" stop-color="#00BBF2" stop-opacity="0.8265"/>
<stop offset="1" stop-color="#00AEEF"/>
</linearGradient>
<linearGradient id="paint11_linear_23_50106" x1="327.979" y1="446.561" x2="667.152" y2="446.561" gradientUnits="userSpaceOnUse">
<stop offset="0.00181378" stop-color="white" stop-opacity="0"/>
<stop offset="0.0866" stop-color="#F3FAFE" stop-opacity="0.0849"/>
<stop offset="0.2245" stop-color="#D9F1FD" stop-opacity="0.2231"/>
<stop offset="0.3985" stop-color="#AFE2FA" stop-opacity="0.3974"/>
<stop offset="0.6018" stop-color="#6DCFF6" stop-opacity="0.6011"/>
<stop offset="0.8268" stop-color="#00BBF2" stop-opacity="0.8265"/>
<stop offset="1" stop-color="#00AEEF"/>
</linearGradient>
<linearGradient id="paint12_linear_23_50106" x1="335.934" y1="435.94" x2="680.434" y2="435.94" gradientUnits="userSpaceOnUse">
<stop offset="0.00181378" stop-color="white" stop-opacity="0"/>
<stop offset="0.0866" stop-color="#F3FAFE" stop-opacity="0.0849"/>
<stop offset="0.2245" stop-color="#D9F1FD" stop-opacity="0.2231"/>
<stop offset="0.3985" stop-color="#AFE2FA" stop-opacity="0.3974"/>
<stop offset="0.6018" stop-color="#6DCFF6" stop-opacity="0.6011"/>
<stop offset="0.8268" stop-color="#00BBF2" stop-opacity="0.8265"/>
<stop offset="1" stop-color="#00AEEF"/>
</linearGradient>
<linearGradient id="paint13_linear_23_50106" x1="344.564" y1="425.323" x2="693.041" y2="425.323" gradientUnits="userSpaceOnUse">
<stop offset="0.00181378" stop-color="white" stop-opacity="0"/>
<stop offset="0.0866" stop-color="#F3FAFE" stop-opacity="0.0849"/>
<stop offset="0.2245" stop-color="#D9F1FD" stop-opacity="0.2231"/>
<stop offset="0.3985" stop-color="#AFE2FA" stop-opacity="0.3974"/>
<stop offset="0.6018" stop-color="#6DCFF6" stop-opacity="0.6011"/>
<stop offset="0.8268" stop-color="#00BBF2" stop-opacity="0.8265"/>
<stop offset="1" stop-color="#00AEEF"/>
</linearGradient>
<linearGradient id="paint14_linear_23_50106" x1="353.939" y1="414.699" x2="704.914" y2="414.699" gradientUnits="userSpaceOnUse">
<stop offset="0.00181378" stop-color="white" stop-opacity="0"/>
<stop offset="0.0866" stop-color="#F3FAFE" stop-opacity="0.0849"/>
<stop offset="0.2245" stop-color="#D9F1FD" stop-opacity="0.2231"/>
<stop offset="0.3985" stop-color="#AFE2FA" stop-opacity="0.3974"/>
<stop offset="0.6018" stop-color="#6DCFF6" stop-opacity="0.6011"/>
<stop offset="0.8268" stop-color="#00BBF2" stop-opacity="0.8265"/>
<stop offset="1" stop-color="#00AEEF"/>
</linearGradient>
<linearGradient id="paint15_linear_23_50106" x1="363.94" y1="404.077" x2="716.153" y2="404.077" gradientUnits="userSpaceOnUse">
<stop offset="0.00181378" stop-color="white" stop-opacity="0"/>
<stop offset="0.0866" stop-color="#F3FAFE" stop-opacity="0.0849"/>
<stop offset="0.2245" stop-color="#D9F1FD" stop-opacity="0.2231"/>
<stop offset="0.3985" stop-color="#AFE2FA" stop-opacity="0.3974"/>
<stop offset="0.6018" stop-color="#6DCFF6" stop-opacity="0.6011"/>
<stop offset="0.8268" stop-color="#00BBF2" stop-opacity="0.8265"/>
<stop offset="1" stop-color="#00AEEF"/>
</linearGradient>
<linearGradient id="paint16_linear_23_50106" x1="374.56" y1="393.458" x2="726.773" y2="393.458" gradientUnits="userSpaceOnUse">
<stop offset="0.00181378" stop-color="white" stop-opacity="0"/>
<stop offset="0.0866" stop-color="#F3FAFE" stop-opacity="0.0849"/>
<stop offset="0.2245" stop-color="#D9F1FD" stop-opacity="0.2231"/>
<stop offset="0.3985" stop-color="#AFE2FA" stop-opacity="0.3974"/>
<stop offset="0.6018" stop-color="#6DCFF6" stop-opacity="0.6011"/>
<stop offset="0.8268" stop-color="#00BBF2" stop-opacity="0.8265"/>
<stop offset="1" stop-color="#00AEEF"/>
</linearGradient>
<linearGradient id="paint17_linear_23_50106" x1="385.8" y1="382.838" x2="736.775" y2="382.838" gradientUnits="userSpaceOnUse">
<stop offset="0.00181378" stop-color="white" stop-opacity="0"/>
<stop offset="0.0866" stop-color="#F3FAFE" stop-opacity="0.0849"/>
<stop offset="0.2245" stop-color="#D9F1FD" stop-opacity="0.2231"/>
<stop offset="0.3985" stop-color="#AFE2FA" stop-opacity="0.3974"/>
<stop offset="0.6018" stop-color="#6DCFF6" stop-opacity="0.6011"/>
<stop offset="0.8268" stop-color="#00BBF2" stop-opacity="0.8265"/>
<stop offset="1" stop-color="#00AEEF"/>
</linearGradient>
<linearGradient id="paint18_linear_23_50106" x1="397.666" y1="372.217" x2="746.146" y2="372.217" gradientUnits="userSpaceOnUse">
<stop offset="0.00181378" stop-color="white" stop-opacity="0"/>
<stop offset="0.0866" stop-color="#F3FAFE" stop-opacity="0.0849"/>
<stop offset="0.2245" stop-color="#D9F1FD" stop-opacity="0.2231"/>
<stop offset="0.3985" stop-color="#AFE2FA" stop-opacity="0.3974"/>
<stop offset="0.6018" stop-color="#6DCFF6" stop-opacity="0.6011"/>
<stop offset="0.8268" stop-color="#00BBF2" stop-opacity="0.8265"/>
<stop offset="1" stop-color="#00AEEF"/>
</linearGradient>
<linearGradient id="paint19_linear_23_50106" x1="410.279" y1="361.597" x2="754.78" y2="361.597" gradientUnits="userSpaceOnUse">
<stop offset="0.00181378" stop-color="white" stop-opacity="0"/>
<stop offset="0.0866" stop-color="#F3FAFE" stop-opacity="0.0849"/>
<stop offset="0.2245" stop-color="#D9F1FD" stop-opacity="0.2231"/>
<stop offset="0.3985" stop-color="#AFE2FA" stop-opacity="0.3974"/>
<stop offset="0.6018" stop-color="#6DCFF6" stop-opacity="0.6011"/>
<stop offset="0.8268" stop-color="#00BBF2" stop-opacity="0.8265"/>
<stop offset="1" stop-color="#00AEEF"/>
</linearGradient>
<linearGradient id="paint20_linear_23_50106" x1="423.558" y1="350.976" x2="762.734" y2="350.976" gradientUnits="userSpaceOnUse">
<stop offset="0.00181378" stop-color="white" stop-opacity="0"/>
<stop offset="0.0866" stop-color="#F3FAFE" stop-opacity="0.0849"/>
<stop offset="0.2245" stop-color="#D9F1FD" stop-opacity="0.2231"/>
<stop offset="0.3985" stop-color="#AFE2FA" stop-opacity="0.3974"/>
<stop offset="0.6018" stop-color="#6DCFF6" stop-opacity="0.6011"/>
<stop offset="0.8268" stop-color="#00BBF2" stop-opacity="0.8265"/>
<stop offset="1" stop-color="#00AEEF"/>
</linearGradient>
<linearGradient id="paint21_linear_23_50106" x1="437.542" y1="340.355" x2="769.998" y2="340.355" gradientUnits="userSpaceOnUse">
<stop offset="0.00181378" stop-color="white" stop-opacity="0"/>
<stop offset="0.0866" stop-color="#F3FAFE" stop-opacity="0.0849"/>
<stop offset="0.2245" stop-color="#D9F1FD" stop-opacity="0.2231"/>
<stop offset="0.3985" stop-color="#AFE2FA" stop-opacity="0.3974"/>
<stop offset="0.6018" stop-color="#6DCFF6" stop-opacity="0.6011"/>
<stop offset="0.8268" stop-color="#00BBF2" stop-opacity="0.8265"/>
<stop offset="1" stop-color="#00AEEF"/>
</linearGradient>
<linearGradient id="paint22_linear_23_50106" x1="452.294" y1="329.735" x2="776.487" y2="329.735" gradientUnits="userSpaceOnUse">
<stop offset="0.00181378" stop-color="white" stop-opacity="0"/>
<stop offset="0.0866" stop-color="#F3FAFE" stop-opacity="0.0849"/>
<stop offset="0.2245" stop-color="#D9F1FD" stop-opacity="0.2231"/>
<stop offset="0.3985" stop-color="#AFE2FA" stop-opacity="0.3974"/>
<stop offset="0.6018" stop-color="#6DCFF6" stop-opacity="0.6011"/>
<stop offset="0.8268" stop-color="#00BBF2" stop-opacity="0.8265"/>
<stop offset="1" stop-color="#00AEEF"/>
</linearGradient>
<linearGradient id="paint23_linear_23_50106" x1="467.936" y1="319.115" x2="782.085" y2="319.115" gradientUnits="userSpaceOnUse">
<stop offset="0.00181378" stop-color="white" stop-opacity="0"/>
<stop offset="0.0866" stop-color="#F3FAFE" stop-opacity="0.0849"/>
<stop offset="0.2245" stop-color="#D9F1FD" stop-opacity="0.2231"/>
<stop offset="0.3985" stop-color="#AFE2FA" stop-opacity="0.3974"/>
<stop offset="0.6018" stop-color="#6DCFF6" stop-opacity="0.6011"/>
<stop offset="0.8268" stop-color="#00BBF2" stop-opacity="0.8265"/>
<stop offset="1" stop-color="#00AEEF"/>
</linearGradient>
<linearGradient id="paint24_linear_23_50106" x1="484.418" y1="308.493" x2="786.844" y2="308.493" gradientUnits="userSpaceOnUse">
<stop offset="0.00181378" stop-color="white" stop-opacity="0"/>
<stop offset="0.0866" stop-color="#F3FAFE" stop-opacity="0.0849"/>
<stop offset="0.2245" stop-color="#D9F1FD" stop-opacity="0.2231"/>
<stop offset="0.3985" stop-color="#AFE2FA" stop-opacity="0.3974"/>
<stop offset="0.6018" stop-color="#6DCFF6" stop-opacity="0.6011"/>
<stop offset="0.8268" stop-color="#00BBF2" stop-opacity="0.8265"/>
<stop offset="1" stop-color="#00AEEF"/>
</linearGradient>
<linearGradient id="paint25_linear_23_50106" x1="502.011" y1="297.874" x2="790.488" y2="297.874" gradientUnits="userSpaceOnUse">
<stop offset="0.00181378" stop-color="white" stop-opacity="0"/>
<stop offset="0.0866" stop-color="#F3FAFE" stop-opacity="0.0849"/>
<stop offset="0.2245" stop-color="#D9F1FD" stop-opacity="0.2231"/>
<stop offset="0.3985" stop-color="#AFE2FA" stop-opacity="0.3974"/>
<stop offset="0.6018" stop-color="#6DCFF6" stop-opacity="0.6011"/>
<stop offset="0.8268" stop-color="#00BBF2" stop-opacity="0.8265"/>
<stop offset="1" stop-color="#00AEEF"/>
</linearGradient>
<linearGradient id="paint26_linear_23_50106" x1="520.689" y1="287.254" x2="793.051" y2="287.254" gradientUnits="userSpaceOnUse">
<stop offset="0.00181378" stop-color="white" stop-opacity="0"/>
<stop offset="0.0866" stop-color="#F3FAFE" stop-opacity="0.0849"/>
<stop offset="0.2245" stop-color="#D9F1FD" stop-opacity="0.2231"/>
<stop offset="0.3985" stop-color="#AFE2FA" stop-opacity="0.3974"/>
<stop offset="0.6018" stop-color="#6DCFF6" stop-opacity="0.6011"/>
<stop offset="0.8268" stop-color="#00BBF2" stop-opacity="0.8265"/>
<stop offset="1" stop-color="#00AEEF"/>
</linearGradient>
<linearGradient id="paint27_linear_23_50106" x1="540.883" y1="276.635" x2="794.097" y2="276.635" gradientUnits="userSpaceOnUse">
<stop offset="0.00181378" stop-color="white" stop-opacity="0"/>
<stop offset="0.0866" stop-color="#F3FAFE" stop-opacity="0.0849"/>
<stop offset="0.2245" stop-color="#D9F1FD" stop-opacity="0.2231"/>
<stop offset="0.3985" stop-color="#AFE2FA" stop-opacity="0.3974"/>
<stop offset="0.6018" stop-color="#6DCFF6" stop-opacity="0.6011"/>
<stop offset="0.8268" stop-color="#00BBF2" stop-opacity="0.8265"/>
<stop offset="1" stop-color="#00AEEF"/>
</linearGradient>
<linearGradient id="paint28_linear_23_50106" x1="562.8" y1="266.013" x2="793.428" y2="266.013" gradientUnits="userSpaceOnUse">
<stop offset="0.00181378" stop-color="white" stop-opacity="0"/>
<stop offset="0.0866" stop-color="#F3FAFE" stop-opacity="0.0849"/>
<stop offset="0.2245" stop-color="#D9F1FD" stop-opacity="0.2231"/>
<stop offset="0.3985" stop-color="#AFE2FA" stop-opacity="0.3974"/>
<stop offset="0.6018" stop-color="#6DCFF6" stop-opacity="0.6011"/>
<stop offset="0.8268" stop-color="#00BBF2" stop-opacity="0.8265"/>
<stop offset="1" stop-color="#00AEEF"/>
</linearGradient>
<linearGradient id="paint29_linear_23_50106" x1="587.037" y1="255.393" x2="790.431" y2="255.393" gradientUnits="userSpaceOnUse">
<stop offset="0.00181378" stop-color="white" stop-opacity="0"/>
<stop offset="0.0866" stop-color="#F3FAFE" stop-opacity="0.0849"/>
<stop offset="0.2245" stop-color="#D9F1FD" stop-opacity="0.2231"/>
<stop offset="0.3985" stop-color="#AFE2FA" stop-opacity="0.3974"/>
<stop offset="0.6018" stop-color="#6DCFF6" stop-opacity="0.6011"/>
<stop offset="0.8268" stop-color="#00BBF2" stop-opacity="0.8265"/>
<stop offset="1" stop-color="#00AEEF"/>
</linearGradient>
<linearGradient id="paint30_linear_23_50106" x1="614.67" y1="244.771" x2="784.039" y2="244.771" gradientUnits="userSpaceOnUse">
<stop offset="0.00181378" stop-color="white" stop-opacity="0"/>
<stop offset="0.0866" stop-color="#F3FAFE" stop-opacity="0.0849"/>
<stop offset="0.2245" stop-color="#D9F1FD" stop-opacity="0.2231"/>
<stop offset="0.3985" stop-color="#AFE2FA" stop-opacity="0.3974"/>
<stop offset="0.6018" stop-color="#6DCFF6" stop-opacity="0.6011"/>
<stop offset="0.8268" stop-color="#00BBF2" stop-opacity="0.8265"/>
<stop offset="1" stop-color="#00AEEF"/>
</linearGradient>
<linearGradient id="paint31_linear_23_50106" x1="648.759" y1="234.153" x2="771.19" y2="234.153" gradientUnits="userSpaceOnUse">
<stop offset="0.00181378" stop-color="white" stop-opacity="0"/>
<stop offset="0.0866" stop-color="#F3FAFE" stop-opacity="0.0849"/>
<stop offset="0.2245" stop-color="#D9F1FD" stop-opacity="0.2231"/>
<stop offset="0.3985" stop-color="#AFE2FA" stop-opacity="0.3974"/>
<stop offset="0.6018" stop-color="#6DCFF6" stop-opacity="0.6011"/>
<stop offset="0.8268" stop-color="#00BBF2" stop-opacity="0.8265"/>
<stop offset="1" stop-color="#00AEEF"/>
</linearGradient>
</defs>
</svg>
