<svg width="761" height="650" viewBox="0 0 761 650" fill="none" xmlns="http://www.w3.org/2000/svg">
<path d="M353.92 24.0482L473.75 145.099C473.8 145.149 473.8 145.238 473.75 145.288C473.7 145.338 473.61 145.338 473.56 145.288L352.51 25.4584C352.12 25.0684 352.11 24.4382 352.5 24.0482C352.89 23.6582 353.52 23.6482 353.92 24.0482Z" fill="url(#paint0_linear_23_50105)"/>
<path d="M319.84 11.2102L486.6 179.19C486.65 179.24 486.65 179.33 486.6 179.38C486.55 179.43 486.46 179.43 486.41 179.38L318.43 12.6203C318.04 12.2303 318.04 11.6002 318.42 11.2102C318.8 10.8102 319.44 10.8102 319.84 11.2102Z" fill="url(#paint1_linear_23_50105)"/>
<path d="M292.21 4.80812L492.99 206.808C493.04 206.858 493.04 206.948 492.99 206.998C492.94 207.048 492.85 207.048 492.8 206.998L290.8 6.21828C290.41 5.82828 290.41 5.19812 290.8 4.80812C291.18 4.41813 291.81 4.41813 292.21 4.80812Z" fill="url(#paint2_linear_23_50105)"/>
<path d="M267.96 1.80812L495.99 231.058C496.04 231.108 496.04 231.198 495.99 231.248C495.94 231.298 495.85 231.298 495.8 231.248L266.55 3.21828C266.16 2.82828 266.16 2.19812 266.55 1.80812C266.93 1.41813 267.56 1.41813 267.96 1.80812Z" fill="url(#paint3_linear_23_50105)"/>
<path d="M246.05 1.13923L496.66 252.969C496.71 253.019 496.71 253.109 496.66 253.159C496.61 253.209 496.52 253.209 496.47 253.159L244.64 2.55915C244.25 2.16915 244.25 1.53899 244.64 1.14899C245.03 0.758991 245.65 0.749226 246.05 1.13923Z" fill="url(#paint4_linear_23_50105)"/>
<path d="M225.86 2.18884L495.61 273.159C495.66 273.209 495.66 273.299 495.61 273.349C495.56 273.399 495.47 273.399 495.42 273.349L224.45 3.599C224.06 3.209 224.06 2.57884 224.45 2.18884C224.83 1.79884 225.47 1.78884 225.86 2.18884Z" fill="url(#paint5_linear_23_50105)"/>
<path d="M492.85 292.029L205.77 6.16945C205.38 5.77945 205.38 5.1493 205.77 4.7593C206.16 4.3693 206.79 4.3693 207.18 4.7593L493.04 291.839C493.09 291.889 493.09 291.979 493.04 292.029C492.99 292.079 492.9 292.079 492.85 292.029Z" fill="url(#paint6_linear_23_50105)"/>
<path d="M189.59 8.39797L489.4 309.428C489.45 309.478 489.45 309.568 489.4 309.618C489.35 309.668 489.26 309.668 489.21 309.618L188.18 9.80813C187.79 9.41813 187.79 8.78797 188.18 8.39797C188.56 8.00797 189.19 8.00797 189.59 8.39797Z" fill="url(#paint7_linear_23_50105)"/>
<path d="M173.1 13.1597L484.64 325.919C484.69 325.969 484.69 326.059 484.64 326.109C484.59 326.159 484.5 326.159 484.45 326.109L171.69 14.5694C171.3 14.1794 171.3 13.5497 171.69 13.1597C172.07 12.7697 172.71 12.7697 173.1 13.1597Z" fill="url(#paint8_linear_23_50105)"/>
<path d="M157.46 18.7593L479.04 341.56C479.09 341.61 479.09 341.7 479.04 341.75C478.99 341.8 478.9 341.8 478.85 341.75L156.05 20.1695C155.66 19.7795 155.66 19.1493 156.05 18.7593C156.44 18.3693 157.07 18.3693 157.46 18.7593Z" fill="url(#paint9_linear_23_50105)"/>
<path d="M142.71 25.2481L472.56 356.318C472.61 356.368 472.61 356.458 472.56 356.508C472.51 356.558 472.42 356.558 472.37 356.508L141.3 26.668C140.91 26.278 140.91 25.6479 141.3 25.2579C141.68 24.8479 142.31 24.8481 142.71 25.2481Z" fill="url(#paint10_linear_23_50105)"/>
<path d="M128.73 32.5093L465.29 370.29C465.34 370.34 465.34 370.43 465.29 370.48C465.24 370.53 465.15 370.53 465.1 370.48L127.32 33.9195C126.93 33.5295 126.93 32.8993 127.32 32.5093C127.7 32.1193 128.33 32.1193 128.73 32.5093Z" fill="url(#paint11_linear_23_50105)"/>
<path d="M115.44 40.4693L457.33 383.579C457.38 383.629 457.38 383.719 457.33 383.769C457.28 383.819 457.19 383.819 457.14 383.769L114.03 41.8892C113.64 41.4992 113.64 40.8691 114.03 40.4791C114.42 40.0891 115.05 40.0793 115.44 40.4693Z" fill="url(#paint12_linear_23_50105)"/>
<path d="M102.84 49.0988L448.71 396.179C448.76 396.229 448.76 396.319 448.71 396.369C448.66 396.419 448.57 396.419 448.52 396.369L101.43 50.5085C101.04 50.1185 101.04 49.4888 101.43 49.0988C101.81 48.6988 102.44 48.6988 102.84 49.0988Z" fill="url(#paint13_linear_23_50105)"/>
<path d="M90.9702 58.4683L439.33 408.048C439.38 408.098 439.38 408.188 439.33 408.238C439.28 408.288 439.19 408.288 439.14 408.238L89.5503 59.8779C89.1603 59.4879 89.1603 58.8583 89.5503 58.4683C89.9403 58.0783 90.5702 58.0783 90.9702 58.4683Z" fill="url(#paint14_linear_23_50105)"/>
<path d="M79.7301 68.4797L429.33 419.299C429.38 419.349 429.38 419.44 429.33 419.49C429.28 419.54 429.19 419.54 429.14 419.49L78.3201 69.8898C77.9301 69.4998 77.9301 68.8697 78.3201 68.4797C78.7001 68.0797 79.3301 68.0797 79.7301 68.4797Z" fill="url(#paint15_linear_23_50105)"/>
<path d="M69.1102 79.0894L418.71 429.91C418.76 429.96 418.76 430.05 418.71 430.1C418.66 430.15 418.57 430.15 418.52 430.1L67.7002 80.4995C67.3102 80.1095 67.3102 79.4794 67.7002 79.0894C68.0902 78.6994 68.7102 78.6994 69.1102 79.0894Z" fill="url(#paint16_linear_23_50105)"/>
<path d="M59.1002 90.3296L407.46 439.91C407.51 439.96 407.51 440.05 407.46 440.1C407.41 440.15 407.32 440.15 407.27 440.1L57.6802 91.7398C57.2902 91.3498 57.2902 90.7196 57.6802 90.3296C58.0802 89.9396 58.7102 89.9396 59.1002 90.3296Z" fill="url(#paint17_linear_23_50105)"/>
<path d="M49.7301 102.199L395.6 449.278C395.65 449.328 395.65 449.419 395.6 449.469C395.55 449.519 395.46 449.519 395.41 449.469L48.3201 103.608C47.9301 103.218 47.9301 102.589 48.3201 102.199C48.7101 101.809 49.3401 101.809 49.7301 102.199Z" fill="url(#paint18_linear_23_50105)"/>
<path d="M41.1002 114.808L382.99 457.918C383.04 457.968 383.04 458.058 382.99 458.108C382.94 458.158 382.85 458.158 382.8 458.108L39.6902 116.218C39.3002 115.828 39.3002 115.198 39.6902 114.808C40.0802 114.418 40.7102 114.418 41.1002 114.808Z" fill="url(#paint19_linear_23_50105)"/>
<path d="M33.14 128.089L369.71 465.87C369.76 465.92 369.76 466.01 369.71 466.06C369.66 466.11 369.57 466.11 369.52 466.06L31.73 129.5C31.34 129.11 31.34 128.479 31.73 128.089C32.12 127.699 32.75 127.699 33.14 128.089Z" fill="url(#paint20_linear_23_50105)"/>
<path d="M25.8803 142.068L355.73 473.139C355.78 473.189 355.78 473.279 355.73 473.329C355.68 473.379 355.59 473.379 355.54 473.329L24.4702 143.489C24.0802 143.099 24.0802 142.469 24.4702 142.079C24.8502 141.679 25.4903 141.678 25.8803 142.068Z" fill="url(#paint21_linear_23_50105)"/>
<path d="M19.39 156.82L340.97 479.62C341.02 479.67 341.02 479.76 340.97 479.81C340.92 479.86 340.83 479.86 340.78 479.81L17.98 158.23C17.59 157.84 17.59 157.21 17.98 156.82C18.37 156.43 19 156.43 19.39 156.82Z" fill="url(#paint22_linear_23_50105)"/>
<path d="M13.7901 172.468L325.33 485.228C325.38 485.278 325.38 485.368 325.33 485.418C325.28 485.468 325.19 485.468 325.14 485.418L12.3801 173.878C11.9901 173.488 11.9901 172.858 12.3801 172.468C12.7701 172.078 13.4001 172.068 13.7901 172.468Z" fill="url(#paint23_linear_23_50105)"/>
<path d="M9.04012 188.949L308.85 489.979C308.9 490.029 308.9 490.118 308.85 490.168C308.8 490.218 308.71 490.218 308.66 490.168L7.62014 190.358C7.23014 189.968 7.23014 189.339 7.62014 188.949C8.01014 188.559 8.64012 188.559 9.04012 188.949Z" fill="url(#paint24_linear_23_50105)"/>
<path d="M5.39003 206.539L291.26 493.619C291.31 493.669 291.31 493.759 291.26 493.809C291.21 493.859 291.12 493.859 291.07 493.809L3.98 207.949C3.59 207.559 3.59 206.929 3.98 206.539C4.36 206.149 5.00003 206.149 5.39003 206.539Z" fill="url(#paint25_linear_23_50105)"/>
<path d="M2.83022 225.218L272.58 496.188C272.63 496.238 272.63 496.328 272.58 496.378C272.53 496.428 272.44 496.428 272.39 496.378L1.42019 226.628C1.03019 226.238 1.03019 225.608 1.42019 225.218C1.80019 224.828 2.43022 224.828 2.83022 225.218Z" fill="url(#paint26_linear_23_50105)"/>
<path d="M1.78017 245.409L252.38 497.239C252.43 497.289 252.43 497.379 252.38 497.429C252.33 497.479 252.24 497.479 252.19 497.429L0.370137 246.829C-0.0198633 246.439 -0.0198633 245.809 0.370137 245.419C0.760137 245.029 1.39017 245.019 1.78017 245.409Z" fill="url(#paint27_linear_23_50105)"/>
<path d="M2.45009 267.33L230.47 496.569C230.52 496.619 230.52 496.709 230.47 496.759C230.42 496.809 230.33 496.809 230.28 496.759L1.04006 268.74C0.650059 268.35 0.650059 267.72 1.04006 267.33C1.43006 266.94 2.06009 266.94 2.45009 267.33Z" fill="url(#paint28_linear_23_50105)"/>
<path d="M5.45009 291.57L206.23 493.57C206.28 493.62 206.28 493.709 206.23 493.759C206.18 493.809 206.09 493.809 206.04 493.759L4.04006 292.98C3.65006 292.59 3.65006 291.96 4.04006 291.57C4.42006 291.17 5.05009 291.17 5.45009 291.57Z" fill="url(#paint29_linear_23_50105)"/>
<path d="M11.84 319.199L178.6 487.179C178.65 487.229 178.65 487.319 178.6 487.369C178.55 487.419 178.46 487.419 178.41 487.369L10.43 320.608C10.04 320.218 10.04 319.589 10.42 319.199C10.81 318.809 11.44 318.809 11.84 319.199Z" fill="url(#paint30_linear_23_50105)"/>
<path d="M24.6902 353.288L144.51 474.328C144.56 474.378 144.56 474.468 144.51 474.518C144.46 474.568 144.37 474.568 144.32 474.518L23.2702 354.699C22.8802 354.309 22.8702 353.678 23.2602 353.288C23.6602 352.898 24.2902 352.888 24.6902 353.288Z" fill="url(#paint31_linear_23_50105)"/>
<path d="M740.33 649.589H427.61C416.56 649.589 407.61 640.639 407.61 629.589V285.119H760.33V629.589C760.33 640.639 751.37 649.589 740.33 649.589Z" fill="#F1F0F0"/>
<path d="M464.305 414.819C466.528 405.408 460.7 395.977 451.288 393.755C441.877 391.532 432.446 397.36 430.224 406.772C428.002 416.183 433.829 425.614 443.241 427.836C452.652 430.059 462.083 424.231 464.305 414.819Z" fill="#BCBEC0"/>
<path d="M654.26 395.299H485.47V401.339H654.26V395.299Z" fill="#BCBEC0"/>
<path d="M607.4 409.91H485.47V414.98H607.4V409.91Z" fill="#BCBEC0"/>
<path d="M708.86 409.91H619.08V414.98H708.86V409.91Z" fill="#BCBEC0"/>
<path d="M569.87 423.059H485.47V428.128H569.87V423.059Z" fill="#BCBEC0"/>
<path d="M664.96 423.059H580.56V428.128H664.96V423.059Z" fill="#BCBEC0"/>
<path d="M636.75 436.219H485.47V441.289H636.75V436.219Z" fill="#BCBEC0"/>
<path d="M708.86 436.219H648.69V441.289H708.86V436.219Z" fill="#BCBEC0"/>
<path d="M568.08 521.049C568.08 547.859 551.78 570.929 528.52 580.819L503.14 521.049H568.08Z" fill="#662D91"/>
<path d="M494.84 516.59L520.22 576.36C520.16 576.36 520.16 576.42 520.1 576.42C518.11 577.23 516.12 577.981 514.13 578.601C507.85 580.531 501.38 581.521 494.85 581.521C488.13 581.521 481.66 580.461 475.57 578.601C455.23 572.261 439.18 556.211 432.9 535.871C431.03 529.771 429.98 523.31 429.98 516.59C429.98 509.87 431.04 503.401 432.9 497.311C439.18 476.971 455.23 460.921 475.57 454.641C481.67 452.771 488.13 451.721 494.85 451.721C501.57 451.721 508.04 452.781 514.13 454.641C534.53 460.921 550.51 476.971 556.86 497.311C558.73 503.411 559.78 509.87 559.78 516.59H494.84Z" fill="#FFC829"/>
<path d="M494.84 516.59L520.22 576.36C520.16 576.36 520.16 576.42 520.1 576.42C518.11 577.23 516.12 577.981 514.13 578.601C507.85 580.531 501.38 581.521 494.85 581.521C488.13 581.521 481.66 580.461 475.57 578.601C455.36 572.191 439.31 556.091 432.9 535.871C431.03 529.771 429.98 523.31 429.98 516.59C429.98 509.87 431.04 503.401 432.9 497.311C439.31 477.101 455.35 461.051 475.57 454.641C481.67 452.771 488.13 451.721 494.85 451.721C501.57 451.721 508.04 452.781 514.13 454.641C534.34 461.051 550.45 477.091 556.86 497.311C558.73 503.411 559.78 509.87 559.78 516.59H494.84Z" fill="#9290C7"/>
<path d="M494.86 516.61L452.56 565.82C438.23 553.5 429.97 535.51 429.97 516.61C429.97 481.01 459.26 451.721 494.86 451.721C530.46 451.721 559.75 481.01 559.75 516.61H494.86Z" fill="#504FA1"/>
<path d="M601.65 602.61H552.62L491.9 541.89L492.78 541L553.14 601.36H601.65V602.61Z" fill="#263238"/>
<path d="M495.76 538.029H488.93V544.859H495.76V538.029Z" fill="#263238"/>
<path d="M601.65 555.629H546.39L520.16 529.399L521.05 528.52L546.91 554.379H601.65V555.629Z" fill="#263238"/>
<path d="M524.02 525.549H517.19V532.379H524.02V525.549Z" fill="#263238"/>
<path d="M601.65 509.141H518.1V510.391H601.65V509.141Z" fill="#263238"/>
<path d="M520.61 506.359H513.78V513.189H520.61V506.359Z" fill="#263238"/>
<path d="M704.87 502.92H644.17V508.57H704.87V502.92Z" fill="#BCBEC0"/>
<path d="M722.93 514.711H644.17V520.361H722.93V514.711Z" fill="#BCBEC0"/>
<path d="M686.27 526.5H644.17V532.15H686.27V526.5Z" fill="#BCBEC0"/>
<path d="M632.01 502.92H618.31V516.62H632.01V502.92Z" fill="#BCBEC0"/>
<path d="M712.25 548.539H644.17V554.189H712.25V548.539Z" fill="#662D91"/>
<path d="M700.95 560.328H644.17V565.978H700.95V560.328Z" fill="#662D91"/>
<path d="M722.93 572.129H644.17V577.779H722.93V572.129Z" fill="#662D91"/>
<path d="M632.01 548.539H618.31V562.239H632.01V548.539Z" fill="#662D91"/>
<path d="M712.25 594.16H644.17V599.81H712.25V594.16Z" fill="#BCBEC0"/>
<path d="M700.95 605.949H644.17V611.599H700.95V605.949Z" fill="#BCBEC0"/>
<path d="M722.93 617.75H644.17V623.4H722.93V617.75Z" fill="#BCBEC0"/>
<path d="M632.01 594.16H618.31V607.86H632.01V594.16Z" fill="#BCBEC0"/>
<path d="M431.047 343.428V327.706H434.961L439.623 335.6L440.7 337.601H440.744C440.715 336.34 440.7 335.526 440.7 335.16V327.706H444.504V343.428H440.59L435.973 335.644L434.851 333.533H434.807C434.837 334.881 434.851 335.739 434.851 336.105V343.428H431.047ZM451.936 343.758C450.118 343.758 448.66 343.201 447.56 342.086C446.475 340.958 445.933 339.521 445.933 337.777C445.933 336.076 446.468 334.661 447.538 333.533C448.623 332.404 450.016 331.84 451.716 331.84C453.255 331.84 454.538 332.309 455.564 333.247C456.913 334.478 457.572 336.303 457.543 338.722H449.451C449.568 339.499 449.84 340.107 450.265 340.547C450.69 340.972 451.262 341.185 451.98 341.185C452.903 341.185 453.526 340.811 453.849 340.063H457.345C457.081 341.148 456.451 342.035 455.454 342.724C454.472 343.413 453.299 343.758 451.936 343.758ZM449.473 336.589H453.915C453.856 335.915 453.629 335.38 453.233 334.984C452.852 334.588 452.368 334.39 451.782 334.39C450.507 334.39 449.737 335.123 449.473 336.589ZM462.481 340.305C462.892 340.921 463.478 341.229 464.24 341.229C465.003 341.229 465.589 340.921 465.999 340.305C466.425 339.69 466.637 338.861 466.637 337.821C466.637 336.78 466.425 335.951 465.999 335.336C465.589 334.705 465.003 334.39 464.24 334.39C463.478 334.39 462.892 334.698 462.481 335.314C462.071 335.929 461.865 336.765 461.865 337.821C461.865 338.861 462.071 339.69 462.481 340.305ZM468.594 342.086C467.495 343.215 466.051 343.78 464.262 343.78C462.474 343.78 461.023 343.215 459.908 342.086C458.794 340.958 458.237 339.536 458.237 337.821C458.237 336.105 458.794 334.683 459.908 333.555C461.023 332.426 462.474 331.862 464.262 331.862C466.051 331.862 467.495 332.426 468.594 333.555C469.708 334.683 470.265 336.105 470.265 337.821C470.265 339.536 469.708 340.958 468.594 342.086ZM471.697 343.428V327.706H478.777C480.624 327.706 482.054 328.189 483.065 329.157C484.121 330.139 484.648 331.429 484.648 333.027C484.648 334.552 484.157 335.79 483.175 336.743C482.208 337.696 480.925 338.172 479.327 338.172H475.655V343.428H471.697ZM475.655 335.094H478.535C479.224 335.094 479.759 334.903 480.141 334.522C480.536 334.141 480.734 333.635 480.734 333.005C480.734 332.375 480.536 331.884 480.141 331.532C479.759 331.165 479.224 330.982 478.535 330.982H475.655V335.094ZM488.583 343.714C487.425 343.714 486.494 343.413 485.791 342.812C485.087 342.211 484.735 341.368 484.735 340.283C484.735 339.14 485.116 338.312 485.879 337.799C486.641 337.271 487.696 336.919 489.045 336.743C490.145 336.611 490.892 336.465 491.288 336.303C491.698 336.127 491.904 335.856 491.904 335.49C491.904 334.683 491.391 334.28 490.364 334.28C489.265 334.28 488.657 334.764 488.539 335.732H485.241C485.285 334.617 485.739 333.694 486.604 332.961C487.484 332.228 488.73 331.862 490.342 331.862C491.955 331.862 493.172 332.169 493.993 332.785C494.945 333.474 495.422 334.544 495.422 335.995V341.669C495.422 342.563 495.554 343.098 495.818 343.274V343.428H492.343C492.197 343.223 492.072 342.805 491.97 342.174H491.926C491.207 343.201 490.093 343.714 488.583 343.714ZM489.727 341.427C490.401 341.427 490.943 341.243 491.354 340.877C491.779 340.496 491.992 340.005 491.992 339.404V338.062C491.64 338.238 491.024 338.436 490.145 338.656C489.426 338.817 488.92 339.008 488.627 339.228C488.334 339.448 488.187 339.763 488.187 340.173C488.187 341.009 488.701 341.427 489.727 341.427ZM501.408 343.56C500.265 343.56 499.378 343.332 498.748 342.878C498.132 342.409 497.824 341.603 497.824 340.459V334.412H496.329V332.169H497.824V328.607H501.32V332.169H503.365V334.412H501.32V339.69C501.32 340.1 501.423 340.386 501.628 340.547C501.848 340.708 502.163 340.789 502.574 340.789C502.691 340.789 502.845 340.789 503.036 340.789C503.226 340.774 503.336 340.767 503.365 340.767V343.384C502.955 343.501 502.303 343.56 501.408 343.56ZM504.654 343.428V327.706H508.238V333.555H508.304C509.169 332.411 510.283 331.84 511.646 331.84C512.863 331.84 513.816 332.235 514.505 333.027C515.208 333.804 515.56 334.83 515.56 336.105V343.428H511.976V336.831C511.976 336.215 511.822 335.732 511.514 335.38C511.221 335.013 510.789 334.83 510.217 334.83C509.63 334.83 509.154 335.05 508.788 335.49C508.421 335.929 508.238 336.501 508.238 337.205V343.428H504.654ZM519.729 343.428L525.38 327.706H529.382L535.055 343.428H530.965L530.042 340.591H524.545L523.643 343.428H519.729ZM525.446 337.799H529.14L527.953 333.994L527.337 331.774H527.293C527.044 332.712 526.831 333.452 526.656 333.994L525.446 337.799ZM536.183 343.428V327.706H540.075V343.428H536.183Z" fill="#414042"/>
<path d="M431.047 367.428V351.706H438.567C440.18 351.706 441.499 352.109 442.525 352.915C443.552 353.707 444.065 354.813 444.065 356.235C444.065 358.141 443.156 359.409 441.338 360.039V360.105C442.657 360.545 443.42 361.505 443.625 362.986C443.713 363.499 443.771 364.137 443.801 364.899C443.845 365.647 443.896 366.211 443.955 366.592C444.013 366.959 444.123 367.171 444.285 367.23V367.428H440.502C440.385 367.354 440.29 367.142 440.217 366.79C440.158 366.438 440.107 365.94 440.063 365.295C440.019 364.65 439.967 364.144 439.909 363.778C439.704 362.282 438.831 361.535 437.292 361.535H434.939V367.428H431.047ZM434.939 358.654H437.864C438.626 358.654 439.205 358.486 439.601 358.148C439.997 357.811 440.195 357.342 440.195 356.741C440.195 356.155 440.004 355.686 439.623 355.334C439.242 354.967 438.685 354.784 437.952 354.784H434.939V358.654ZM450.97 367.758C449.152 367.758 447.693 367.201 446.594 366.086C445.509 364.958 444.967 363.521 444.967 361.777C444.967 360.076 445.502 358.661 446.572 357.533C447.657 356.404 449.049 355.84 450.75 355.84C452.289 355.84 453.572 356.309 454.598 357.247C455.946 358.478 456.606 360.303 456.577 362.722H448.485C448.602 363.499 448.873 364.107 449.298 364.547C449.724 364.972 450.295 365.185 451.014 365.185C451.937 365.185 452.56 364.811 452.883 364.063H456.379C456.115 365.148 455.485 366.035 454.488 366.724C453.506 367.413 452.333 367.758 450.97 367.758ZM448.507 360.589H452.949C452.89 359.915 452.663 359.38 452.267 358.984C451.886 358.588 451.402 358.39 450.816 358.39C449.54 358.39 448.771 359.123 448.507 360.589ZM462.57 367.78C460.928 367.78 459.616 367.428 458.634 366.724C457.667 366.006 457.154 365.024 457.095 363.778H460.481C460.613 364.892 461.302 365.449 462.548 365.449C463.091 365.449 463.516 365.353 463.824 365.163C464.146 364.958 464.307 364.679 464.307 364.327C464.307 364.21 464.293 364.107 464.263 364.019C464.234 363.931 464.183 363.851 464.11 363.778C464.036 363.704 463.963 363.638 463.89 363.58C463.831 363.521 463.736 363.47 463.604 363.426C463.472 363.367 463.355 363.323 463.252 363.294C463.164 363.264 463.025 363.235 462.834 363.206C462.658 363.162 462.519 363.133 462.416 363.118C462.314 363.089 462.153 363.059 461.933 363.03C461.713 362.986 461.551 362.957 461.449 362.942C460.98 362.869 460.584 362.795 460.261 362.722C459.939 362.634 459.58 362.502 459.184 362.326C458.803 362.15 458.488 361.952 458.238 361.733C458.004 361.498 457.806 361.19 457.645 360.809C457.484 360.413 457.403 359.959 457.403 359.446C457.403 358.302 457.865 357.415 458.788 356.785C459.712 356.155 460.87 355.84 462.262 355.84C463.831 355.84 465.048 356.162 465.913 356.807C466.778 357.437 467.254 358.317 467.342 359.446H464.044C463.926 358.566 463.325 358.126 462.24 358.126C461.771 358.126 461.39 358.214 461.097 358.39C460.819 358.566 460.679 358.823 460.679 359.16C460.679 359.248 460.694 359.328 460.723 359.402C460.753 359.475 460.797 359.541 460.855 359.6C460.928 359.658 460.994 359.71 461.053 359.754C461.126 359.798 461.222 359.842 461.339 359.886C461.456 359.929 461.559 359.966 461.647 359.995C461.749 360.025 461.881 360.054 462.043 360.083C462.218 360.113 462.358 360.142 462.46 360.171C462.578 360.186 462.732 360.215 462.922 360.259C463.113 360.289 463.267 360.311 463.384 360.325C463.882 360.413 464.293 360.494 464.615 360.567C464.938 360.64 465.312 360.772 465.737 360.963C466.177 361.139 466.521 361.351 466.77 361.601C467.019 361.835 467.232 362.165 467.408 362.59C467.598 363.001 467.694 363.484 467.694 364.041C467.694 365.243 467.217 366.167 466.264 366.812C465.326 367.457 464.095 367.78 462.57 367.78ZM468.857 371.144V356.169H472.287V357.533H472.353C473.218 356.404 474.354 355.84 475.762 355.84C477.228 355.84 478.393 356.404 479.258 357.533C480.137 358.647 480.577 360.069 480.577 361.799C480.577 363.616 480.13 365.068 479.236 366.152C478.342 367.237 477.154 367.78 475.674 367.78C474.296 367.78 473.233 367.274 472.485 366.262H472.441V371.144H468.857ZM474.75 365.009C475.439 365.009 475.974 364.738 476.355 364.195C476.751 363.638 476.949 362.883 476.949 361.93C476.949 360.934 476.758 360.149 476.377 359.578C475.996 359.006 475.432 358.72 474.684 358.72C473.937 358.72 473.358 359.021 472.947 359.622C472.537 360.208 472.331 360.978 472.331 361.93C472.331 362.854 472.544 363.602 472.969 364.173C473.394 364.73 473.988 365.009 474.75 365.009ZM485.522 364.305C485.933 364.921 486.519 365.229 487.281 365.229C488.044 365.229 488.63 364.921 489.041 364.305C489.466 363.69 489.678 362.861 489.678 361.821C489.678 360.78 489.466 359.951 489.041 359.336C488.63 358.705 488.044 358.39 487.281 358.39C486.519 358.39 485.933 358.698 485.522 359.314C485.112 359.929 484.907 360.765 484.907 361.821C484.907 362.861 485.112 363.69 485.522 364.305ZM491.635 366.086C490.536 367.215 489.092 367.78 487.303 367.78C485.515 367.78 484.064 367.215 482.95 366.086C481.836 364.958 481.278 363.536 481.278 361.821C481.278 360.105 481.836 358.683 482.95 357.555C484.064 356.426 485.515 355.862 487.303 355.862C489.092 355.862 490.536 356.426 491.635 357.555C492.749 358.683 493.306 360.105 493.306 361.821C493.306 363.536 492.749 364.958 491.635 366.086ZM494.518 367.428V356.169H497.97V357.709H498.036C498.901 356.463 500.059 355.84 501.511 355.84C502.727 355.84 503.68 356.235 504.369 357.027C505.073 357.804 505.425 358.83 505.425 360.105V367.428H501.84V360.831C501.84 360.215 501.686 359.732 501.379 359.38C501.085 359.013 500.653 358.83 500.081 358.83C499.495 358.83 499.018 359.05 498.652 359.49C498.286 359.929 498.102 360.501 498.102 361.205V367.428H494.518ZM511.852 367.78C510.21 367.78 508.898 367.428 507.916 366.724C506.949 366.006 506.436 365.024 506.377 363.778H509.763C509.895 364.892 510.584 365.449 511.83 365.449C512.373 365.449 512.798 365.353 513.106 365.163C513.428 364.958 513.589 364.679 513.589 364.327C513.589 364.21 513.575 364.107 513.545 364.019C513.516 363.931 513.465 363.851 513.392 363.778C513.318 363.704 513.245 363.638 513.172 363.58C513.113 363.521 513.018 363.47 512.886 363.426C512.754 363.367 512.637 363.323 512.534 363.294C512.446 363.264 512.307 363.235 512.116 363.206C511.94 363.162 511.801 363.133 511.698 363.118C511.596 363.089 511.434 363.059 511.215 363.03C510.995 362.986 510.833 362.957 510.731 362.942C510.262 362.869 509.866 362.795 509.543 362.722C509.221 362.634 508.862 362.502 508.466 362.326C508.085 362.15 507.77 361.952 507.52 361.733C507.286 361.498 507.088 361.19 506.927 360.809C506.765 360.413 506.685 359.959 506.685 359.446C506.685 358.302 507.147 357.415 508.07 356.785C508.994 356.155 510.152 355.84 511.544 355.84C513.113 355.84 514.33 356.162 515.195 356.807C516.06 357.437 516.536 358.317 516.624 359.446H513.326C513.208 358.566 512.607 358.126 511.522 358.126C511.053 358.126 510.672 358.214 510.379 358.39C510.1 358.566 509.961 358.823 509.961 359.16C509.961 359.248 509.976 359.328 510.005 359.402C510.035 359.475 510.079 359.541 510.137 359.6C510.21 359.658 510.276 359.71 510.335 359.754C510.408 359.798 510.504 359.842 510.621 359.886C510.738 359.929 510.841 359.966 510.929 359.995C511.031 360.025 511.163 360.054 511.325 360.083C511.5 360.113 511.64 360.142 511.742 360.171C511.86 360.186 512.014 360.215 512.204 360.259C512.395 360.289 512.549 360.311 512.666 360.325C513.164 360.413 513.575 360.494 513.897 360.567C514.22 360.64 514.594 360.772 515.019 360.963C515.458 361.139 515.803 361.351 516.052 361.601C516.301 361.835 516.514 362.165 516.69 362.59C516.88 363.001 516.976 363.484 516.976 364.041C516.976 365.243 516.499 366.167 515.546 366.812C514.608 367.457 513.377 367.78 511.852 367.78ZM518.139 367.428V356.169H521.723V367.428H518.139ZM518.139 354.608V351.706H521.723V354.608H518.139ZM530.326 367.78C528.772 367.78 527.636 367.186 526.917 365.998H526.873V367.428H523.443V351.706H527.027V357.445H527.093C527.87 356.375 528.94 355.84 530.304 355.84C531.74 355.84 532.898 356.404 533.778 357.533C534.672 358.661 535.119 360.083 535.119 361.799C535.119 363.66 534.687 365.126 533.822 366.196C532.957 367.252 531.792 367.78 530.326 367.78ZM529.314 364.943C530.003 364.943 530.538 364.664 530.919 364.107C531.3 363.55 531.491 362.773 531.491 361.777C531.491 360.794 531.3 360.017 530.919 359.446C530.538 358.859 529.988 358.566 529.27 358.566C528.508 358.566 527.921 358.867 527.511 359.468C527.115 360.054 526.917 360.831 526.917 361.799C526.917 362.737 527.13 363.499 527.555 364.085C527.995 364.657 528.581 364.943 529.314 364.943ZM536.327 367.428V356.169H539.911V367.428H536.327ZM536.327 354.608V351.706H539.911V354.608H536.327ZM541.653 367.428V351.706H545.281V367.428H541.653ZM547.021 367.428V356.169H550.605V367.428H547.021ZM547.021 354.608V351.706H550.605V354.608H547.021ZM556.789 367.56C555.645 367.56 554.759 367.332 554.128 366.878C553.512 366.409 553.205 365.603 553.205 364.459V358.412H551.709V356.169H553.205V352.607H556.701V356.169H558.746V358.412H556.701V363.69C556.701 364.1 556.804 364.386 557.009 364.547C557.229 364.708 557.544 364.789 557.954 364.789C558.072 364.789 558.225 364.789 558.416 364.789C558.607 364.774 558.717 364.767 558.746 364.767V367.384C558.335 367.501 557.683 367.56 556.789 367.56ZM560.73 371.144V368.351H561.961C562.944 368.351 563.435 367.955 563.435 367.164C563.435 366.783 563.207 366.006 562.753 364.833L559.433 356.169H563.215L564.732 360.963L565.436 363.558H565.48C565.685 362.561 565.905 361.696 566.139 360.963L567.613 356.169H571.197L567.305 367.582C566.85 368.901 566.308 369.825 565.678 370.352C565.062 370.88 564.19 371.144 563.061 371.144H560.73ZM579.499 367.428V355.004H574.925V351.706H588.009V355.004H583.391V367.428H579.499ZM592.094 367.758C590.277 367.758 588.818 367.201 587.718 366.086C586.634 364.958 586.091 363.521 586.091 361.777C586.091 360.076 586.626 358.661 587.696 357.533C588.781 356.404 590.174 355.84 591.874 355.84C593.414 355.84 594.696 356.309 595.722 357.247C597.071 358.478 597.731 360.303 597.701 362.722H589.61C589.727 363.499 589.998 364.107 590.423 364.547C590.848 364.972 591.42 365.185 592.138 365.185C593.062 365.185 593.685 364.811 594.007 364.063H597.504C597.24 365.148 596.609 366.035 595.613 366.724C594.63 367.413 593.458 367.758 592.094 367.758ZM589.631 360.589H594.073C594.015 359.915 593.787 359.38 593.392 358.984C593.01 358.588 592.527 358.39 591.94 358.39C590.665 358.39 589.895 359.123 589.631 360.589ZM603.695 367.78C602.053 367.78 600.741 367.428 599.759 366.724C598.791 366.006 598.278 365.024 598.22 363.778H601.606C601.738 364.892 602.427 365.449 603.673 365.449C604.215 365.449 604.641 365.353 604.948 365.163C605.271 364.958 605.432 364.679 605.432 364.327C605.432 364.21 605.417 364.107 605.388 364.019C605.359 363.931 605.308 363.851 605.234 363.778C605.161 363.704 605.088 363.638 605.014 363.58C604.956 363.521 604.86 363.47 604.728 363.426C604.597 363.367 604.479 363.323 604.377 363.294C604.289 363.264 604.149 363.235 603.959 363.206C603.783 363.162 603.644 363.133 603.541 363.118C603.438 363.089 603.277 363.059 603.057 363.03C602.837 362.986 602.676 362.957 602.574 362.942C602.104 362.869 601.709 362.795 601.386 362.722C601.064 362.634 600.704 362.502 600.309 362.326C599.928 362.15 599.612 361.952 599.363 361.733C599.129 361.498 598.931 361.19 598.769 360.809C598.608 360.413 598.528 359.959 598.528 359.446C598.528 358.302 598.989 357.415 599.913 356.785C600.836 356.155 601.995 355.84 603.387 355.84C604.956 355.84 606.172 356.162 607.037 356.807C607.902 357.437 608.379 358.317 608.467 359.446H605.168C605.051 358.566 604.45 358.126 603.365 358.126C602.896 358.126 602.515 358.214 602.222 358.39C601.943 358.566 601.804 358.823 601.804 359.16C601.804 359.248 601.819 359.328 601.848 359.402C601.877 359.475 601.921 359.541 601.98 359.6C602.053 359.658 602.119 359.71 602.178 359.754C602.251 359.798 602.346 359.842 602.464 359.886C602.581 359.929 602.684 359.966 602.771 359.995C602.874 360.025 603.006 360.054 603.167 360.083C603.343 360.113 603.482 360.142 603.585 360.171C603.702 360.186 603.856 360.215 604.047 360.259C604.237 360.289 604.391 360.311 604.509 360.325C605.007 360.413 605.417 360.494 605.74 360.567C606.062 360.64 606.436 360.772 606.861 360.963C607.301 361.139 607.646 361.351 607.895 361.601C608.144 361.835 608.357 362.165 608.533 362.59C608.723 363.001 608.818 363.484 608.818 364.041C608.818 365.243 608.342 366.167 607.389 366.812C606.451 367.457 605.22 367.78 603.695 367.78ZM614.123 367.56C612.98 367.56 612.093 367.332 611.463 366.878C610.847 366.409 610.539 365.603 610.539 364.459V358.412H609.044V356.169H610.539V352.607H614.035V356.169H616.08V358.412H614.035V363.69C614.035 364.1 614.138 364.386 614.343 364.547C614.563 364.708 614.878 364.789 615.289 364.789C615.406 364.789 615.56 364.789 615.751 364.789C615.941 364.774 616.051 364.767 616.08 364.767V367.384C615.67 367.501 615.018 367.56 614.123 367.56ZM617.369 367.428V356.169H620.953V367.428H617.369ZM617.369 354.608V351.706H620.953V354.608H617.369ZM622.673 367.428V356.169H626.125V357.709H626.191C627.056 356.463 628.214 355.84 629.665 355.84C630.882 355.84 631.835 356.235 632.524 357.027C633.227 357.804 633.579 358.83 633.579 360.105V367.428H629.995V360.831C629.995 360.215 629.841 359.732 629.533 359.38C629.24 359.013 628.808 358.83 628.236 358.83C627.65 358.83 627.173 359.05 626.807 359.49C626.44 359.929 626.257 360.501 626.257 361.205V367.428H622.673ZM640.447 371.32C638.878 371.32 637.61 371.005 636.643 370.374C635.69 369.759 635.125 368.864 634.949 367.692H638.424C638.673 368.425 639.333 368.791 640.403 368.791C641.839 368.791 642.558 368.073 642.558 366.636V365.515H642.47C641.707 366.38 640.747 366.812 639.589 366.812C638.24 366.812 637.09 366.336 636.137 365.383C635.184 364.43 634.708 363.125 634.708 361.469C634.708 359.812 635.147 358.464 636.027 357.423C636.906 356.367 638.043 355.84 639.435 355.84C640.828 355.84 641.883 356.353 642.602 357.379H642.646V356.169H646.076V366.328C646.076 367.926 645.577 369.172 644.581 370.066C643.642 370.902 642.264 371.32 640.447 371.32ZM640.425 364.151C641.172 364.151 641.737 363.895 642.118 363.382C642.514 362.854 642.712 362.172 642.712 361.337C642.712 360.545 642.506 359.886 642.096 359.358C641.7 358.815 641.143 358.544 640.425 358.544C639.75 358.544 639.208 358.801 638.798 359.314C638.402 359.827 638.204 360.509 638.204 361.359C638.204 362.209 638.402 362.891 638.798 363.404C639.208 363.902 639.75 364.151 640.425 364.151Z" fill="#414042"/>
<path d="M407.611 305.508L760.331 305.508V285.108L407.611 285.108V305.508Z" fill="#291149"/>
<path d="M352.34 555.529H86.6499C75.5999 555.529 66.6499 546.579 66.6499 535.529V285.109H372.34V535.529C372.34 546.579 363.39 555.529 352.34 555.529Z" fill="#F1F0F0"/>
<path d="M170.22 519.51H160.54V529.19H170.22V519.51Z" fill="#BCBEC0"/>
<path d="M284.14 521.859H178.12V524.72H284.14V521.859Z" fill="#BCBEC0"/>
<path d="M246.63 528.68H178.12V531.54H246.63V528.68Z" fill="#BCBEC0"/>
<path d="M93.6001 392.71C136.71 392.46 179.82 392.53 222.93 392.42C266.04 392.52 309.15 392.46 352.26 392.71C309.15 392.96 266.04 392.9 222.93 393C179.82 392.89 136.71 392.95 93.6001 392.71Z" fill="#455B64"/>
<path d="M93.6001 416.22C136.71 415.97 179.82 416.04 222.93 415.93C266.04 416.03 309.15 415.97 352.26 416.22C309.15 416.47 266.04 416.409 222.93 416.509C179.82 416.399 136.71 416.46 93.6001 416.22Z" fill="#455B64"/>
<path d="M93.6001 439.729C136.71 439.479 179.82 439.549 222.93 439.439C266.04 439.539 309.15 439.479 352.26 439.729C309.15 439.979 266.04 439.92 222.93 440.02C179.82 439.91 136.71 439.979 93.6001 439.729Z" fill="#455B64"/>
<path d="M93.6001 463.239C136.71 462.989 179.82 463.059 222.93 462.949C266.04 463.049 309.15 462.989 352.26 463.239C309.15 463.489 266.04 463.429 222.93 463.529C179.82 463.419 136.71 463.489 93.6001 463.239Z" fill="#455B64"/>
<path d="M93.6001 486.751C136.71 486.501 179.82 486.571 222.93 486.461C266.04 486.561 309.15 486.501 352.26 486.751C309.15 487.001 266.04 486.941 222.93 487.041C179.82 486.941 136.71 487.001 93.6001 486.751Z" fill="#455B64"/>
<path d="M145.68 377.42C146.06 399.39 145.96 421.36 146.12 443.33C145.96 465.3 146.06 487.27 145.68 509.24C145.3 487.27 145.39 465.3 145.24 443.33C145.39 421.36 145.3 399.39 145.68 377.42Z" fill="#455B64"/>
<path d="M190.41 377.42C190.79 399.39 190.69 421.36 190.85 443.33C190.69 465.3 190.79 487.27 190.41 509.24C190.03 487.27 190.12 465.3 189.97 443.33C190.12 421.36 190.03 399.39 190.41 377.42Z" fill="#455B64"/>
<path d="M235.14 377.42C235.52 399.39 235.42 421.36 235.58 443.33C235.42 465.3 235.52 487.27 235.14 509.24C234.76 487.27 234.85 465.3 234.7 443.33C234.85 421.36 234.76 399.39 235.14 377.42Z" fill="#455B64"/>
<path d="M279.87 377.42C280.25 399.39 280.15 421.36 280.31 443.33C280.15 465.3 280.25 487.27 279.87 509.24C279.49 487.27 279.59 465.3 279.43 443.33C279.58 421.36 279.49 399.39 279.87 377.42Z" fill="#455B64"/>
<path d="M324.6 377.42C324.98 399.39 324.88 421.36 325.04 443.33C324.88 465.3 324.98 487.27 324.6 509.24C324.22 487.27 324.31 465.3 324.16 443.33C324.31 421.36 324.22 399.39 324.6 377.42Z" fill="#455B64"/>
<path opacity="0.7" d="M100.12 469.701C108.01 469.701 112.72 445.82 123.91 445.82C135.09 445.82 136.27 463.241 145.69 463.241C155.11 463.241 154.81 432.63 167.47 432.63C180.12 432.63 177.18 445.05 190.42 445.05C203.66 445.05 198.66 416.221 212.49 416.221C226.32 416.221 220.73 455.94 235.15 455.94C244.27 455.94 247.8 443.32 258.69 443.32C265.9 443.32 270.15 449.63 279.58 449.63C289.15 449.63 291.06 425.371 302.84 425.371C314.61 425.371 315.96 439.73 324.62 439.73C333.28 439.73 336.39 416.221 352.28 416.221V509.23H100.14V469.701H100.12Z" fill="#662D91"/>
<path d="M100.12 470.851V468.551C102.51 468.551 105.8 462.971 108.21 458.901C112.34 451.901 116.61 444.671 123.91 444.671C130.91 444.671 134.39 449.971 137.46 454.641C139.86 458.301 142.35 462.091 145.69 462.091C148.64 462.091 151.19 454.741 153.05 449.371C156.1 440.571 159.26 431.481 167.47 431.481C174.8 431.481 177.67 435.051 180.21 438.201C182.67 441.261 184.8 443.901 190.42 443.901C195.51 443.901 197.5 437.161 199.43 430.651C201.7 422.991 204.04 415.071 212.49 415.071C220.87 415.071 223.02 425.051 225.29 435.611C227.13 444.161 229.41 454.791 235.15 454.791C238.58 454.791 241.39 452.171 244.36 449.391C247.98 446.011 252.08 442.171 258.69 442.171C262.66 442.171 265.76 443.741 268.76 445.251C271.9 446.841 275.15 448.481 279.57 448.481C282.84 448.481 285.82 442.711 288.21 438.071C291.73 431.261 295.36 424.211 302.83 424.211C310.24 424.211 313.89 428.791 317.11 432.831C319.46 435.781 321.68 438.571 324.6 438.571C327.09 438.571 329.91 434.101 332.4 430.161C336.65 423.431 341.94 415.051 352.27 415.051V417.351C344.32 417.351 339.73 424.621 335.68 431.031C332.21 436.521 329.47 440.861 324.61 440.861C319.53 440.861 316.83 437.471 313.97 433.881C311.08 430.251 308.09 426.501 302.83 426.501C297.91 426.501 294.54 433.031 291.57 438.791C288.25 445.221 285.39 450.771 279.58 450.771C273.95 450.771 270.04 448.801 266.59 447.061C263.83 445.671 261.45 444.461 258.69 444.461C253.93 444.461 250.54 447.631 247.27 450.691C243.91 453.831 240.44 457.081 235.15 457.081C226.33 457.081 224.12 446.801 221.78 435.921C220.01 427.651 217.79 417.361 212.49 417.361C206.96 417.361 204.81 424.651 202.9 431.081C200.6 438.851 198.43 446.191 190.42 446.191C182.65 446.191 179.69 442.511 177.07 439.261C174.7 436.321 172.65 433.771 167.47 433.771C162.09 433.771 158.99 442.691 156.51 449.871C153.7 457.981 151.47 464.381 145.7 464.381C140.02 464.381 137.2 460.081 134.22 455.531C131.45 451.321 128.59 446.961 123.93 446.961C119.07 446.961 114.89 454.031 111.54 459.711C107.84 465.941 104.94 470.851 100.12 470.851Z" fill="#662D91"/>
<path d="M100.12 378.85C100.41 400.58 100.65 422.31 100.68 444.04L100.95 509.229L100.12 508.689L226.19 508.83L289.23 508.939L352.27 509.229L289.23 509.52L226.19 509.629L100.12 509.77H99.29V509.229L99.5601 444.04C99.5801 422.31 99.83 400.58 100.12 378.85Z" fill="#455B64"/>
<path d="M98.5691 340.151H100.856C102.117 340.151 103.077 339.77 103.737 339.008C104.396 338.231 104.726 337.117 104.726 335.666C104.726 334.214 104.389 333.071 103.715 332.235C103.04 331.385 102.102 330.96 100.9 330.96H98.5691V340.151ZM94.6771 343.428V327.706H101.384C103.568 327.706 105.327 328.431 106.661 329.883C107.995 331.334 108.662 333.261 108.662 335.666C108.662 338.495 107.753 340.606 105.935 341.998C104.66 342.951 103.062 343.428 101.142 343.428H94.6771ZM115.458 343.758C113.641 343.758 112.182 343.201 111.083 342.086C109.998 340.958 109.455 339.521 109.455 337.777C109.455 336.076 109.99 334.661 111.061 333.533C112.145 332.404 113.538 331.84 115.239 331.84C116.778 331.84 118.06 332.309 119.087 333.247C120.435 334.478 121.095 336.303 121.066 338.722H112.974C113.091 339.499 113.362 340.107 113.787 340.547C114.212 340.972 114.784 341.185 115.502 341.185C116.426 341.185 117.049 340.811 117.371 340.063H120.868C120.604 341.148 119.973 342.035 118.977 342.724C117.994 343.413 116.822 343.758 115.458 343.758ZM112.996 336.589H117.437C117.379 335.915 117.152 335.38 116.756 334.984C116.375 334.588 115.891 334.39 115.304 334.39C114.029 334.39 113.259 335.123 112.996 336.589ZM124.912 343.428L121.02 332.169H124.714L126.253 337.249L126.869 339.514H126.913C127.104 338.751 127.309 337.996 127.529 337.249L129.09 332.169H132.674L128.782 343.428H124.912ZM138.543 343.758C136.725 343.758 135.266 343.201 134.167 342.086C133.082 340.958 132.54 339.521 132.54 337.777C132.54 336.076 133.075 334.661 134.145 333.533C135.23 332.404 136.622 331.84 138.323 331.84C139.862 331.84 141.145 332.309 142.171 333.247C143.519 334.478 144.179 336.303 144.15 338.722H136.058C136.175 339.499 136.446 340.107 136.871 340.547C137.296 340.972 137.868 341.185 138.587 341.185C139.51 341.185 140.133 340.811 140.456 340.063H143.952C143.688 341.148 143.058 342.035 142.061 342.724C141.079 343.413 139.906 343.758 138.543 343.758ZM136.08 336.589H140.522C140.463 335.915 140.236 335.38 139.84 334.984C139.459 334.588 138.975 334.39 138.389 334.39C137.113 334.39 136.344 335.123 136.08 336.589ZM145.372 343.428V327.706H149V343.428H145.372ZM154.478 340.305C154.888 340.921 155.475 341.229 156.237 341.229C156.999 341.229 157.585 340.921 157.996 340.305C158.421 339.69 158.634 338.861 158.634 337.821C158.634 336.78 158.421 335.951 157.996 335.336C157.585 334.705 156.999 334.39 156.237 334.39C155.475 334.39 154.888 334.698 154.478 335.314C154.067 335.929 153.862 336.765 153.862 337.821C153.862 338.861 154.067 339.69 154.478 340.305ZM160.591 342.086C159.491 343.215 158.047 343.78 156.259 343.78C154.47 343.78 153.019 343.215 151.905 342.086C150.791 340.958 150.234 339.536 150.234 337.821C150.234 336.105 150.791 334.683 151.905 333.555C153.019 332.426 154.47 331.862 156.259 331.862C158.047 331.862 159.491 332.426 160.591 333.555C161.705 334.683 162.262 336.105 162.262 337.821C162.262 339.536 161.705 340.958 160.591 342.086ZM163.473 347.144V332.169H166.904V333.533H166.97C167.835 332.404 168.971 331.84 170.378 331.84C171.844 331.84 173.009 332.404 173.874 333.533C174.754 334.647 175.194 336.069 175.194 337.799C175.194 339.616 174.746 341.068 173.852 342.152C172.958 343.237 171.771 343.78 170.29 343.78C168.912 343.78 167.849 343.274 167.102 342.262H167.058V347.144H163.473ZM169.366 341.009C170.055 341.009 170.591 340.738 170.972 340.195C171.367 339.638 171.565 338.883 171.565 337.93C171.565 336.934 171.375 336.149 170.994 335.578C170.613 335.006 170.048 334.72 169.301 334.72C168.553 334.72 167.974 335.021 167.563 335.622C167.153 336.208 166.948 336.978 166.948 337.93C166.948 338.854 167.16 339.602 167.585 340.173C168.01 340.73 168.604 341.009 169.366 341.009ZM184.279 343.56C183.135 343.56 182.248 343.332 181.618 342.878C181.002 342.409 180.694 341.603 180.694 340.459V334.412H179.199V332.169H180.694V328.607H184.191V332.169H186.236V334.412H184.191V339.69C184.191 340.1 184.293 340.386 184.499 340.547C184.718 340.708 185.034 340.789 185.444 340.789C185.561 340.789 185.715 340.789 185.906 340.789C186.096 340.774 186.206 340.767 186.236 340.767V343.384C185.825 343.501 185.173 343.56 184.279 343.56ZM192.914 343.758C191.096 343.758 189.637 343.201 188.538 342.086C187.453 340.958 186.911 339.521 186.911 337.777C186.911 336.076 187.446 334.661 188.516 333.533C189.601 332.404 190.993 331.84 192.694 331.84C194.233 331.84 195.516 332.309 196.542 333.247C197.891 334.478 198.55 336.303 198.521 338.722H190.429C190.546 339.499 190.817 340.107 191.243 340.547C191.668 340.972 192.239 341.185 192.958 341.185C193.881 341.185 194.504 340.811 194.827 340.063H198.323C198.059 341.148 197.429 342.035 196.432 342.724C195.45 343.413 194.277 343.758 192.914 343.758ZM190.451 336.589H194.893C194.834 335.915 194.607 335.38 194.211 334.984C193.83 334.588 193.346 334.39 192.76 334.39C191.484 334.39 190.715 335.123 190.451 336.589ZM204.515 343.78C202.873 343.78 201.561 343.428 200.578 342.724C199.611 342.006 199.098 341.024 199.039 339.778H202.426C202.557 340.892 203.246 341.449 204.493 341.449C205.035 341.449 205.46 341.353 205.768 341.163C206.09 340.958 206.252 340.679 206.252 340.327C206.252 340.21 206.237 340.107 206.208 340.019C206.178 339.931 206.127 339.851 206.054 339.778C205.98 339.704 205.907 339.638 205.834 339.58C205.775 339.521 205.68 339.47 205.548 339.426C205.416 339.367 205.299 339.323 205.196 339.294C205.108 339.264 204.969 339.235 204.778 339.206C204.602 339.162 204.463 339.133 204.361 339.118C204.258 339.089 204.097 339.059 203.877 339.03C203.657 338.986 203.496 338.957 203.393 338.942C202.924 338.869 202.528 338.795 202.206 338.722C201.883 338.634 201.524 338.502 201.128 338.326C200.747 338.15 200.432 337.952 200.183 337.733C199.948 337.498 199.75 337.19 199.589 336.809C199.428 336.413 199.347 335.959 199.347 335.446C199.347 334.302 199.809 333.415 200.732 332.785C201.656 332.155 202.814 331.84 204.207 331.84C205.775 331.84 206.992 332.162 207.857 332.807C208.722 333.437 209.198 334.317 209.286 335.446H205.988C205.871 334.566 205.269 334.126 204.185 334.126C203.716 334.126 203.334 334.214 203.041 334.39C202.763 334.566 202.623 334.823 202.623 335.16C202.623 335.248 202.638 335.328 202.667 335.402C202.697 335.475 202.741 335.541 202.799 335.6C202.873 335.658 202.939 335.71 202.997 335.754C203.071 335.798 203.166 335.842 203.283 335.886C203.4 335.929 203.503 335.966 203.591 335.995C203.694 336.025 203.826 336.054 203.987 336.083C204.163 336.113 204.302 336.142 204.405 336.171C204.522 336.186 204.676 336.215 204.866 336.259C205.057 336.289 205.211 336.311 205.328 336.325C205.827 336.413 206.237 336.494 206.559 336.567C206.882 336.64 207.256 336.772 207.681 336.963C208.121 337.139 208.465 337.351 208.714 337.601C208.964 337.835 209.176 338.165 209.352 338.59C209.543 339.001 209.638 339.484 209.638 340.041C209.638 341.243 209.162 342.167 208.209 342.812C207.27 343.457 206.039 343.78 204.515 343.78ZM214.943 343.56C213.8 343.56 212.913 343.332 212.282 342.878C211.667 342.409 211.359 341.603 211.359 340.459V334.412H209.864V332.169H211.359V328.607H214.855V332.169H216.9V334.412H214.855V339.69C214.855 340.1 214.958 340.386 215.163 340.547C215.383 340.708 215.698 340.789 216.108 340.789C216.226 340.789 216.38 340.789 216.57 340.789C216.761 340.774 216.871 340.767 216.9 340.767V343.384C216.49 343.501 215.837 343.56 214.943 343.56ZM226.396 343.78C224.754 343.78 223.442 343.428 222.46 342.724C221.493 342.006 220.98 341.024 220.921 339.778H224.307C224.439 340.892 225.128 341.449 226.374 341.449C226.917 341.449 227.342 341.353 227.65 341.163C227.972 340.958 228.133 340.679 228.133 340.327C228.133 340.21 228.119 340.107 228.089 340.019C228.06 339.931 228.009 339.851 227.935 339.778C227.862 339.704 227.789 339.638 227.715 339.58C227.657 339.521 227.562 339.47 227.43 339.426C227.298 339.367 227.18 339.323 227.078 339.294C226.99 339.264 226.851 339.235 226.66 339.206C226.484 339.162 226.345 339.133 226.242 339.118C226.14 339.089 225.978 339.059 225.758 339.03C225.539 338.986 225.377 338.957 225.275 338.942C224.806 338.869 224.41 338.795 224.087 338.722C223.765 338.634 223.406 338.502 223.01 338.326C222.629 338.15 222.314 337.952 222.064 337.733C221.83 337.498 221.632 337.19 221.471 336.809C221.309 336.413 221.229 335.959 221.229 335.446C221.229 334.302 221.69 333.415 222.614 332.785C223.538 332.155 224.696 331.84 226.088 331.84C227.657 331.84 228.874 332.162 229.738 332.807C230.603 333.437 231.08 334.317 231.168 335.446H227.869C227.752 334.566 227.151 334.126 226.066 334.126C225.597 334.126 225.216 334.214 224.923 334.39C224.644 334.566 224.505 334.823 224.505 335.16C224.505 335.248 224.52 335.328 224.549 335.402C224.578 335.475 224.622 335.541 224.681 335.6C224.754 335.658 224.82 335.71 224.879 335.754C224.952 335.798 225.047 335.842 225.165 335.886C225.282 335.929 225.385 335.966 225.473 335.995C225.575 336.025 225.707 336.054 225.868 336.083C226.044 336.113 226.184 336.142 226.286 336.171C226.403 336.186 226.557 336.215 226.748 336.259C226.939 336.289 227.092 336.311 227.21 336.325C227.708 336.413 228.119 336.494 228.441 336.567C228.764 336.64 229.137 336.772 229.563 336.963C230.002 337.139 230.347 337.351 230.596 337.601C230.845 337.835 231.058 338.165 231.234 338.59C231.424 339.001 231.52 339.484 231.52 340.041C231.52 341.243 231.043 342.167 230.09 342.812C229.152 343.457 227.921 343.78 226.396 343.78ZM236.553 343.758C235.278 343.758 234.295 343.384 233.606 342.636C232.932 341.874 232.595 340.848 232.595 339.558V332.169H236.157V338.81C236.157 340.085 236.722 340.723 237.85 340.723C238.466 340.723 238.95 340.518 239.302 340.107C239.653 339.682 239.829 339.133 239.829 338.458V332.169H243.414V343.428H239.983V342.042H239.917C239.067 343.186 237.946 343.758 236.553 343.758ZM245.138 343.428V332.169H248.722V343.428H245.138ZM245.138 330.608V327.706H248.722V330.608H245.138ZM254.905 343.56C253.762 343.56 252.875 343.332 252.245 342.878C251.629 342.409 251.321 341.603 251.321 340.459V334.412H249.826V332.169H251.321V328.607H254.817V332.169H256.862V334.412H254.817V339.69C254.817 340.1 254.92 340.386 255.125 340.547C255.345 340.708 255.66 340.789 256.071 340.789C256.188 340.789 256.342 340.789 256.533 340.789C256.723 340.774 256.833 340.767 256.862 340.767V343.384C256.452 343.501 255.8 343.56 254.905 343.56ZM263.541 343.758C261.723 343.758 260.264 343.201 259.165 342.086C258.08 340.958 257.538 339.521 257.538 337.777C257.538 336.076 258.073 334.661 259.143 333.533C260.228 332.404 261.62 331.84 263.321 331.84C264.86 331.84 266.143 332.309 267.169 333.247C268.517 334.478 269.177 336.303 269.148 338.722H261.056C261.173 339.499 261.444 340.107 261.869 340.547C262.294 340.972 262.866 341.185 263.585 341.185C264.508 341.185 265.131 340.811 265.454 340.063H268.95C268.686 341.148 268.056 342.035 267.059 342.724C266.077 343.413 264.904 343.758 263.541 343.758ZM261.078 336.589H265.52C265.461 335.915 265.234 335.38 264.838 334.984C264.457 334.588 263.973 334.39 263.387 334.39C262.111 334.39 261.342 335.123 261.078 336.589Z" fill="#414042"/>
<path d="M66.6519 305.771L372.342 305.771V285.372L66.6519 285.372V305.771Z" fill="#291149"/>
<path d="M493.43 260.719H180.71C169.66 260.719 160.71 251.769 160.71 240.719V119.629H513.43V240.719C513.43 251.769 504.47 260.719 493.43 260.719Z" fill="#F1F0F0"/>
<path d="M160.706 140.035L513.427 140.035V119.635L160.706 119.635V140.035Z" fill="#171946"/>
<path d="M425.94 173.379H284.39V179.159H425.94V173.379Z" fill="#BCBEC0"/>
<path d="M386.64 188.219H284.39V193.068H386.64V188.219Z" fill="#BCBEC0"/>
<path d="M471.72 188.219H396.43V193.068H471.72V188.219Z" fill="#BCBEC0"/>
<path d="M355.17 200.809H284.39V205.659H355.17V200.809Z" fill="#BCBEC0"/>
<path d="M434.91 200.809H364.13V205.659H434.91V200.809Z" fill="#BCBEC0"/>
<path d="M411.25 213.398H284.39V218.249H411.25V213.398Z" fill="#BCBEC0"/>
<path d="M471.72 213.398H421.26V218.249H471.72V213.398Z" fill="#BCBEC0"/>
<path d="M386.64 225.988H284.39V230.838H386.64V225.988Z" fill="#BCBEC0"/>
<path d="M256.54 167.5H193.2V230.84H256.54V167.5Z" fill="#939598"/>
<path d="M239.35 193.349C239.35 201.349 232.87 207.829 224.87 207.829C216.87 207.829 210.39 201.349 210.39 193.349C210.39 185.349 216.87 178.869 224.87 178.869C232.87 178.869 239.35 185.359 239.35 193.349Z" fill="white"/>
<path d="M250.83 230.779C250.81 230.799 250.77 230.819 250.75 230.839H198.98C198.96 230.819 198.94 230.819 198.92 230.799C200.69 218.089 211.63 208.299 224.91 208.299C238.07 208.299 249.03 218.089 250.83 230.779Z" fill="white"/>
<defs>
<linearGradient id="paint0_linear_23_50105" x1="352.206" y1="84.5432" x2="474.649" y2="84.5432" gradientUnits="userSpaceOnUse">
<stop offset="0.0108" stop-color="#EDD183"/>
<stop offset="0.1345" stop-color="#E9CD83"/>
<stop offset="0.2629" stop-color="#DBC184"/>
<stop offset="0.3934" stop-color="#C6AF84"/>
<stop offset="0.5254" stop-color="#AB9784"/>
<stop offset="0.6585" stop-color="#8C7D83"/>
<stop offset="0.7926" stop-color="#6A6380"/>
<stop offset="0.925" stop-color="#41477C"/>
<stop offset="1" stop-color="#273779"/>
</linearGradient>
<linearGradient id="paint1_linear_23_50105" x1="318.125" y1="95.1637" x2="487.498" y2="95.1637" gradientUnits="userSpaceOnUse">
<stop offset="0.0108" stop-color="#EDD183"/>
<stop offset="0.1345" stop-color="#E9CD83"/>
<stop offset="0.2629" stop-color="#DBC184"/>
<stop offset="0.3934" stop-color="#C6AF84"/>
<stop offset="0.5254" stop-color="#AB9784"/>
<stop offset="0.6585" stop-color="#8C7D83"/>
<stop offset="0.7926" stop-color="#6A6380"/>
<stop offset="0.925" stop-color="#41477C"/>
<stop offset="1" stop-color="#273779"/>
</linearGradient>
<linearGradient id="paint2_linear_23_50105" x1="290.497" y1="105.782" x2="493.888" y2="105.782" gradientUnits="userSpaceOnUse">
<stop offset="0.0108" stop-color="#EDD183"/>
<stop offset="0.1345" stop-color="#E9CD83"/>
<stop offset="0.2629" stop-color="#DBC184"/>
<stop offset="0.3934" stop-color="#C6AF84"/>
<stop offset="0.5254" stop-color="#AB9784"/>
<stop offset="0.6585" stop-color="#8C7D83"/>
<stop offset="0.7926" stop-color="#6A6380"/>
<stop offset="0.925" stop-color="#41477C"/>
<stop offset="1" stop-color="#273779"/>
</linearGradient>
<linearGradient id="paint3_linear_23_50105" x1="266.25" y1="116.404" x2="496.888" y2="116.404" gradientUnits="userSpaceOnUse">
<stop offset="0.0108" stop-color="#EDD183"/>
<stop offset="0.1345" stop-color="#E9CD83"/>
<stop offset="0.2629" stop-color="#DBC184"/>
<stop offset="0.3934" stop-color="#C6AF84"/>
<stop offset="0.5254" stop-color="#AB9784"/>
<stop offset="0.6585" stop-color="#8C7D83"/>
<stop offset="0.7926" stop-color="#6A6380"/>
<stop offset="0.925" stop-color="#41477C"/>
<stop offset="1" stop-color="#273779"/>
</linearGradient>
<linearGradient id="paint4_linear_23_50105" x1="244.34" y1="127.026" x2="497.557" y2="127.026" gradientUnits="userSpaceOnUse">
<stop offset="0.0108" stop-color="#EDD183"/>
<stop offset="0.1345" stop-color="#E9CD83"/>
<stop offset="0.2629" stop-color="#DBC184"/>
<stop offset="0.3934" stop-color="#C6AF84"/>
<stop offset="0.5254" stop-color="#AB9784"/>
<stop offset="0.6585" stop-color="#8C7D83"/>
<stop offset="0.7926" stop-color="#6A6380"/>
<stop offset="0.925" stop-color="#41477C"/>
<stop offset="1" stop-color="#273779"/>
</linearGradient>
<linearGradient id="paint5_linear_23_50105" x1="224.153" y1="137.643" x2="496.515" y2="137.643" gradientUnits="userSpaceOnUse">
<stop offset="0.0108" stop-color="#EDD183"/>
<stop offset="0.1345" stop-color="#E9CD83"/>
<stop offset="0.2629" stop-color="#DBC184"/>
<stop offset="0.3934" stop-color="#C6AF84"/>
<stop offset="0.5254" stop-color="#AB9784"/>
<stop offset="0.6585" stop-color="#8C7D83"/>
<stop offset="0.7926" stop-color="#6A6380"/>
<stop offset="0.925" stop-color="#41477C"/>
<stop offset="1" stop-color="#273779"/>
</linearGradient>
<linearGradient id="paint6_linear_23_50105" x1="205.471" y1="148.267" x2="493.945" y2="148.267" gradientUnits="userSpaceOnUse">
<stop offset="0.0108" stop-color="#EDD183"/>
<stop offset="0.1345" stop-color="#E9CD83"/>
<stop offset="0.2629" stop-color="#DBC184"/>
<stop offset="0.3934" stop-color="#C6AF84"/>
<stop offset="0.5254" stop-color="#AB9784"/>
<stop offset="0.6585" stop-color="#8C7D83"/>
<stop offset="0.7926" stop-color="#6A6380"/>
<stop offset="0.925" stop-color="#41477C"/>
<stop offset="1" stop-color="#273779"/>
</linearGradient>
<linearGradient id="paint7_linear_23_50105" x1="187.879" y1="158.884" x2="490.301" y2="158.884" gradientUnits="userSpaceOnUse">
<stop offset="0.0108" stop-color="#EDD183"/>
<stop offset="0.1345" stop-color="#E9CD83"/>
<stop offset="0.2629" stop-color="#DBC184"/>
<stop offset="0.3934" stop-color="#C6AF84"/>
<stop offset="0.5254" stop-color="#AB9784"/>
<stop offset="0.6585" stop-color="#8C7D83"/>
<stop offset="0.7926" stop-color="#6A6380"/>
<stop offset="0.925" stop-color="#41477C"/>
<stop offset="1" stop-color="#273779"/>
</linearGradient>
<linearGradient id="paint8_linear_23_50105" x1="171.393" y1="169.507" x2="485.546" y2="169.507" gradientUnits="userSpaceOnUse">
<stop offset="0.0108" stop-color="#EDD183"/>
<stop offset="0.1345" stop-color="#E9CD83"/>
<stop offset="0.2629" stop-color="#DBC184"/>
<stop offset="0.3934" stop-color="#C6AF84"/>
<stop offset="0.5254" stop-color="#AB9784"/>
<stop offset="0.6585" stop-color="#8C7D83"/>
<stop offset="0.7926" stop-color="#6A6380"/>
<stop offset="0.925" stop-color="#41477C"/>
<stop offset="1" stop-color="#273779"/>
</linearGradient>
<linearGradient id="paint9_linear_23_50105" x1="155.755" y1="180.127" x2="479.944" y2="180.127" gradientUnits="userSpaceOnUse">
<stop offset="0.0108" stop-color="#EDD183"/>
<stop offset="0.1345" stop-color="#E9CD83"/>
<stop offset="0.2629" stop-color="#DBC184"/>
<stop offset="0.3934" stop-color="#C6AF84"/>
<stop offset="0.5254" stop-color="#AB9784"/>
<stop offset="0.6585" stop-color="#8C7D83"/>
<stop offset="0.7926" stop-color="#6A6380"/>
<stop offset="0.925" stop-color="#41477C"/>
<stop offset="1" stop-color="#273779"/>
</linearGradient>
<linearGradient id="paint10_linear_23_50105" x1="140.999" y1="190.746" x2="473.459" y2="190.746" gradientUnits="userSpaceOnUse">
<stop offset="0.0108" stop-color="#EDD183"/>
<stop offset="0.1345" stop-color="#E9CD83"/>
<stop offset="0.2629" stop-color="#DBC184"/>
<stop offset="0.3934" stop-color="#C6AF84"/>
<stop offset="0.5254" stop-color="#AB9784"/>
<stop offset="0.6585" stop-color="#8C7D83"/>
<stop offset="0.7926" stop-color="#6A6380"/>
<stop offset="0.925" stop-color="#41477C"/>
<stop offset="1" stop-color="#273779"/>
</linearGradient>
<linearGradient id="paint11_linear_23_50105" x1="127.019" y1="201.369" x2="466.192" y2="201.369" gradientUnits="userSpaceOnUse">
<stop offset="0.0108" stop-color="#EDD183"/>
<stop offset="0.1345" stop-color="#E9CD83"/>
<stop offset="0.2629" stop-color="#DBC184"/>
<stop offset="0.3934" stop-color="#C6AF84"/>
<stop offset="0.5254" stop-color="#AB9784"/>
<stop offset="0.6585" stop-color="#8C7D83"/>
<stop offset="0.7926" stop-color="#6A6380"/>
<stop offset="0.925" stop-color="#41477C"/>
<stop offset="1" stop-color="#273779"/>
</linearGradient>
<linearGradient id="paint12_linear_23_50105" x1="113.737" y1="211.989" x2="458.237" y2="211.989" gradientUnits="userSpaceOnUse">
<stop offset="0.0108" stop-color="#EDD183"/>
<stop offset="0.1345" stop-color="#E9CD83"/>
<stop offset="0.2629" stop-color="#DBC184"/>
<stop offset="0.3934" stop-color="#C6AF84"/>
<stop offset="0.5254" stop-color="#AB9784"/>
<stop offset="0.6585" stop-color="#8C7D83"/>
<stop offset="0.7926" stop-color="#6A6380"/>
<stop offset="0.925" stop-color="#41477C"/>
<stop offset="1" stop-color="#273779"/>
</linearGradient>
<linearGradient id="paint13_linear_23_50105" x1="101.13" y1="222.606" x2="449.606" y2="222.606" gradientUnits="userSpaceOnUse">
<stop offset="0.0108" stop-color="#EDD183"/>
<stop offset="0.1345" stop-color="#E9CD83"/>
<stop offset="0.2629" stop-color="#DBC184"/>
<stop offset="0.3934" stop-color="#C6AF84"/>
<stop offset="0.5254" stop-color="#AB9784"/>
<stop offset="0.6585" stop-color="#8C7D83"/>
<stop offset="0.7926" stop-color="#6A6380"/>
<stop offset="0.925" stop-color="#41477C"/>
<stop offset="1" stop-color="#273779"/>
</linearGradient>
<linearGradient id="paint14_linear_23_50105" x1="89.2573" y1="233.229" x2="440.232" y2="233.229" gradientUnits="userSpaceOnUse">
<stop offset="0.0108" stop-color="#EDD183"/>
<stop offset="0.1345" stop-color="#E9CD83"/>
<stop offset="0.2629" stop-color="#DBC184"/>
<stop offset="0.3934" stop-color="#C6AF84"/>
<stop offset="0.5254" stop-color="#AB9784"/>
<stop offset="0.6585" stop-color="#8C7D83"/>
<stop offset="0.7926" stop-color="#6A6380"/>
<stop offset="0.925" stop-color="#41477C"/>
<stop offset="1" stop-color="#273779"/>
</linearGradient>
<linearGradient id="paint15_linear_23_50105" x1="78.0176" y1="243.852" x2="430.231" y2="243.852" gradientUnits="userSpaceOnUse">
<stop offset="0.0108" stop-color="#EDD183"/>
<stop offset="0.1345" stop-color="#E9CD83"/>
<stop offset="0.2629" stop-color="#DBC184"/>
<stop offset="0.3934" stop-color="#C6AF84"/>
<stop offset="0.5254" stop-color="#AB9784"/>
<stop offset="0.6585" stop-color="#8C7D83"/>
<stop offset="0.7926" stop-color="#6A6380"/>
<stop offset="0.925" stop-color="#41477C"/>
<stop offset="1" stop-color="#273779"/>
</linearGradient>
<linearGradient id="paint16_linear_23_50105" x1="67.3975" y1="254.471" x2="419.61" y2="254.471" gradientUnits="userSpaceOnUse">
<stop offset="0.0108" stop-color="#EDD183"/>
<stop offset="0.1345" stop-color="#E9CD83"/>
<stop offset="0.2629" stop-color="#DBC184"/>
<stop offset="0.3934" stop-color="#C6AF84"/>
<stop offset="0.5254" stop-color="#AB9784"/>
<stop offset="0.6585" stop-color="#8C7D83"/>
<stop offset="0.7926" stop-color="#6A6380"/>
<stop offset="0.925" stop-color="#41477C"/>
<stop offset="1" stop-color="#273779"/>
</linearGradient>
<linearGradient id="paint17_linear_23_50105" x1="57.3963" y1="265.091" x2="408.371" y2="265.091" gradientUnits="userSpaceOnUse">
<stop offset="0.0108" stop-color="#EDD183"/>
<stop offset="0.1345" stop-color="#E9CD83"/>
<stop offset="0.2629" stop-color="#DBC184"/>
<stop offset="0.3934" stop-color="#C6AF84"/>
<stop offset="0.5254" stop-color="#AB9784"/>
<stop offset="0.6585" stop-color="#8C7D83"/>
<stop offset="0.7926" stop-color="#6A6380"/>
<stop offset="0.925" stop-color="#41477C"/>
<stop offset="1" stop-color="#273779"/>
</linearGradient>
<linearGradient id="paint18_linear_23_50105" x1="48.0251" y1="275.71" x2="396.505" y2="275.71" gradientUnits="userSpaceOnUse">
<stop offset="0.0108" stop-color="#EDD183"/>
<stop offset="0.1345" stop-color="#E9CD83"/>
<stop offset="0.2629" stop-color="#DBC184"/>
<stop offset="0.3934" stop-color="#C6AF84"/>
<stop offset="0.5254" stop-color="#AB9784"/>
<stop offset="0.6585" stop-color="#8C7D83"/>
<stop offset="0.7926" stop-color="#6A6380"/>
<stop offset="0.925" stop-color="#41477C"/>
<stop offset="1" stop-color="#273779"/>
</linearGradient>
<linearGradient id="paint19_linear_23_50105" x1="39.391" y1="286.332" x2="383.892" y2="286.332" gradientUnits="userSpaceOnUse">
<stop offset="0.0108" stop-color="#EDD183"/>
<stop offset="0.1345" stop-color="#E9CD83"/>
<stop offset="0.2629" stop-color="#DBC184"/>
<stop offset="0.3934" stop-color="#C6AF84"/>
<stop offset="0.5254" stop-color="#AB9784"/>
<stop offset="0.6585" stop-color="#8C7D83"/>
<stop offset="0.7926" stop-color="#6A6380"/>
<stop offset="0.925" stop-color="#41477C"/>
<stop offset="1" stop-color="#273779"/>
</linearGradient>
<linearGradient id="paint20_linear_23_50105" x1="31.4363" y1="296.952" x2="370.612" y2="296.952" gradientUnits="userSpaceOnUse">
<stop offset="0.0108" stop-color="#EDD183"/>
<stop offset="0.1345" stop-color="#E9CD83"/>
<stop offset="0.2629" stop-color="#DBC184"/>
<stop offset="0.3934" stop-color="#C6AF84"/>
<stop offset="0.5254" stop-color="#AB9784"/>
<stop offset="0.6585" stop-color="#8C7D83"/>
<stop offset="0.7926" stop-color="#6A6380"/>
<stop offset="0.925" stop-color="#41477C"/>
<stop offset="1" stop-color="#273779"/>
</linearGradient>
<linearGradient id="paint21_linear_23_50105" x1="24.1723" y1="307.572" x2="356.629" y2="307.572" gradientUnits="userSpaceOnUse">
<stop offset="0.0108" stop-color="#EDD183"/>
<stop offset="0.1345" stop-color="#E9CD83"/>
<stop offset="0.2629" stop-color="#DBC184"/>
<stop offset="0.3934" stop-color="#C6AF84"/>
<stop offset="0.5254" stop-color="#AB9784"/>
<stop offset="0.6585" stop-color="#8C7D83"/>
<stop offset="0.7926" stop-color="#6A6380"/>
<stop offset="0.925" stop-color="#41477C"/>
<stop offset="1" stop-color="#273779"/>
</linearGradient>
<linearGradient id="paint22_linear_23_50105" x1="17.6837" y1="318.194" x2="341.876" y2="318.194" gradientUnits="userSpaceOnUse">
<stop offset="0.0108" stop-color="#EDD183"/>
<stop offset="0.1345" stop-color="#E9CD83"/>
<stop offset="0.2629" stop-color="#DBC184"/>
<stop offset="0.3934" stop-color="#C6AF84"/>
<stop offset="0.5254" stop-color="#AB9784"/>
<stop offset="0.6585" stop-color="#8C7D83"/>
<stop offset="0.7926" stop-color="#6A6380"/>
<stop offset="0.925" stop-color="#41477C"/>
<stop offset="1" stop-color="#273779"/>
</linearGradient>
<linearGradient id="paint23_linear_23_50105" x1="12.0855" y1="328.812" x2="326.234" y2="328.812" gradientUnits="userSpaceOnUse">
<stop offset="0.0108" stop-color="#EDD183"/>
<stop offset="0.1345" stop-color="#E9CD83"/>
<stop offset="0.2629" stop-color="#DBC184"/>
<stop offset="0.3934" stop-color="#C6AF84"/>
<stop offset="0.5254" stop-color="#AB9784"/>
<stop offset="0.6585" stop-color="#8C7D83"/>
<stop offset="0.7926" stop-color="#6A6380"/>
<stop offset="0.925" stop-color="#41477C"/>
<stop offset="1" stop-color="#273779"/>
</linearGradient>
<linearGradient id="paint24_linear_23_50105" x1="7.32694" y1="339.435" x2="309.752" y2="339.435" gradientUnits="userSpaceOnUse">
<stop offset="0.0108" stop-color="#EDD183"/>
<stop offset="0.1345" stop-color="#E9CD83"/>
<stop offset="0.2629" stop-color="#DBC184"/>
<stop offset="0.3934" stop-color="#C6AF84"/>
<stop offset="0.5254" stop-color="#AB9784"/>
<stop offset="0.6585" stop-color="#8C7D83"/>
<stop offset="0.7926" stop-color="#6A6380"/>
<stop offset="0.925" stop-color="#41477C"/>
<stop offset="1" stop-color="#273779"/>
</linearGradient>
<linearGradient id="paint25_linear_23_50105" x1="3.6823" y1="350.053" x2="292.159" y2="350.053" gradientUnits="userSpaceOnUse">
<stop offset="0.0108" stop-color="#EDD183"/>
<stop offset="0.1345" stop-color="#E9CD83"/>
<stop offset="0.2629" stop-color="#DBC184"/>
<stop offset="0.3934" stop-color="#C6AF84"/>
<stop offset="0.5254" stop-color="#AB9784"/>
<stop offset="0.6585" stop-color="#8C7D83"/>
<stop offset="0.7926" stop-color="#6A6380"/>
<stop offset="0.925" stop-color="#41477C"/>
<stop offset="1" stop-color="#273779"/>
</linearGradient>
<linearGradient id="paint26_linear_23_50105" x1="1.11989" y1="360.673" x2="273.482" y2="360.673" gradientUnits="userSpaceOnUse">
<stop offset="0.0108" stop-color="#EDD183"/>
<stop offset="0.1345" stop-color="#E9CD83"/>
<stop offset="0.2629" stop-color="#DBC184"/>
<stop offset="0.3934" stop-color="#C6AF84"/>
<stop offset="0.5254" stop-color="#AB9784"/>
<stop offset="0.6585" stop-color="#8C7D83"/>
<stop offset="0.7926" stop-color="#6A6380"/>
<stop offset="0.925" stop-color="#41477C"/>
<stop offset="1" stop-color="#273779"/>
</linearGradient>
<linearGradient id="paint27_linear_23_50105" x1="0.0733367" y1="371.294" x2="253.287" y2="371.294" gradientUnits="userSpaceOnUse">
<stop offset="0.0108" stop-color="#EDD183"/>
<stop offset="0.1345" stop-color="#E9CD83"/>
<stop offset="0.2629" stop-color="#DBC184"/>
<stop offset="0.3934" stop-color="#C6AF84"/>
<stop offset="0.5254" stop-color="#AB9784"/>
<stop offset="0.6585" stop-color="#8C7D83"/>
<stop offset="0.7926" stop-color="#6A6380"/>
<stop offset="0.925" stop-color="#41477C"/>
<stop offset="1" stop-color="#273779"/>
</linearGradient>
<linearGradient id="paint28_linear_23_50105" x1="0.742259" y1="381.916" x2="231.37" y2="381.916" gradientUnits="userSpaceOnUse">
<stop offset="0.0108" stop-color="#EDD183"/>
<stop offset="0.1345" stop-color="#E9CD83"/>
<stop offset="0.2629" stop-color="#DBC184"/>
<stop offset="0.3934" stop-color="#C6AF84"/>
<stop offset="0.5254" stop-color="#AB9784"/>
<stop offset="0.6585" stop-color="#8C7D83"/>
<stop offset="0.7926" stop-color="#6A6380"/>
<stop offset="0.925" stop-color="#41477C"/>
<stop offset="1" stop-color="#273779"/>
</linearGradient>
<linearGradient id="paint29_linear_23_50105" x1="3.73886" y1="392.536" x2="207.132" y2="392.536" gradientUnits="userSpaceOnUse">
<stop offset="0.0108" stop-color="#EDD183"/>
<stop offset="0.1345" stop-color="#E9CD83"/>
<stop offset="0.2629" stop-color="#DBC184"/>
<stop offset="0.3934" stop-color="#C6AF84"/>
<stop offset="0.5254" stop-color="#AB9784"/>
<stop offset="0.6585" stop-color="#8C7D83"/>
<stop offset="0.7926" stop-color="#6A6380"/>
<stop offset="0.925" stop-color="#41477C"/>
<stop offset="1" stop-color="#273779"/>
</linearGradient>
<linearGradient id="paint30_linear_23_50105" x1="10.1304" y1="403.157" x2="179.499" y2="403.157" gradientUnits="userSpaceOnUse">
<stop offset="0.0108" stop-color="#EDD183"/>
<stop offset="0.1345" stop-color="#E9CD83"/>
<stop offset="0.2629" stop-color="#DBC184"/>
<stop offset="0.3934" stop-color="#C6AF84"/>
<stop offset="0.5254" stop-color="#AB9784"/>
<stop offset="0.6585" stop-color="#8C7D83"/>
<stop offset="0.7926" stop-color="#6A6380"/>
<stop offset="0.925" stop-color="#41477C"/>
<stop offset="1" stop-color="#273779"/>
</linearGradient>
<linearGradient id="paint31_linear_23_50105" x1="22.9779" y1="413.775" x2="145.41" y2="413.775" gradientUnits="userSpaceOnUse">
<stop offset="0.0108" stop-color="#EDD183"/>
<stop offset="0.1345" stop-color="#E9CD83"/>
<stop offset="0.2629" stop-color="#DBC184"/>
<stop offset="0.3934" stop-color="#C6AF84"/>
<stop offset="0.5254" stop-color="#AB9784"/>
<stop offset="0.6585" stop-color="#8C7D83"/>
<stop offset="0.7926" stop-color="#6A6380"/>
<stop offset="0.925" stop-color="#41477C"/>
<stop offset="1" stop-color="#273779"/>
</linearGradient>
</defs>
</svg>
