<svg width="38" height="36" viewBox="0 0 38 36" fill="none" xmlns="http://www.w3.org/2000/svg">
<path d="M1.44473 5.25449L4.24472 6.79453L8.3847 23.3346L6.43472 24.8746C5.97472 25.2446 5.70471 25.7944 5.70471 26.3844V29.2848C5.70471 30.3348 6.5547 31.1947 7.6047 31.2047L9.52472 31.2345C9.42472 31.5345 9.37472 31.8547 9.37472 32.1847C9.37472 33.8847 10.7547 35.2647 12.4547 35.2647C14.1547 35.2647 15.5347 33.8847 15.5347 32.1847C15.5347 31.8847 15.4947 31.5948 15.4147 31.3248L28.1947 31.5045C28.1447 31.7245 28.1147 31.9547 28.1147 32.1847C28.1147 33.8847 29.4947 35.2647 31.1947 35.2647C32.8947 35.2647 34.2847 33.8847 34.2847 32.1847C34.2847 31.9847 34.2647 31.7846 34.2247 31.5846L35.0647 31.5948C36.1147 31.5948 36.9747 30.7444 36.9847 29.6944C36.9947 29.1744 36.7947 28.6948 36.4347 28.3248C36.0747 27.9548 35.5947 27.7447 35.0847 27.7447L9.53473 27.3844V27.3145L10.8847 26.2447C11.0047 26.2647 11.1347 26.2745 11.2547 26.2745L32.1547 26.4644C33.4647 26.4644 34.5847 25.5745 34.8747 24.2945L37.5847 12.5045C37.9247 11.0045 36.9847 9.50439 35.4847 9.15439C33.9847 8.81439 32.4847 9.75449 32.1347 11.2545L29.9347 20.8546L13.4747 20.7047L9.36471 4.24472C9.17471 3.49472 8.67473 2.8447 8.00473 2.4747L4.1347 0.344819C2.7847 -0.395181 1.08473 0.0944283 0.344725 1.44443C-0.395275 2.80443 0.0947313 4.50449 1.44473 5.25449ZM1.68472 2.19443C2.02472 1.58443 2.79472 1.36443 3.40472 1.69443L7.26471 3.81455C7.57471 3.98455 7.7947 4.27435 7.8847 4.61435L12.1447 21.6446C12.2247 21.9846 12.5347 22.2247 12.8847 22.2247L30.5547 22.3844C30.9147 22.3644 31.2247 22.1445 31.3047 21.7945L33.6447 11.5948C33.8047 10.9148 34.4847 10.4946 35.1647 10.6446C35.8447 10.8046 36.2647 11.4844 36.1147 12.1544L33.4047 23.9444C33.2747 24.5244 32.7647 24.9244 32.1647 24.9244L11.2847 24.7345C11.1847 24.7345 11.0647 24.7144 10.9347 24.6744C10.6947 24.6044 10.4347 24.6548 10.2347 24.8048L8.30472 26.3248C8.12472 26.4748 8.01471 26.6944 8.01471 26.9244V28.1143C8.01471 28.5343 8.35472 28.8744 8.77472 28.8844L35.0747 29.2545C35.1847 29.2545 35.2747 29.2946 35.3547 29.3746C35.3947 29.4146 35.4647 29.5144 35.4647 29.6544C35.4647 29.8644 35.2847 30.0445 35.0647 30.0445L33.0747 30.0147C32.7847 30.0147 32.5147 30.1747 32.3847 30.4347C32.2547 30.6947 32.2747 31.0047 32.4547 31.2447C32.6647 31.5147 32.7647 31.8346 32.7647 32.1646C32.7647 33.0246 32.0647 33.7144 31.2147 33.7144C30.3547 33.7144 29.6647 33.0146 29.6647 32.1646C29.6647 31.7346 29.8547 31.4047 30.0047 31.2047C30.1847 30.9747 30.2247 30.6644 30.0947 30.4044C29.9747 30.1444 29.7047 29.9744 29.4147 29.9644L14.1047 29.7545H14.0947C13.7847 29.7545 13.5047 29.9347 13.3847 30.2247C13.2647 30.5147 13.3347 30.8445 13.5547 31.0645C13.8547 31.3545 14.0147 31.7546 14.0147 32.1646C14.0147 33.0246 13.3147 33.7144 12.4647 33.7144C11.6047 33.7144 10.9147 33.0146 10.9147 32.1646C10.9147 31.7346 11.0947 31.3348 11.4147 31.0348C11.6447 30.8248 11.7247 30.4944 11.6047 30.1944C11.4947 29.9044 11.2147 29.7047 10.9047 29.7047L7.6347 29.6544C7.4247 29.6544 7.24472 29.4747 7.24472 29.2647V26.3643C7.24472 26.2443 7.29471 26.1348 7.39471 26.0548L9.73471 24.2144C9.97471 24.0244 10.0747 23.7244 10.0047 23.4244L5.66473 6.0748C5.61473 5.8648 5.47471 5.69482 5.29471 5.59482L2.20471 3.89462C1.57471 3.57462 1.34472 2.80443 1.68472 2.19443Z" fill="#6D6E71"/>
</svg>
